<svg width="211" height="62" viewBox="0 0 211 62" fill="none" xmlns="http://www.w3.org/2000/svg">
<g clip-path="url(#clip0_268_275)">
<path fill-rule="evenodd" clip-rule="evenodd" d="M181.08 43.6214L185.314 30.4509L190.11 43.6325L181.08 43.6224V43.6214ZM194.335 0.0514355L175.924 0.0453843C169.512 23.5666 165.987 37.2454 159.106 61.9697L176.662 61.9899C177.26 60.109 177.859 57.7389 178.545 55.3356H191.648C192.417 58.1665 192.683 59.4403 193.531 61.997L211 62.001C205.44 40.9003 201.842 26.8009 194.335 0.0524441V0.0514355ZM33.0982 42.4969C32.8812 44.167 31.6981 45.4146 29.9335 45.7998C29.145 45.9279 28.3486 45.9975 27.5501 46.0066H19.0834L19.0935 37.674L27.5127 37.676L28.1022 37.678C28.7705 37.678 29.5216 37.67 30.4291 38.0169C32.116 38.6503 33.2042 40.2942 33.1285 42.0924V42.0985C33.1224 42.2316 33.1123 42.3647 33.0972 42.4969H33.0982ZM26.0651 15.351L26.7374 15.3712L28.8644 15.59C30.8501 16.0781 32.2482 17.591 32.2674 19.2692V19.2793C32.2735 21.4163 30.7572 23.2206 28.7423 23.4748L26.3094 23.6361L19.1107 23.6321L19.1006 15.347L26.0661 15.351H26.0651ZM45.729 31.0106C49.2047 26.3895 50.8511 20.3201 49.6347 14.2083C48.5525 8.70068 44.5166 2.87434 38.4788 1.30606C35.4897 0.533518 32.5339 0.144221 27.7762 0.037316L0 0.0201708L0.0454271 61.9607L26.4124 61.9667C31.2508 61.8114 36.0601 62.2935 39.8669 60.582C46.582 57.5544 51.4861 52.6771 51.6042 44.9143C51.6951 39.4833 49.8124 34.4608 45.727 31.0096H45.729V31.0106ZM141.948 45.6264C141.964 30.2542 141.968 0.0332818 141.968 0.0332818C136.055 0.0332818 135.71 0.0393331 123.992 0.0252135C123.978 38.2489 123.98 41.5609 123.974 61.9697C137.668 61.9637 154.144 61.9758 154.144 61.9758C154.136 54.5066 154.146 51.8289 154.15 45.6344L141.946 45.6264H141.948ZM57.6491 0C57.6491 0 57.6309 44.4211 57.6289 61.9385C65.7543 61.9405 69.6065 61.9385 75.8179 61.9445C75.8179 41.8645 75.8341 0.00806832 75.8341 0.00806832C70.1304 0.0100854 66.0016 0 57.647 0L57.6491 0ZM104.189 0.0453843C98.272 0.0413501 97.9308 0.0514355 86.2147 0.0453843C86.1985 38.264 86.2005 41.5861 86.1834 61.9818C99.8781 61.9879 116.352 61.9899 116.352 61.9899C116.366 54.5166 116.366 51.8571 116.372 45.6526L104.172 45.6566L104.188 0.0453843H104.189Z" fill="#2E453D"/>
</g>
<defs>
<clipPath id="clip0_268_275">
<rect width="211" height="62" fill="white"/>
</clipPath>
</defs>
</svg>
