<?xml version="1.0" encoding="UTF-8"?>
<svg id="Vrstva_1" data-name="Vrstva 1" xmlns="http://www.w3.org/2000/svg" xmlns:xlink="http://www.w3.org/1999/xlink" viewBox="0 0 193.03 56.72">
  <defs>
    <style>
      .cls-1 {
        fill: none;
      }

      .cls-2 {
        fill: #2e453d;
        fill-rule: evenodd;
      }

      .cls-3 {
        clip-path: url(#clippath);
      }
    </style>
    <clipPath id="clippath">
      <rect class="cls-1" width="193.03" height="56.72"/>
    </clipPath>
  </defs>
  <g class="cls-3">
    <path class="cls-2" d="M165.66,39.91l3.87-12.05,4.39,12.06h-8.26ZM177.79.05h-16.84c-5.87,21.51-9.09,34.03-15.39,56.65l16.06.02c.55-1.72,1.1-3.89,1.72-6.09h11.99c.7,2.59.95,3.76,1.72,6.09h15.98c-5.09-19.3-8.38-32.2-15.25-56.67h0ZM30.28,38.88c-.2,1.53-1.28,2.67-2.9,3.02-.72.12-1.45.18-2.18.19h-7.75v-7.62s7.71,0,7.71,0h.54c.61,0,1.3,0,2.13.31,1.54.58,2.54,2.08,2.47,3.73h0c0,.13-.01.25-.03.37h0ZM23.85,14.04l.62.02,1.95.2c1.82.45,3.1,1.83,3.11,3.37h0c0,1.96-1.38,3.61-3.22,3.85l-2.23.15h-6.59s0-7.58,0-7.58h6.37s0,0,0,0ZM41.83,28.37c3.18-4.23,4.69-9.78,3.57-15.37-.99-5.04-4.68-10.37-10.21-11.8C32.47.49,29.76.13,25.41.03L0,.02l.04,56.67h24.12c4.43-.14,8.83.3,12.31-1.26,6.14-2.77,10.63-7.23,10.74-14.33.08-4.97-1.64-9.56-5.38-12.72h0ZM129.86,41.74c.01-14.06.02-41.71.02-41.71-5.41,0-5.73,0-16.45,0-.01,34.97-.01,38-.02,56.67,12.53,0,27.6,0,27.6,0,0-6.83,0-9.28,0-14.95h-11.16s0,0,0,0ZM52.74,0s-.02,40.64-.02,56.66c7.43,0,10.96,0,16.64,0,0-18.37.01-56.66.01-56.66-5.22,0-9,0-16.64,0h0ZM95.32.04c-5.41,0-5.73,0-16.44,0-.01,34.96-.01,38-.03,56.66,12.53,0,27.6,0,27.6,0,.01-6.84.01-9.27.02-14.95h-11.16s.01-41.72.01-41.72h0Z"/>
  </g>
</svg>