<?xml version="1.0" encoding="UTF-8"?>
<svg id="Vrstva_1" data-name="Vrstva 1" xmlns="http://www.w3.org/2000/svg" xmlns:xlink="http://www.w3.org/1999/xlink" viewBox="0 0 461 58">
  <defs>
    <style>
      .cls-1 {
        fill: none;
      }

      .cls-2 {
        fill: #2e453d;
        fill-rule: evenodd;
      }

      .cls-3 {
        clip-path: url(#clippath);
      }
    </style>
    <clipPath id="clippath">
      <rect class="cls-1" width="461" height="58"/>
    </clipPath>
  </defs>
  <g class="cls-3">
    <path class="cls-2" d="M223.47,13.59c-2.13,0-2.71,1.64-2.71,3.07v6.28h10.19c5.93-.03,5.93-9.38-.22-9.34h-7.26,0ZM356.01,13.59c-2.09,0-2.67,1.64-2.67,3.07v6.28h9.77c5.92-.1,7.03-8.92-.21-9.34h-6.88ZM361.39,56.72h-11.19c-3.52.15-5.62-2.38-6.05-5.06-.51,2.78-2.96,5.25-6.71,5.06l-10.93.04.03-12.1,5.79-.07c1.57.07,2.33-1.08,2.33-1.67v-7.62c0-2.91-5.04-5.46-5.7-6.1.64-.78,5.88-3.7,5.74-6.13l.06-7.26c0-1.04-.19-2.35-1.85-2.35h-6.37l-.03-12.36h11.06c3.3.14,6.32,2.1,6.62,5.77.15-3.73,4.18-5.7,6.47-5.77h21.94c11.82,0,15.83,8.24,15.78,14.97-.08,5.72-4,12.3-11.24,12.49,8.82,1.76,7.28,7.93,7.56,14.04.04.9.65,2.04,2.27,2.04h3.96l-.02,12.1-11.83.05c-2.17.06-3.34.28-5.93-.46-5.5-1.57-7.32-8.83-7.61-16.07-.14-3.05-2.62-4.91-5.49-4.98h-6.83v7.38c.04.82,1.19,1.97,2.61,1.97h5.66l-.08,12.06h0ZM228.99,56.69l-.06-12.22h-5.65c-1.5,0-2.52-1.13-2.56-1.9v-7.42h6.76c2.89.05,5.28,1.93,5.4,4.94.32,7.25,2.14,14.9,7.65,16.07,2.56.58,4.58.55,5.98.51l11.89-.05v-12.13h-4c-1.45,0-2.17-1.13-2.2-2.02-.12-6.08,1.23-12.26-7.59-14.02,7.26-.2,11.19-6.73,11.28-12.51.03-6.66-4.2-15.19-15.73-14.95h-21.98c-2.34.15-6.35,2.07-6.5,5.75-.26-3.68-3.27-5.63-6.63-5.75h-11.05l.03,12.43,6.36-.02c1.68.02,1.83,1.19,1.83,2.29l-.16,7.24c.1,2.43-5.12,5.32-5.76,6.1.64.66,5.68,3.18,5.73,6.12l.03,7.61c0,.6-.77,1.73-2.22,1.73h-5.77l.1,12.22,10.94-.05c3.78.22,6.22-2.26,6.73-5.02.36,2.66,2.46,5.21,6.05,5.06h11.1,0ZM319.7,56.81l.06-23.65h-13.71l.03,9.68c0,.68-.17,1.83-1.74,1.83h-13.5c-1.62,0-2.34-.77-2.34-1.79v-7.56h2.79c.47,0,.87.39.83.72,0-.29.04,3.23.04,3.23l11.19-.03v-20.2l-11.19.09v3.01c0,.44-.4.79-.84.79h-2.73v-7.09c0-1.14.59-2.3,2.3-2.3h13.17c1.39.05,2.01,1.13,2.05,2.3v9.53l13.57-.08-.03-24.15h-34.2c-2.36.14-5.85,2.04-6.02,5.71-.3-3.67-3.28-5.57-6.68-5.71h-10.65l.08,12.45,5.89-.09c1.5.05,1.93,1.24,1.96,2.35v7.22c.08,2.37-5.16,5.34-5.8,6.08.64.64,5.68,3.22,5.74,6.13l-.06,7.62c0,.71-.85,1.79-2.41,1.79h-5.7l.07,12.18,10.88-.03c3.82.18,6.24-2.29,6.76-5.07.37,2.71,3.01,5.17,6.04,5.07h34.12,0ZM119.1,56.72l.03-23.57h-13.7l.05,9.68c0,.68-.44,1.83-1.79,1.83h-13.46c-1.45,0-2.28-.81-2.34-1.79l.02-7.56h2.81c.45,0,.81.46.81.72-.05-.29,0,3.23,0,3.23l11.24-.03v-20.2l-11.22.09v3.01c0,.34-.45.79-.84.79h-2.73l-.03-7.03c0-1.1.77-2.4,2.32-2.4h13.16c1.49,0,2.01,1.2,2.05,2.39v9.49l13.6-.02-.06-24.22h-34.15c-2.31.14-5.87,2.04-5.98,5.77-.27-3.73-3.34-5.63-6.72-5.77h-10.88l-.06,12.36,6.27.05c1.74.05,1.86,1.36,1.93,2.34v7.22c.08,2.43-5.15,5.34-5.81,6.13.66.6,5.69,3.19,5.73,6.1l-.03,7.62c0,.59-.74,1.67-2.36,1.74h-5.78v12.06h10.96c3.81.19,6.24-2.28,6.76-5.06.34,2.65,2.5,5.21,6.03,5.06h34.17,0ZM155.12,13.53c-2.13,0-2.71,1.64-2.71,3.04v6.28h10.19c6.13.06,5.93-9.06-.22-9.32h-7.26,0ZM160.52,56.72h-11.22c-3.52.15-5.68-2.4-6.05-5.06-.48,2.78-2.94,5.25-6.73,5.03l-10.9.03v-12.06h5.79c1.53,0,2.34-1.15,2.34-1.79v-7.62c0-2.91-5.03-5.48-5.7-6.13.63-.74,5.89-3.71,5.79-6.08v-7.22c.04-.94-.44-2.35-2.08-2.35h-6.2V1.12h11.07c3.6.14,6.37,2.04,6.58,5.77.16-3.73,4.23-5.61,6.49-5.77h22.06c11.55-.24,15.71,8.18,15.69,14.9-.08,5.73-3.99,12.29-11.23,12.43,8.82,1.8,7.64,7.94,7.53,14.08,0,.98.75,2.13,2.2,2.13h4v12.03h-12.12c-2.23-.05-3.62.03-5.87-.51-5.36-1.2-7.3-8.84-7.64-16.02-.08-3.06-2.46-4.91-5.34-4.98h-6.64v7.43c0,.9,1.09,2.04,2.57,2.04h5.64s0,12.06-.03,12.06M424.63,45.34c6.61.1,9.73-8.32,9.61-10.79-.05-2.83-4.51-5.09-5.07-5.59.75-.62,5.01-2.68,5.07-5.75-.05-3.76-3.12-10.5-9.69-10.54-6.63-.18-9.71,8.23-9.58,10.65.03,2.9,4.44,5.17,4.99,5.68-.77.63-5.05,2.63-5.09,5.67-.04,3.82,3.18,10.58,9.75,10.67M424.79,58c18.05-.07,29.4-8.86,30.37-23.49.49-2.42,4.14-4.32,5.84-5.59-1.67-1.27-5.39-3.03-5.92-5.47C454.56,13.21,448.66-.2,424.35,0c-18.03-.06-29.2,8.58-30.3,23.2-.49,2.4-4.19,4.31-5.87,5.51,1.62,1.28,5.35,3.07,5.81,5.57.48,10.21,6.49,23.69,30.8,23.71M.3,1.12h10.69c3.34,0,6.32,1.99,6.64,5.66.15-3.67,3.74-5.51,6.05-5.66h34.04v24.07h-13.57v-9.33c.04-1.08-.44-2.39-1.9-2.39l-13.58-.02c-1.41.02-1.86,1.32-1.92,2.36v7.09h2.32c.4,0,.77-.41.77-.75v-3.14l11.2-.05v20.22h-11.17v-3.11c-.03-.35-.46-.77-.84-.77h-2.31l-.04,7.5c.04.71.81,1.86,2.38,1.86h5.83v12.06h-11.21c-3.54.15-5.68-2.4-6.05-5.06-.51,2.78-2.94,5.25-6.71,5.06L0,56.76v-12.1h6.14c1.55,0,1.98-1.15,1.97-1.86v-7.67c0-2.94-5.08-5.49-5.71-6.17.64-.72,5.87-3.69,5.78-6.05v-7.18c0-1.04-.37-2.2-1.9-2.25H.38L.3,1.11H.3Z"/>
  </g>
</svg>