<svg width="155" height="101" viewBox="0 0 155 101" fill="none" xmlns="http://www.w3.org/2000/svg">
<g clip-path="url(#clip0_268_258)">
<path fill-rule="evenodd" clip-rule="evenodd" d="M92.4541 36.403C92.4541 38.2484 92.0094 40.4121 90.5489 42.3216H94.6122V12.6011H81.5947V24.7565C88.6437 26.7928 92.4541 31.0568 92.4541 36.403Z" fill="#2E453D"/>
<path fill-rule="evenodd" clip-rule="evenodd" d="M70.039 23.6744C72.96 23.6744 75.6907 24.3109 77.7856 24.8834C73.3408 24.1194 66.4829 25.2016 62.9907 27.811V42.3209H75.9443V25.8374C78.7375 26.2831 80.8983 27.3646 82.1671 28.1919V42.3203H85.0242C82.3582 45.1838 77.4041 46.9025 73.0858 46.266V46.8384C85.4689 47.7932 90.6759 42.1928 90.6759 35.956C90.6759 28.6369 83.4359 24.3096 75.9436 23.4189V12.5998H62.9907V23.5463C54.5451 25.1376 46.3538 29.9106 46.3538 37.7387C46.3538 49.8308 64.1337 57.2766 79.6262 57.2766C103.185 57.2766 121.282 46.5209 121.282 31.3744C121.282 13.0468 95.1201 0 74.6109 0C51.0529 0 33.7177 14.1283 33.7177 29.2755C33.7177 37.1036 38.3529 43.7221 44.195 48.3043L44.6397 47.986C40.0045 44.3585 35.8133 38.6308 35.8133 30.8667C37.0195 14.2564 58.6091 4.96454 77.7862 4.96454C91.3749 4.96454 115.758 7.89216 115.758 29.4029C115.758 40.6036 103.058 55.1783 76.5161 55.1783C62.9274 55.1783 52.387 48.3043 52.387 38.3759C52.387 29.7845 59.4352 23.6744 70.0396 23.6744H70.039ZM19.7483 100.426V98.7068H24.257V84.0701H12.1288V98.7068H16.764V100.426H0V98.7068H4.25441V68.9237H0V67.2057H16.7633V68.9237H12.1282V82.0972H24.2563V68.9237H19.7476V67.2057H36.3206V68.9237H32.0661V98.7068H36.3206V100.426H19.7476H19.7483ZM42.7345 67.2057H50.3546V71.1507H42.7345V67.2057ZM38.988 100.426V98.7068H43.1152V78.279H38.988V76.625H50.6714V98.7068H54.4812V100.426H38.9873H38.988ZM56.0695 100.426V98.7068H60.3239V64.5329H56.0695V62.8776H67.9441V98.7068H71.8809V100.426H56.0695ZM83.7555 100.426C79.5629 100.426 77.3409 98.3886 77.3409 95.2715V78.2783H73.2769V76.6243H77.3409V67.1409C79.6262 67.1409 82.04 67.2043 84.4524 67.1409V76.6243H90.2952V78.2783H84.4524V98.7062H90.421V100.426H83.7548V100.426H83.7555ZM118.933 93.2353C118.108 95.463 114.489 101.001 105.789 101.001C96.1379 101.001 91.1852 94.6991 91.1852 88.3362C91.1852 79.4899 99.5037 75.8618 105.663 75.8618C111.123 75.8618 119.06 78.9809 119.696 87.9538C119.821 89.7366 119.633 91.6461 118.933 93.236V93.2353ZM110.742 80.444C109.726 78.343 107.948 77.3883 105.599 77.3883C99.6301 77.3883 99.503 83.2442 99.503 88.2707C99.503 95.016 100.137 96.2263 100.645 97.0536C101.408 98.39 102.994 99.6623 105.663 99.6623C111.567 99.6623 111.567 93.5528 111.503 88.0159C111.44 81.9705 111.06 81.2072 110.742 80.444H110.742ZM140.015 100.426V98.7068H143.38V84.7059C143.38 81.5241 143.38 78.4064 139.697 78.4064C137.601 78.4064 134.173 80.3793 133.41 83.5611C133.093 84.5792 133.157 85.5966 133.157 88.2707V98.7068H136.967V100.426H121.537V98.7068H125.6V78.279H121.537V76.625H133.157V80.1878C134.426 78.6592 135.443 77.5791 137.918 76.6884C139.697 75.9238 141.347 75.7957 142.492 75.7957C142.936 75.7957 144.333 75.7957 145.92 76.2413C150.81 77.5798 151 81.0791 151 83.5611V98.7068H155.001V100.426H140.015H140.015ZM114.678 51.8043H113.472V51.3587H116.519V51.8043H115.25V56.005H114.679V51.8043H114.679H114.678ZM119.949 55.1783H120.012L121.537 51.3587H122.298V56.0043H121.727V52.5676H121.664L120.266 56.005H119.697L118.236 52.5676H118.173V56.005H117.602V51.3593H118.427L119.95 55.1776L119.949 55.1783Z" fill="#2E453D"/>
</g>
<defs>
<clipPath id="clip0_268_258">
<rect width="155" height="101" fill="white"/>
</clipPath>
</defs>
</svg>
