<?xml version="1.0" encoding="UTF-8"?>
<svg id="Vrstva_1" data-name="Vrstva 1" xmlns="http://www.w3.org/2000/svg" xmlns:xlink="http://www.w3.org/1999/xlink" viewBox="0 0 86.34 56.26">
  <defs>
    <style>
      .cls-1 {
        fill: none;
      }

      .cls-2 {
        fill: #2e453d;
        fill-rule: evenodd;
      }

      .cls-3 {
        clip-path: url(#clippath);
      }
    </style>
    <clipPath id="clippath">
      <rect class="cls-1" width="86.34" height="56.26"/>
    </clipPath>
  </defs>
  <g class="cls-3">
    <g>
      <path class="cls-2" d="M51.5,20.28c0,1.03-.25,2.23-1.06,3.3h2.26V7.02h-7.25v6.77c3.93,1.13,6.05,3.51,6.05,6.49Z"/>
      <path class="cls-2" d="M39.01,13.19c1.63,0,3.15.35,4.31.67-2.48-.43-6.3.18-8.24,1.63v8.08h7.22v-9.18c1.56.25,2.76.85,3.47,1.31v7.87h1.59c-1.49,1.6-4.24,2.55-6.65,2.2v.32c6.9.53,9.8-2.59,9.8-6.06,0-4.08-4.03-6.49-8.21-6.98v-6.03h-7.21v6.1c-4.7.89-9.27,3.55-9.27,7.91,0,6.74,9.9,10.88,18.53,10.88,13.12,0,23.2-5.99,23.2-14.43C67.56,7.27,52.98,0,41.56,0c-13.12,0-22.78,7.87-22.78,16.31,0,4.36,2.58,8.05,5.84,10.6l.25-.18c-2.58-2.02-4.92-5.21-4.92-9.54.67-9.25,12.7-14.43,23.38-14.43,7.57,0,21.15,1.63,21.15,13.61,0,6.24-7.07,14.36-21.86,14.36-7.57,0-13.44-3.83-13.44-9.36,0-4.79,3.93-8.19,9.83-8.19h0ZM11,55.94v-.96h2.51v-8.15h-6.76v8.15h2.58v.96H0v-.96h2.37v-16.59H0v-.96h9.34v.96h-2.58v7.34h6.76v-7.34h-2.51v-.96h9.23v.96h-2.37v16.59h2.37v.96h-9.23,0ZM23.8,37.43h4.24v2.2h-4.24v-2.2ZM21.72,55.94v-.96h2.3v-11.38h-2.3v-.92h6.51v12.3h2.12v.96h-8.63,0ZM31.23,55.94v-.96h2.37v-19.04h-2.37v-.92h6.61v19.96h2.19v.96h-8.81ZM46.65,55.94c-2.34,0-3.57-1.13-3.57-2.87v-9.47h-2.26v-.92h2.26v-5.28c1.27,0,2.62.04,3.96,0v5.28h3.25v.92h-3.25v11.38h3.32v.96h-3.71,0ZM66.25,51.93c-.46,1.24-2.48,4.33-7.32,4.33-5.38,0-8.13-3.51-8.13-7.05,0-4.93,4.63-6.95,8.06-6.95,3.04,0,7.46,1.74,7.82,6.74.07.99-.04,2.06-.43,2.94h0ZM61.69,44.81c-.57-1.17-1.56-1.7-2.86-1.7-3.32,0-3.4,3.26-3.4,6.06,0,3.76.35,4.43.64,4.89.43.74,1.31,1.45,2.8,1.45,3.29,0,3.29-3.4,3.25-6.49-.04-3.37-.25-3.79-.42-4.22h0ZM77.99,55.94v-.96h1.87v-7.8c0-1.77,0-3.51-2.05-3.51-1.17,0-3.08,1.1-3.5,2.87-.18.57-.14,1.13-.14,2.62v5.81h2.12v.96h-8.59v-.96h2.26v-11.38h-2.26v-.92h6.47v1.98c.71-.85,1.27-1.45,2.65-1.95.99-.43,1.91-.5,2.55-.5.25,0,1.03,0,1.91.25,2.72.75,2.83,2.69,2.83,4.08v8.44h2.23v.96h-8.35ZM63.88,28.86h-.67v-.25h1.7v.25h-.71v2.34h-.32v-2.34h0ZM66.81,30.74h.04l.85-2.13h.42v2.59h-.32v-1.91h-.04l-.78,1.91h-.32l-.81-1.91h-.04v1.91h-.32v-2.59h.46l.85,2.13h0Z"/>
    </g>
  </g>
</svg>