<svg width="208" height="92" viewBox="0 0 208 92" fill="none" xmlns="http://www.w3.org/2000/svg">
<g clip-path="url(#clip0_268_261)">
<path d="M55.4308 1.57122C53.3937 3.6138 51.0431 8.58932 49.5284 13.8791C48.3792 18.1737 47.3868 19.9021 46.1854 19.9021C44.4617 19.9021 40.2308 21.1067 40.2308 21.578C40.2308 21.9447 41.4844 22.0494 43.9394 21.7875L47.7002 21.4733L47.2823 24.1967C47.0734 25.7156 46.76 29.1199 46.551 31.7386C46.0809 37.6568 44.9318 39.8565 39.6562 44.6749C36.0521 48.0792 27.3813 54.3641 26.9634 53.8927C26.8589 53.788 25.083 49.3886 23.0981 44.1512L19.4417 34.5668L20.173 32.1052C21.061 29.2246 21.1132 27.0249 20.3819 25.6108C19.7029 24.3539 16.151 24.1967 15.1586 25.4013C14.0617 26.7631 14.4273 30.2721 15.8898 32.21C16.6211 33.2051 17.2479 34.4097 17.2479 34.9858C17.2479 36.2427 15.1586 39.4376 12.3902 42.3181C10.7187 44.0465 3.1448 50.1218 0.0630089 52.2168C-0.0936924 52.3215 0.0630089 52.6358 0.324178 52.8976C1.52555 54.1022 14.8452 42.999 17.7703 38.3377C18.5538 37.1331 18.7105 37.4997 21.5833 46.4033L24.6129 55.6735L22.2624 58.0827C19.5462 60.8585 18.8149 62.5344 18.8149 65.7292C18.8149 68.9241 20.7476 71.2285 23.4637 71.2285C28.4259 71.2285 30.5675 65.8864 28.4259 58.7111C28.0081 57.1399 27.7991 55.7258 28.0603 55.5163C28.2692 55.3068 30.4631 53.788 32.918 52.112C35.373 50.3837 39.3428 47.0841 41.7978 44.6749C44.2005 42.2657 46.2376 40.3279 46.2899 40.3279C46.2899 40.3279 46.4988 43.1037 46.7077 46.4557C47.5435 61.2775 50.6253 69.0288 56.6844 71.8046C61.4377 74.0043 65.4074 72.8521 70.3174 67.8766C73.347 64.7865 74.5483 63.0058 76.9511 58.135C78.5703 54.8355 80.6074 49.86 81.5477 47.1365C83.3758 41.6373 84.1071 40.3803 84.1071 42.6324C84.1071 45.1987 86.092 51.0646 87.7635 53.3166C89.5917 55.883 90.9497 56.6686 93.3525 56.6686C96.9566 56.6686 100.352 51.4835 101.135 44.7797C101.553 41.4801 101.867 41.1135 104.896 40.6421C106.15 40.4327 108.605 39.5423 110.381 38.5996C112.157 37.7092 113.776 36.8712 113.933 36.7665C114.089 36.7141 114.403 40.5374 114.559 45.3034C114.873 54.2594 115.238 55.7258 117.014 56.3019C119.208 56.9828 120.827 54.5212 125.372 43.5751C130.021 32.2099 130.282 32.4194 130.595 48.184C130.909 62.5344 131.17 63.5295 134.46 63.7914C137.699 64.0533 140.833 62.5344 144.385 58.973C148.302 55.1497 149.974 52.6881 153.787 45.5129C155.406 42.4752 156.764 40.4327 156.921 40.8516C157.025 41.2706 157.652 43.418 158.279 45.5653C159.794 50.7503 161.465 53.9451 163.711 55.9353C165.905 57.8732 167.263 58.3445 169.457 57.9255C172.904 57.2447 175.83 52.7405 177.658 45.2511C178.232 42.6847 178.859 40.2232 179.016 39.8042C179.225 39.0709 184.344 53.9451 184.396 55.4116C184.396 55.7782 183.717 56.6686 182.881 57.4018C177.292 62.1154 177.71 71.2285 183.508 71.2285C185.65 71.2285 187.843 69.9192 188.47 68.2432C189.828 64.8913 189.776 63.8438 188.261 57.0352C188 55.8306 188.418 55.3592 193.067 52.0597C201.685 45.9843 207.379 39.7518 207.953 35.6666C208.267 33.624 206.961 33.7812 206.386 35.8761C205.289 39.9089 199.439 45.8795 191.239 51.4312C189.149 52.8976 187.217 53.8404 187.008 53.5785C186.746 53.369 185.023 49.022 183.09 43.9941C179.747 35.3 179.643 34.7239 180.165 32.5766C180.896 29.6436 180.896 26.0298 180.113 25.2442C179.173 24.3015 176.247 24.4586 175.255 25.5061C173.845 26.8678 174.472 30.4292 176.509 32.7861C177.762 34.2002 178.128 34.9858 177.919 36.0856C177.762 36.8189 177.397 38.9662 177.083 40.8516C175.934 47.2936 174.001 52.4263 171.86 54.5736C169.666 56.8257 168.203 57.0352 165.853 55.6211C162.928 53.788 159.742 45.8795 159.01 38.4948C158.749 35.719 158.906 34.7763 160.577 30.4816C163.032 24.1444 163.398 21.8923 162.249 20.164C161.047 18.3832 159.219 18.488 157.548 20.4258C155.929 22.3637 155.615 24.6681 155.772 32.4718L155.929 38.4948L153.891 42.4229C148.616 52.6881 142.348 60.2824 137.647 62.0631C133.52 63.6867 133.52 63.5819 133.207 48.1316C132.946 35.9285 132.893 34.9334 131.953 34.2525C129.028 32.1576 126.887 34.881 122.238 46.6651C119.522 53.4214 118.686 55.0973 118.059 54.7307C117.746 54.5212 117.537 51.2217 117.537 47.1889C117.537 43.1561 117.38 38.4948 117.223 36.7141C116.805 32.9432 116.022 32.6289 113.306 35.1429C112.366 36.0332 110.955 37.0807 110.172 37.4997C108.082 38.5472 102.755 39.8565 102.337 39.3852C102.076 39.1757 101.658 37.3426 101.344 35.3524C100.665 30.953 98.7326 26.5012 97.1656 25.6632C95.5463 24.7729 92.6734 25.4537 91.4721 27.0249C89.8528 29.1199 89.5394 32.4718 90.793 35.1429C92.0989 38.1806 93.3525 39.1757 97.0088 40.2755L100.038 41.1659L99.8295 43.7846C99.5161 48.7601 96.9044 53.9975 94.3972 54.9402C90.6363 56.3543 87.7635 51.6407 86.7188 42.3705C85.6219 32.8384 87.7635 24.0396 91.4721 22.5208C93.3002 21.7352 93.457 20.9496 91.7332 20.9496C88.547 20.9496 85.5697 25.4537 84.0549 32.7861C81.391 45.5653 75.0184 60.5442 69.7951 66.3054C66.5566 69.8668 64.2583 71.2285 61.3854 71.2285C56.0054 71.2285 52.2968 66.3577 50.3641 56.8257C49.2672 51.5359 48.7971 34.1478 49.5806 28.1772C50.4163 21.8399 50.4686 21.6828 52.1401 21.0019C53.3414 20.5306 61.6988 18.907 70.2129 17.4405C72.7202 17.0215 74.2349 15.7122 72.2501 15.7122C71.7277 15.7122 66.9222 16.4454 61.5421 17.3358C56.1621 18.2785 51.6177 18.907 51.4088 18.7499C50.782 18.069 53.6026 8.4322 55.692 4.34703C56.8933 1.93783 57.6768 0 57.4157 0C57.2067 0 56.3188 0.733235 55.4308 1.57122ZM161.309 21.9447C161.413 22.5732 160.943 24.8776 160.316 27.0773C159.219 30.7959 159.063 30.953 158.697 29.5389C158.279 27.9153 158.645 23.6206 159.376 21.578C159.951 20.1116 161.1 20.3211 161.309 21.9447ZM19.2328 28.3867C19.3373 29.4865 19.1806 30.7959 18.8672 31.2672C18.3971 32.1052 18.2926 32.0528 17.8225 30.7435C17.5091 29.9055 17.2479 28.5438 17.2479 27.7058C17.2479 26.4488 17.4568 26.1346 18.1881 26.2917C18.8149 26.3964 19.1283 27.0249 19.2328 28.3867ZM179.173 29.0675C179.173 32.5766 178.441 32.7861 177.658 29.5389C177.031 27.0249 177.188 26.187 178.441 26.187C178.964 26.187 179.173 26.9202 179.173 29.0675ZM97.4789 28.02C98.5236 29.6436 99.5161 32.9956 100.038 36.5046C100.456 39.7518 100.038 39.9613 96.6954 38.2329C94.5016 37.1331 92.4645 33.7812 92.4645 31.2148C92.4645 27.3392 95.6508 25.2442 97.4789 28.02ZM25.9709 61.068C27.2768 66.2006 26.3888 69.6573 23.7771 69.6573C22.1057 69.6573 20.3819 67.3528 20.3819 65.1008C20.3819 61.9583 23.0981 57.716 24.7696 58.2922C25.083 58.3969 25.6053 59.6539 25.9709 61.068ZM185.911 60.0729C186.955 64.3152 187.06 65.5198 186.485 67.3005C184.97 71.9617 179.486 68.7669 180.426 63.739C180.792 61.8012 183.56 58.135 184.657 58.135C185.075 58.135 185.65 59.0254 185.911 60.0729Z" fill="#2E453D"/>
<path d="M17.6917 87.3911C17.6917 87.3911 17.6708 87.3492 17.6708 87.2863V87.1816C17.6708 87.035 17.6917 86.9931 17.7126 86.9093C17.7335 86.8674 17.7335 86.8255 17.7335 86.7836C17.7335 86.7417 17.7335 86.6998 17.7126 86.6579C17.7126 86.595 17.6917 86.5531 17.6917 86.4903V86.3855C17.6917 86.3227 17.6917 86.1551 17.7126 86.0503C17.7126 85.9875 17.7335 86.0084 17.7335 85.9456C17.7335 85.8827 17.7544 85.8408 17.7544 85.778V85.7151C17.6499 85.4009 17.6708 85.2542 17.6917 85.0814V85.1024C17.6917 85.1024 17.7126 85.0605 17.7126 85.0395V85.0186C17.7126 85.0186 17.6917 84.9976 17.6917 84.9348V84.6415C17.6917 84.5996 17.7126 84.5577 17.7335 84.5367H17.7126C17.7126 84.5367 17.6917 84.5158 17.6917 84.4948V84.2015C17.7126 84.1387 17.7335 84.0549 17.7126 83.9501V83.7197C17.6917 83.6149 17.6917 83.4473 17.7544 83.2378C17.7544 83.2378 17.7474 83.2378 17.7335 83.2378V83.2588C17.6708 83.1331 17.6708 83.0283 17.7126 82.9445C17.7753 82.6094 17.9424 82.5046 18.2976 82.5046C18.3603 82.5046 18.4439 82.5256 18.5692 82.5675H18.6946C18.7782 82.5465 18.8617 82.5256 18.9453 82.5256C19.0916 82.5256 19.0916 82.5465 19.2378 82.5675C19.3005 82.5884 19.3632 82.5884 19.4467 82.5884H19.5303C19.6766 82.5256 19.8646 82.5046 20.0944 82.5046C20.2407 82.5046 20.3661 82.5256 20.5123 82.5465H20.5959C20.6377 82.5256 20.6795 82.5256 20.7421 82.5256C20.8466 82.5256 20.9093 82.5256 21.0138 82.5884C21.0346 82.5884 21.0764 82.5884 21.0973 82.5675H21.3063C21.3689 82.5675 21.3898 82.5884 21.4734 82.5884C21.5361 82.5884 21.557 82.5884 21.5779 82.5675C21.6406 82.5465 21.7032 82.5046 21.7659 82.5046C21.9957 82.5046 22.1629 82.6932 22.1629 82.9445C22.1629 83.2169 22.0375 83.3426 21.7659 83.3426C21.7032 83.3426 21.5988 83.3216 21.4943 83.3007C21.4525 83.2797 21.4107 83.2797 21.3689 83.2797C21.3272 83.2797 21.2645 83.3007 21.2018 83.3216C21.16 83.3426 21.0973 83.3426 20.9929 83.3426H20.8675C20.8048 83.3426 20.8257 83.3216 20.763 83.3216H20.5123C20.5123 83.3216 20.4705 83.3007 20.4496 83.3007C20.4287 83.3007 20.4287 83.2797 20.4078 83.2797C20.3452 83.3216 20.2616 83.3426 20.178 83.3426C20.1153 83.3426 20.0735 83.3635 19.9273 83.3007H19.9064C19.8228 83.3007 19.7601 83.3007 19.7184 83.3216C19.6557 83.3216 19.593 83.3426 19.5303 83.3426H19.2587C19.2587 83.3426 19.196 83.3216 19.1333 83.3216C19.0707 83.3007 19.0289 83.2797 19.008 83.2797C18.9244 83.3007 18.8408 83.3216 18.7782 83.3216C18.6946 83.3216 18.6319 83.3216 18.611 83.3007H18.4439C18.4439 83.4683 18.4439 83.594 18.423 83.6568C18.423 83.7197 18.423 83.8244 18.4439 83.9292C18.4647 84.0758 18.4647 84.2015 18.4439 84.3063V84.432C18.4439 84.4948 18.4439 84.5367 18.4647 84.5786V84.7462C18.4647 84.8091 18.4856 84.7881 18.4856 84.851C18.4856 84.9138 18.4647 84.9138 18.4647 84.9767V85.1024C18.4439 85.1652 18.4439 85.2071 18.4439 85.249C18.4439 85.3119 18.423 85.3537 18.423 85.4166V85.5842C18.423 85.7308 18.4021 85.9194 18.423 86.0241C18.4856 86.2127 18.4647 86.2546 18.4647 86.4012C18.4439 86.4222 18.4439 86.4431 18.4439 86.4431C18.4439 86.5269 18.4856 86.6317 18.4856 86.7783C18.5483 86.7783 18.5274 86.7574 18.5901 86.7574C18.6528 86.7574 18.7364 86.7993 18.8199 86.8202H19.196C19.3423 86.7993 19.5094 86.7993 19.6557 86.7993C19.7184 86.7993 19.7393 86.7783 19.7601 86.7783H19.9482C20.0109 86.7783 20.0109 86.7574 20.0735 86.7574C20.1571 86.7574 20.2198 86.7993 20.3034 86.8202H20.4287C20.4705 86.7993 20.5332 86.7993 20.5959 86.7993C20.7004 86.7993 20.763 86.7993 20.8048 86.8202H20.9511C20.9929 86.7993 21.0346 86.7993 21.0764 86.7993C21.2227 86.7993 21.3898 86.8831 21.5361 87.1135C21.557 87.1764 21.6197 87.2602 21.3898 87.4906C21.3272 87.5535 21.2227 87.5954 21.0973 87.5954C20.972 87.5954 20.8466 87.5744 20.7421 87.5535L20.7212 87.5325C20.6586 87.5325 20.6377 87.5535 20.6168 87.5535H20.575C20.4914 87.5744 20.4078 87.5954 20.3034 87.5954C20.1571 87.5954 20.0735 87.5954 20.0109 87.5744C19.9691 87.5535 19.9273 87.5535 19.8646 87.5535H19.2796C19.2169 87.5744 19.0916 87.5744 19.0289 87.5744C18.9662 87.5744 18.8617 87.5744 18.799 87.5535H18.5692C18.5065 87.5535 18.5274 87.5744 18.4647 87.5744C18.4856 87.5954 18.4856 87.6163 18.4856 87.6163C18.4856 87.7629 18.4647 87.9305 18.4439 88.0772C18.4439 88.14 18.423 88.2448 18.423 88.3076V88.4543C18.4439 88.5381 18.4856 88.6428 18.4856 88.7266C18.4856 88.8104 18.4439 88.8942 18.423 88.978V88.999C18.423 88.999 18.4439 88.999 18.4439 89.0618C18.4647 89.1247 18.4856 89.2085 18.4856 89.3342C18.4856 89.418 18.4647 89.5018 18.423 89.5856C18.4439 89.6275 18.4647 89.6903 18.4647 89.7532V90.2978C18.4856 90.4445 18.5274 90.5911 18.4647 90.7378V90.8006C18.4856 90.8844 18.5065 91.0101 18.4439 91.1568L18.4647 91.1358C18.4439 91.1987 18.4439 91.2615 18.4439 91.3244V91.5129C18.4439 91.6177 18.4439 91.7643 18.3394 91.8691C18.2767 91.9319 18.1722 91.9738 18.0678 91.9738C17.9633 91.9738 17.8797 91.9319 17.7962 91.8481C17.7335 91.7643 17.7126 91.5967 17.7126 91.492V91.0101C17.7126 90.9263 17.7126 90.8635 17.7335 90.8425V90.8216C17.6708 90.6749 17.6917 90.5911 17.6917 90.4235C17.7126 90.3607 17.7126 90.2769 17.7126 90.1302V89.397C17.7126 89.2504 17.7126 89.0409 17.6917 88.8942C17.6917 88.7895 17.6917 88.5381 17.7126 88.4543V88.2657C17.7126 88.1819 17.7126 88.0981 17.6917 88.0353V88.0562C17.6708 87.9724 17.6499 87.9096 17.6499 87.763C17.6499 87.7001 17.6708 87.6163 17.7126 87.5535V87.4487L17.6917 87.3859V87.3911ZM18.423 87.3701C18.423 87.3701 18.423 87.3911 18.4439 87.412C18.4439 87.412 18.4369 87.3981 18.423 87.3701Z" fill="#2E453D"/>
<path d="M32.6356 83.7459C32.6774 83.5992 32.6983 83.4945 32.6774 83.4107C32.6774 83.3478 32.6565 83.2431 32.6565 83.1593C32.6774 82.9917 32.7191 82.7403 32.9072 82.5936C33.346 82.2794 33.3877 82.6565 33.4504 82.9498C33.4504 83.0126 33.4713 83.0336 33.4713 83.0545C33.4922 83.1383 33.4713 83.2431 33.4504 83.3478C33.4504 83.3688 33.4295 83.3688 33.4295 83.3897V83.683C33.4295 83.9135 33.4086 84.102 33.4713 84.3325C33.4922 84.521 33.5131 84.7514 33.4504 84.9819C33.4504 85.0238 33.4295 85.0657 33.4086 85.0866C33.3877 85.1076 33.3877 85.1285 33.3877 85.1495V85.1704C33.4504 85.2333 33.4713 85.2961 33.4713 85.3799C33.4922 85.6104 33.4504 85.7989 33.4295 85.9875C33.4086 86.0503 33.4086 86.1132 33.4086 86.176V86.7416C33.3877 86.8045 33.4086 86.8674 33.4295 86.9512C33.4504 87.014 33.4504 87.1397 33.4504 87.2235V87.831C33.4295 88.0615 33.4504 88.2919 33.4713 88.5276C33.4713 88.6742 33.4504 88.779 33.4295 88.8837C33.4086 88.9466 33.4086 89.0513 33.4086 89.1561C33.3877 89.5751 33.4086 89.9993 33.4295 90.3974C33.4295 90.4183 33.4504 90.5021 33.4713 90.6068C33.4922 90.7535 33.5549 90.7954 33.4922 91.0258C33.4295 91.0887 33.3042 91.3191 33.3668 91.382C33.5549 91.78 33.3668 92.1362 32.8863 91.9057C32.5311 91.7381 32.6356 91.4867 32.74 91.2144L32.7191 91.2353C32.7191 91.1934 32.6983 91.1096 32.6774 91.0049C32.6565 90.963 32.6565 90.9211 32.6565 90.9001C32.6356 90.7535 32.6356 90.6068 32.6565 90.4602C32.6565 90.3974 32.6774 90.3345 32.6774 90.2717V88.779C32.6774 88.7161 32.6983 88.6114 32.6983 88.5486C32.7191 88.4648 32.7191 88.381 32.6983 88.2762V88.2972C32.6147 87.8991 32.552 87.3492 32.6565 87.0349C32.74 86.8464 32.6983 86.7207 32.6774 86.5531C32.6147 86.3227 32.6356 86.1551 32.6983 85.9037C32.7609 85.7151 32.74 85.4428 32.7191 85.2542C32.6983 85.0238 32.6983 84.8143 32.7191 84.5838C32.7191 84.4791 32.6983 84.3953 32.6565 84.3115C32.5938 84.123 32.5102 83.9554 32.6565 83.7249L32.6356 83.7459Z" fill="#2E453D"/>
<path d="M49.1987 87.4539C49.1987 87.5587 49.1778 87.6425 49.1569 87.7053C49.1361 87.7682 49.1361 87.8101 49.1361 87.852L49.1569 87.8939C49.1778 87.9567 49.1987 87.9986 49.1987 88.0615C49.1987 88.1243 49.1778 88.1243 49.1778 88.2081V88.2919C49.1778 88.4386 49.1569 88.5643 49.1569 88.7109V91.1725C49.1569 91.2563 49.1569 91.3191 49.1361 91.3401V91.4239C49.1569 91.4867 49.1778 91.5496 49.1778 91.6124C49.1778 91.8848 48.9898 91.9895 48.8435 91.9895C48.6764 91.9895 48.5092 91.8219 48.4257 91.6753L48.3839 91.5915C48.3212 91.5286 48.2794 91.4448 48.2585 91.382L48.2376 91.361L48.175 91.2563C48.1123 91.1725 48.0914 91.1096 48.0914 91.0677V91.0468L48.0287 90.9211L47.7989 90.4183C47.7989 90.4183 47.778 90.3764 47.7362 90.3345C47.5899 90.2507 47.5899 90.0831 47.5273 89.9784L47.4228 89.7689L47.3601 89.6222V89.6432C47.3392 89.5803 47.3392 89.5384 47.3601 89.5594H47.381C47.2347 89.4546 47.193 89.287 47.1094 89.1194L47.0258 89.0147C46.9631 88.9099 46.9005 88.8052 46.8796 88.6585L46.8378 88.5957C46.8378 88.5957 46.796 88.5328 46.796 88.5119C46.796 88.5119 46.789 88.5119 46.7751 88.5119C46.7124 88.4281 46.6915 88.3862 46.6706 88.2395L46.5662 88.1348L46.4408 87.9253C46.4408 87.9253 46.4199 87.8834 46.399 87.8206L46.3572 87.7158L46.3781 87.7787C46.3154 87.6739 46.3154 87.6111 46.3154 87.5273C46.3154 87.5063 46.2945 87.5482 46.2945 87.4854C46.2319 87.3806 46.1692 87.1921 46.1065 87.0873L46.0647 87.0245L46.0856 87.0873C46.0229 87.0035 45.9602 86.8988 45.8976 86.7521L45.9185 86.7731L45.7722 86.5217V86.5426C45.6259 86.3541 45.5424 86.1655 45.4797 85.8932C45.4588 85.7256 45.2917 85.4533 45.1872 85.3066C45.0409 85.16 45.02 85.0971 44.9991 85.0133V84.9295C44.9991 84.9295 44.9574 84.8667 44.9574 84.8457C44.9156 84.8038 44.8947 84.7619 44.8947 84.741L44.7693 84.4058C44.7693 84.4058 44.7484 84.4267 44.7484 84.4477V84.4686C44.7484 84.4686 44.7275 84.5105 44.7275 84.5315V84.9924L44.7693 85.139C44.7902 85.2438 44.8738 85.3904 44.7275 85.6418H44.7484C44.7693 85.7047 44.7693 85.8513 44.7693 85.9141C44.7484 86.0608 44.7275 86.1865 44.7275 86.2912C44.7275 86.2703 44.7066 86.2703 44.7066 86.2493C44.7275 86.2703 44.7484 86.3122 44.7484 86.3541C44.7484 86.4379 44.7484 86.5426 44.7693 86.6474C44.7902 86.794 44.7693 86.8778 44.7484 87.0245V87.1083C44.7693 87.2759 44.7693 87.4644 44.7693 87.632C44.7484 87.7368 44.7484 87.8415 44.7693 87.9463C44.7902 88.1767 44.7902 88.4071 44.7693 88.6166V88.9099C44.7693 89.0147 44.7693 89.1823 44.7484 89.3289V89.727C44.7484 89.7898 44.7484 89.9155 44.7275 89.9784V90.2298C44.7275 90.2926 44.7484 90.2717 44.7484 90.3345C44.7484 90.3555 44.7693 90.3555 44.7693 90.3764C44.7902 90.4812 44.8111 90.5649 44.7902 90.6697V90.942C44.8111 91.1096 44.832 91.3401 44.7693 91.5705C44.7484 91.7381 44.6857 91.9895 44.3723 91.9895C44.2888 91.9895 44.2052 92.0105 44.1216 91.8638C43.9754 91.7172 43.9754 91.5077 43.9754 91.2353C43.9754 90.9211 43.9754 90.6906 43.9545 90.434C43.9545 90.2874 43.9754 90.1617 44.0171 90.036V90.015C44.0171 90.015 44.0171 89.9522 44.038 89.9312C44.038 89.8684 44.038 89.8055 44.0171 89.7636C43.9963 89.7008 43.9754 89.617 43.9754 89.5122C43.9754 89.4075 43.9963 89.3237 44.0171 89.2399V89.198C44.0171 89.198 44.038 89.1561 44.038 89.0932C44.038 89.0932 44.0171 89.0513 43.9963 88.9675C43.9754 88.9256 43.9754 88.8209 43.9754 88.6743C43.9754 88.5905 43.9754 88.4648 43.9963 88.4019V88.381C43.9963 88.381 44.0171 88.3181 44.0171 88.2134C44.0171 88.2134 44.0102 88.1994 43.9963 88.1715C43.9336 88.0248 43.9336 87.8363 44.0171 87.6477L43.9963 87.6687C43.9963 87.6687 43.9545 87.5639 43.9545 87.4382C43.9545 87.3754 43.9545 87.3125 44.0171 87.1449L43.9963 87.1659C44.0171 87.0821 44.038 87.0402 44.038 87.0192V86.6212L43.9963 86.4955C43.9963 86.4955 43.9754 86.4746 43.9754 86.4117C43.9545 86.3279 43.9336 86.1813 43.9963 86.0137C44.0171 85.9089 44.038 85.8461 44.0171 85.7832V85.448C44.0171 85.448 44.038 85.4061 44.038 85.3852C43.9754 85.2385 43.9963 85.1128 43.9963 84.9662V84.8405C44.0171 84.7357 43.9963 84.61 43.9754 84.5053L43.9963 84.5262C43.8918 84.2958 43.9754 84.2539 43.9963 84.0653V84.0234C43.9963 84.0234 43.9963 83.9606 44.0171 83.9397C44.0171 83.8559 44.0171 83.793 43.9963 83.7302V83.7092C43.9963 83.7092 43.9754 83.6464 43.9754 83.6254C43.9754 83.5626 43.9963 83.5626 43.9963 83.4997V83.374C44.0171 83.3112 44.038 83.395 44.0171 83.3321C43.9336 83.1855 43.9336 82.8712 44.0171 82.7246C44.1007 82.5779 44.1843 82.4941 44.2888 82.4732C44.4768 82.4732 44.5395 82.536 44.7066 82.7036L44.8738 82.9131C44.8947 82.955 44.8947 83.0179 44.8947 83.1017V83.1436L45.0827 83.4578V83.4369L45.1872 83.6045C45.2499 83.7302 45.2708 83.814 45.2708 83.8349L45.3334 83.8978C45.3961 83.9816 45.4379 84.0863 45.4588 84.1701C45.4588 84.191 45.4797 84.2329 45.5215 84.2748C45.5842 84.3377 45.5633 84.3377 45.6259 84.4843L45.6677 84.6519C45.6677 84.6519 45.6886 84.6519 45.6886 84.6729C45.6886 84.7357 45.7095 84.7776 45.7095 84.7567C45.8558 84.9033 45.9811 85.0919 46.0438 85.3223C46.1065 85.469 46.1065 85.4899 46.1901 85.6366L46.2319 85.7204C46.2945 85.8251 46.3572 85.9299 46.3781 86.0765L46.399 86.0975C46.399 86.0975 46.4199 86.1394 46.4408 86.1603C46.5035 86.2232 46.5453 86.286 46.5662 86.4536H46.587C46.6497 86.5374 46.7124 86.6631 46.7751 86.8307C46.7751 86.8307 46.789 86.8377 46.8169 86.8516C46.8169 86.8516 46.8378 86.9145 46.8587 86.9564C46.8796 87.0192 46.9213 87.124 46.9422 87.1868L46.9631 87.2287L47.0676 87.3335C47.1512 87.4173 47.1303 87.4801 47.1512 87.5639L47.1303 87.543L47.2347 87.6896L47.381 87.8991C47.4019 87.962 47.4228 88.0039 47.4228 88.1505L47.4855 88.2553L47.569 88.4019C47.6735 88.5486 47.778 88.6952 47.778 88.8419L47.9033 89.0723C48.0496 89.2189 48.1123 89.4075 48.175 89.5122C48.2167 89.6589 48.2794 89.8055 48.3421 89.9103L48.4048 90.036V89.9941C48.3839 89.9312 48.3839 89.8055 48.3839 89.7217V89.3656C48.4048 89.2189 48.4048 88.9675 48.4048 88.8628C48.3421 88.5905 48.3839 88.2972 48.3839 88.0405V87.7472C48.4048 87.5168 48.4048 87.3282 48.4048 87.0978V87.0768C48.4048 87.0768 48.3839 87.0768 48.3839 87.014C48.363 86.9302 48.2585 86.9302 48.4048 86.5741C48.4257 86.5531 48.4048 86.4693 48.4048 86.4065C48.3421 86.1551 48.3212 85.7361 48.3839 85.4585C48.4466 85.228 48.4257 84.9767 48.363 84.72V84.741C48.3421 84.6362 48.3421 84.5524 48.3839 84.4477V84.4896C48.3839 84.4896 48.4048 84.4477 48.4048 84.3848H48.4257C48.3421 84.1963 48.3421 83.9449 48.363 83.7982C48.3839 83.6935 48.3839 83.6097 48.363 83.5049C48.3421 83.2745 48.3421 83.086 48.4048 82.8974C48.4048 82.7927 48.4257 82.7089 48.4884 82.646C48.551 82.5832 48.6764 82.4994 48.7809 82.4994C48.948 82.4994 49.1569 82.7089 49.1569 82.8974V83.1279C49.1361 83.1698 49.1361 83.2326 49.1361 83.2954C49.1361 83.484 49.1361 83.6097 49.1569 83.6725V84.1334C49.1569 84.1963 49.1569 84.2382 49.1778 84.2801V84.6362L49.1987 84.741C49.1987 84.8248 49.1778 84.9086 49.1152 84.9924L49.0943 85.0133C49.0943 85.1181 49.1361 85.16 49.1569 85.3276C49.1778 85.4742 49.1987 85.6209 49.1987 85.7675C49.1987 85.8303 49.1778 85.8303 49.1778 85.8932V86.0608C49.1569 86.1027 49.1569 86.1446 49.1569 86.2074C49.1569 86.2703 49.1569 86.3122 49.1361 86.3331V86.375L49.1569 86.4169C49.1778 86.4798 49.1987 86.5426 49.1987 86.6055V87.4487V87.4539Z" fill="#2E453D"/>
<path d="M59.6824 82.8084C59.6824 82.6617 59.7451 82.4522 60.0585 82.4522C60.1421 82.4522 60.2047 82.4522 60.2465 82.4732H61.2546C61.3173 82.4732 61.38 82.4522 61.5263 82.4522C61.5681 82.4313 61.6307 82.4313 61.6934 82.4313C61.777 82.4313 61.8188 82.4522 61.8815 82.4732C61.9023 82.4732 61.9441 82.4941 61.965 82.4941H62.1113C62.1113 82.4941 62.1949 82.5151 62.2784 82.5151C62.362 82.4732 62.4456 82.4522 62.5083 82.4522C62.5292 82.4522 62.55 82.4732 62.6336 82.4732H62.7172C62.7799 82.4522 62.8843 82.4522 62.9679 82.4522H63.1977C63.3022 82.4522 63.3858 82.4732 63.4694 82.4941L63.4903 82.5151H63.6365C63.6365 82.5151 63.6783 82.4941 63.6992 82.4941C63.9708 82.4941 64.1171 82.7036 64.1171 82.8922C64.1171 83.0807 63.9499 83.2483 63.7201 83.2483H63.6156C63.5529 83.2274 63.5111 83.2064 63.4903 83.2064C63.4485 83.2064 63.4067 83.2274 63.344 83.2483C63.3231 83.2483 63.2813 83.2693 63.1977 83.2693C63.1351 83.2693 63.0933 83.2483 63.0306 83.2274H62.9261C62.9261 83.2274 62.9052 83.2483 62.8843 83.2483H62.9052C62.8634 83.2693 62.759 83.2693 62.6127 83.2693C62.4665 83.2693 62.3829 83.2483 62.362 83.2274H61.965C61.965 83.2274 61.9023 83.2064 61.8397 83.2064H61.7143C61.6725 83.2274 61.6098 83.2483 61.5472 83.2483C61.4636 83.2483 61.4218 83.2483 61.2755 83.2274C61.2546 83.2274 61.3173 83.2064 61.2546 83.2064C61.2338 83.2274 61.192 83.2274 61.1502 83.2274C61.0875 83.2274 61.0457 83.2274 61.0248 83.2064H60.9621C60.8786 83.2693 60.7741 83.2902 60.6487 83.2902H60.5443C60.4816 83.2902 60.4816 83.2693 60.4607 83.2693H60.398C60.398 83.3321 60.3771 83.374 60.3771 83.4369V83.5416C60.3771 83.5835 60.3771 83.6045 60.398 83.6254V83.7092C60.398 83.7721 60.4189 83.8768 60.398 83.9397C60.3771 84.0863 60.3771 84.212 60.3771 84.3586V85.1809C60.3771 85.2438 60.3771 85.2857 60.398 85.3276C60.4189 85.4114 60.4398 85.4952 60.4398 85.5999C60.4398 85.7047 60.4189 85.7675 60.4189 85.7885C60.3562 85.8932 60.3562 85.8722 60.3562 85.9351C60.4607 86.1865 60.4816 86.5217 60.4189 86.7574C60.4816 86.7574 60.5652 86.7783 60.6487 86.7783H60.795C60.9412 86.7155 60.983 86.7155 61.1293 86.7155C61.192 86.7155 61.192 86.7364 61.2546 86.7364H61.4427C61.5054 86.7574 61.5681 86.7574 61.6516 86.7574H62.1949C62.3411 86.7574 62.4456 86.7574 62.5292 86.7364C62.5918 86.7364 62.5918 86.7155 62.6545 86.7155C62.7172 86.7155 62.6963 86.7364 62.759 86.7364H62.9052C62.9679 86.7574 63.0097 86.7783 63.0306 86.7783C63.1142 86.7993 63.1977 86.8412 63.2604 86.8621C63.4067 86.925 63.4903 87.0088 63.5111 87.0716C63.532 87.2183 63.4903 87.4068 63.1351 87.4696H63.156C63.0933 87.4906 63.0306 87.5115 62.8843 87.5115C62.8217 87.5115 62.759 87.4906 62.6127 87.4696C62.55 87.4696 62.4874 87.4906 62.4038 87.5325H62.1322C62.0695 87.5325 62.0277 87.5115 61.965 87.5115C61.9232 87.4906 61.8815 87.4906 61.8188 87.4906C61.7561 87.4906 61.7143 87.4906 61.6934 87.5115C61.6098 87.5325 61.5472 87.5534 61.4009 87.5534C61.2547 87.5534 61.1293 87.5325 61.0248 87.5115C60.9621 87.5115 60.9204 87.4906 60.8577 87.4906H60.7114C60.6487 87.4906 60.6487 87.5115 60.5861 87.5115H60.4189V87.5534C60.398 87.8677 60.398 88.14 60.398 88.4176V88.8157C60.4189 88.9623 60.4189 89.088 60.4189 89.2347C60.4189 89.3185 60.4189 89.4441 60.398 89.507C60.398 89.5279 60.3771 89.5489 60.3771 89.5698V89.6536C60.3771 89.6536 60.398 89.7374 60.4189 89.8212V89.9679C60.4189 90.0307 60.4398 90.0517 60.4398 90.1145C60.4398 90.1983 60.4398 90.324 60.4189 90.3869V90.6383C60.4398 90.743 60.4398 90.9735 60.3771 91.0573L60.398 91.0782V91.1411H60.6278C60.6278 91.1411 60.6487 91.162 60.7114 91.162C60.7323 91.1411 60.7741 91.1411 60.8577 91.1411C60.8786 91.1411 60.8786 91.1201 60.9412 91.1201C61.0248 91.1201 61.0666 91.1411 61.1293 91.162C61.192 91.162 61.3173 91.162 61.38 91.1411C61.4009 91.1411 61.4636 91.1201 61.5263 91.1201C61.6307 91.1201 61.6934 91.1411 61.7352 91.162L61.7561 91.183H61.7979C61.7979 91.183 61.8606 91.162 61.9232 91.162C61.9441 91.162 61.965 91.183 62.0486 91.183H62.1322C62.2993 91.1201 62.4456 91.1411 62.6127 91.1411H63.0933C63.156 91.1201 63.2813 91.1201 63.344 91.1201C63.4067 91.1201 63.4903 91.162 63.5529 91.183L63.5947 91.162C63.5947 91.162 63.6574 91.1201 63.7201 91.1201C63.9081 91.1201 64.138 91.2877 64.138 91.5391C64.138 91.7695 63.929 91.8953 63.741 91.8953C63.6783 91.8953 63.6156 91.9162 63.5529 91.9371C63.532 91.9371 63.5111 91.9581 63.4485 91.9581C63.4276 91.9581 63.4276 91.979 63.3649 91.979C63.2604 91.979 63.1769 91.9581 63.1142 91.9162H63.0306C63.0306 91.9162 62.9888 91.9371 62.9052 91.9371C62.8217 91.9371 62.6545 91.9162 62.5918 91.8953C62.5709 91.8953 62.5292 91.8743 62.5083 91.8743H62.4038C62.3411 91.8743 62.3829 91.8953 62.3202 91.8953C62.2157 91.9371 62.1113 91.9581 62.0068 91.9581H61.8397C61.777 91.9581 61.6934 91.9371 61.6725 91.9371C61.5681 91.9162 61.5054 91.8953 61.4845 91.8953H61.3382C61.2755 91.8953 61.2338 91.9162 61.1711 91.9162C61.0666 91.9371 60.9204 91.9371 60.8159 91.9371H60.3144C59.9801 91.9371 59.813 91.8743 59.7294 91.7905C59.6667 91.6229 59.625 91.3087 59.6459 91.1149V90.9054C59.5832 90.6749 59.625 90.5073 59.6459 90.3397C59.6667 90.235 59.6876 90.1721 59.6667 90.1093V89.9836C59.6667 89.9207 59.625 89.9417 59.7085 89.6694C59.7085 89.6694 59.7016 89.6694 59.6876 89.6694C59.6667 89.5856 59.6041 89.4808 59.6667 89.3342C59.6876 89.1875 59.6876 88.999 59.6459 88.7895V88.6847C59.625 88.4962 59.625 88.3286 59.6459 88.1819C59.6667 88.1191 59.6667 88.0143 59.6667 87.9096V87.5534C59.6459 87.4068 59.6459 87.2183 59.6459 87.1135V86.9878C59.6459 86.9878 59.6667 86.904 59.6667 86.8412C59.6876 86.7993 59.6876 86.7574 59.6876 86.7155C59.6876 86.6526 59.6876 86.6107 59.6667 86.5688C59.6459 86.485 59.625 86.4012 59.625 86.3174C59.625 86.2336 59.625 86.1079 59.6459 86.0451V85.7518C59.625 85.647 59.5832 85.5004 59.6459 85.3537C59.6459 85.3328 59.6459 85.2909 59.625 85.249V84.9976C59.625 84.8929 59.625 84.83 59.6459 84.7881C59.6459 84.7253 59.6667 84.7043 59.6667 84.6834C59.6041 84.4948 59.625 84.3063 59.625 84.1177C59.6459 84.013 59.6459 83.8873 59.625 83.7825C59.5623 83.5102 59.6459 83.1959 59.6667 83.0022C59.6667 82.9812 59.6876 82.9812 59.6876 82.9184V82.8136L59.6824 82.8084ZM60.3719 87.3073C60.3719 87.3073 60.3719 87.3282 60.3928 87.3492C60.3928 87.3492 60.3858 87.3352 60.3719 87.3073Z" fill="#2E453D"/>
<path d="M87.9772 87.6268C87.9981 87.5849 87.9981 87.5639 87.9981 87.5639C87.9772 87.5011 87.9563 87.3963 87.9563 87.2497V86.9773C87.9563 86.9145 87.9772 86.8516 87.9772 86.7888C87.9981 86.6422 87.9981 86.5793 87.9981 86.4746C87.9981 86.3698 87.9981 86.307 87.9772 86.2651C87.9563 86.1184 87.9563 85.9718 87.9563 85.7832V85.6366C87.9563 85.5318 87.9354 85.448 87.9981 85.3433C87.9772 85.2804 87.9146 85.1966 87.9146 85.05L87.9772 84.8195L88.019 84.6938C87.9563 84.5472 87.9981 84.3796 88.0608 84.2748V84.191C88.0608 84.0025 88.1444 83.793 88.2906 83.6045C88.3951 83.4578 88.5414 83.3112 88.6458 83.1645L88.7921 83.0598L88.7503 83.0807C88.8548 82.976 88.9592 82.8922 89.2726 82.7455L89.3353 82.7246C89.3353 82.7246 89.4189 82.7036 89.4398 82.7036C89.5442 82.6827 89.6069 82.6408 89.6487 82.5989C89.795 82.5151 89.8785 82.5151 89.9621 82.5151H90.1084C90.1919 82.4941 90.2964 82.4522 90.38 82.4522C90.4218 82.4522 90.4636 82.4732 90.4845 82.4941L90.4636 82.4732H90.5053C90.5053 82.4732 90.6307 82.4522 90.6934 82.4522C90.777 82.4313 90.8814 82.4103 90.9859 82.4103C91.3829 82.4103 91.8478 82.4313 92.3283 82.5779L92.4537 82.6827H92.4119L92.4746 82.7246C92.4746 82.7246 92.4954 82.7036 92.5163 82.7036H92.5372C92.5999 82.7036 92.6626 82.7455 92.7253 82.7665L92.7044 82.7455C92.7671 82.7665 92.8297 82.8293 92.8715 82.8922L92.9342 82.955L92.8506 82.9341C92.8506 82.9341 92.8924 82.955 92.9133 82.955C93.0387 82.955 93.1431 82.9969 93.2267 83.1017C93.5401 83.4578 93.6864 83.7092 93.7908 84.0496L93.8535 84.301C93.8744 84.5524 93.8535 84.72 93.7491 84.8248C93.6655 84.9086 93.5819 84.9505 93.4774 84.9505C93.373 84.9505 93.3103 84.9505 93.3103 84.9295C93.0805 84.6153 93.0596 84.322 93.0596 84.2329C93.0805 84.1282 92.976 84.0025 92.8297 83.8559L92.7044 83.6883V83.7092L92.5581 83.6254H92.5999C92.5372 83.6254 92.5372 83.5835 92.5163 83.5835L92.3701 83.4997L92.1612 83.395L92.182 83.4159C92.0776 83.395 92.0149 83.3531 91.9731 83.2902C91.9731 83.2902 91.9522 83.2902 91.9104 83.2693C91.7642 83.2274 91.597 83.2064 91.409 83.2064C91.2627 83.2064 91.1583 83.2064 91.012 83.2274H90.7404C90.6777 83.2274 90.5941 83.2483 90.5315 83.2483C90.4479 83.2483 90.3225 83.2693 90.1763 83.2902C90.1554 83.2902 90.1136 83.3112 90.0927 83.3112L90.03 83.3321C89.9673 83.3531 89.8838 83.3531 89.8629 83.3531C89.842 83.374 89.8002 83.395 89.7793 83.395C89.6748 83.4578 89.5704 83.4997 89.445 83.4997C89.3405 83.5207 89.2361 83.6254 89.1525 83.793V83.7511C89.1525 83.7511 89.1316 83.814 89.1316 83.8349C89.0689 83.9187 88.8809 84.1701 88.9018 84.1491C88.7973 84.2329 88.7973 84.3586 88.7973 84.5891C88.7973 84.8195 88.7764 84.9871 88.7137 85.1128V85.5109C88.7137 85.5109 88.7346 85.5737 88.7346 85.5947C88.7346 85.6156 88.7555 85.5947 88.7555 85.6156C88.7764 85.6785 88.7973 85.8251 88.7346 85.9718C88.7137 86.0556 88.6928 86.1184 88.6928 86.1394C88.7555 86.286 88.7764 86.4536 88.7555 86.6003V86.6631C88.7764 86.7678 88.7555 86.8726 88.7346 86.9773L88.7137 86.9983C88.7973 87.2287 88.7555 87.522 88.6928 87.6268V87.6687C88.7137 87.7525 88.7137 87.8782 88.7137 87.962C88.7137 88.0039 88.6928 88.0458 88.6719 88.0667L88.7137 88.0248C88.7764 88.1296 88.7973 88.2553 88.7346 88.36L88.7137 88.4019V88.6114C88.7137 88.6743 88.7346 88.7162 88.7346 88.779C88.7555 88.9256 88.7764 89.0723 88.7764 89.2189C88.7764 89.4075 88.7764 89.5751 88.7973 89.7636V89.7427C88.8182 89.8474 88.8182 89.9522 88.7973 90.036C88.7973 90.0779 88.8182 90.1198 88.8391 90.1407C88.9853 90.2874 88.9853 90.3293 89.0062 90.4131V90.455H88.9853C89.0898 90.5388 89.1316 90.6226 89.1943 90.7273L89.2987 90.8321C89.3614 90.8321 89.4241 90.853 89.4868 90.8949L89.6121 90.9787H89.5913C89.7793 91.0416 89.9256 91.0625 90.1763 91.1254C90.4061 91.1882 90.6777 91.2091 90.9754 91.2091H91.1844C91.1844 91.2091 91.2888 91.1882 91.3724 91.1882C91.5605 91.1673 91.7485 91.1673 91.9365 91.1044H91.9574L92.0619 91.0416C92.0619 91.0416 92.1037 91.0206 92.1664 91.0206C92.2291 91.0206 92.2082 90.9997 92.2917 90.9997L92.5007 90.9368C92.6469 90.8321 92.8559 90.6435 92.9603 90.455C93.1066 90.2664 93.1275 90.0779 93.1484 89.8474V89.8265C93.1484 89.7217 93.2111 89.5541 93.232 89.3865C93.232 89.2818 93.2319 89.198 93.2528 89.1561V89.177C93.3155 88.8628 93.4827 88.8209 93.6289 88.8209C93.7334 88.8209 93.7752 88.8419 93.8588 88.9047C94.005 89.0513 94.005 89.2608 93.9841 89.5803C93.9632 89.6013 93.9632 89.6432 93.9632 89.6641C93.9841 89.8108 93.9632 89.9993 93.9005 90.146C93.9005 90.1669 93.8796 90.1879 93.8796 90.2088L93.7961 90.3974L93.817 90.3764C93.7543 90.6278 93.6498 90.7535 93.4827 90.9839L93.3782 91.1096L93.1066 91.4658C93.023 91.5286 92.9812 91.5496 92.8977 91.5496L92.8768 91.5705C92.8141 91.6334 92.7305 91.6753 92.6678 91.6962H92.6887L92.2291 91.8429L92.041 91.8848C91.853 91.9476 91.6023 91.9686 91.3724 91.9686H91.268C91.268 91.9686 91.2053 91.9476 91.1844 91.9267L91.2053 91.9476C91.1426 91.9476 91.1217 91.9686 91.059 91.9686H90.9546C90.871 91.9895 90.7456 91.9895 90.6412 91.9895C90.5367 91.9895 90.4531 91.9686 90.3695 91.9476C90.3069 91.9267 90.3695 91.9267 90.286 91.9267C90.2442 91.9476 90.1815 91.9476 90.1188 91.9476C89.9935 91.9476 89.8681 91.9057 89.7636 91.8429C89.7427 91.8429 89.7218 91.8219 89.6592 91.8219C89.3875 91.7591 89.1577 91.6334 88.9227 91.4658C88.5675 91.2144 88.2959 90.963 88.1235 90.4759C88.0608 90.3502 88.0399 90.1826 88.0399 89.9941C88.0399 89.9312 88.0399 89.8684 88.019 89.8474L87.9354 89.6589V89.0094C87.9146 88.8418 87.9146 88.6114 87.9354 88.4648C87.9354 88.4019 87.9563 88.36 87.9563 88.3391C87.9772 88.1924 88.019 88.0667 87.9563 87.9201C87.9146 87.8153 87.9145 87.7106 87.9772 87.6268Z" fill="#2E453D"/>
<path d="M103.412 91.4553C103.391 91.3925 103.412 91.3296 103.517 91.3087C103.538 91.2039 103.579 91.0573 103.6 90.8897C103.6 90.8268 103.621 90.764 103.621 90.7011C103.684 90.5964 103.726 90.5126 103.747 90.4916L103.788 90.4078C103.809 90.345 103.809 90.324 103.83 90.1774V90.1983C103.83 90.1355 103.851 90.1564 103.851 90.0936C103.851 89.9888 103.872 89.905 103.893 89.8212L103.997 89.6955C104.06 89.6327 104.018 89.6746 104.039 89.6117V89.4441C104.039 89.2975 104.018 89.2347 104.081 89.088C104.102 88.9833 104.164 88.8995 104.185 88.7528L104.29 88.3548C104.311 88.2919 104.332 88.2081 104.394 88.0615L104.373 88.0824C104.436 87.9148 104.478 87.7472 104.499 87.6425C104.52 87.4958 104.561 87.3282 104.666 87.1397L104.791 86.8464L104.77 86.8674L104.833 86.5741L104.917 86.197L105.021 85.9875C105.084 85.8827 105.146 85.7989 105.146 85.6523V85.5685C105.146 85.5685 105.146 85.5475 105.167 85.5266C105.188 85.4637 105.23 85.4009 105.23 85.3799L105.272 85.1704C105.272 85.0238 105.293 85.0028 105.314 84.94V84.9609L105.439 84.6048C105.502 84.5 105.502 84.3325 105.564 84.1649C105.585 84.123 105.585 84.0811 105.585 84.0392C105.606 83.8506 105.669 83.683 105.752 83.5573C105.815 83.4107 105.857 83.285 105.878 83.1383C105.878 83.0755 105.899 83.0126 105.92 82.9288L105.961 82.8031L105.94 82.8241C106.003 82.6565 106.191 82.3841 106.442 82.4051C106.755 82.4679 106.943 82.9707 106.964 83.2274C106.964 83.2693 107.006 83.3531 107.069 83.4578L107.152 83.6254L107.278 84.0234C107.278 84.0863 107.298 84.1282 107.298 84.1491C107.298 84.191 107.298 84.212 107.319 84.2329C107.361 84.2958 107.382 84.4005 107.382 84.5681C107.382 84.631 107.403 84.7148 107.466 84.8195C107.466 84.8405 107.487 84.8824 107.487 84.9033C107.487 84.9243 107.487 84.9243 107.507 84.9452L107.591 85.1128L107.57 85.0919C107.633 85.2385 107.716 85.3852 107.737 85.5318L107.779 85.8461C107.779 85.9089 107.8 86.0137 107.821 86.1603C107.842 86.265 107.884 86.4117 107.967 86.5583L108.092 86.8935C108.176 87.2287 108.28 87.5011 108.385 87.7158L108.406 87.7787C108.552 88.1767 108.803 88.7266 108.698 89.0618C108.698 89.2085 108.782 89.397 108.866 89.4808C109.012 89.6484 108.991 89.816 109.012 90.0046C109.012 90.0674 109.033 90.1721 109.054 90.2769L109.179 90.6121C109.262 90.7797 109.346 90.9892 109.367 91.1358C109.367 91.1568 109.367 91.1777 109.388 91.1987C109.409 91.2615 109.409 91.2825 109.43 91.3034C109.492 91.4501 109.534 91.6177 109.43 91.7853C108.886 92.6075 108.463 90.942 108.401 90.6697C108.338 90.523 108.317 90.3764 108.317 90.146C108.317 90.146 108.31 90.139 108.296 90.125C108.296 90.125 108.254 90.0622 108.233 89.9993L108.192 89.9155V89.6851C108.129 89.5803 108.087 89.4756 108.087 89.3918V89.3708C107.941 89.3499 107.816 89.3708 107.669 89.4337C107.481 89.4965 107.335 89.5175 107.147 89.4965C107.063 89.4965 107.043 89.4756 106.98 89.4546C106.959 89.4337 106.938 89.4337 106.938 89.4337C106.917 89.4337 106.896 89.4546 106.875 89.4546C106.813 89.4756 106.771 89.4965 106.708 89.4965C106.583 89.5175 106.458 89.4965 106.353 89.4337C106.29 89.4965 106.311 89.4965 106.165 89.4965C106.102 89.4756 106.04 89.4546 105.998 89.3918C105.935 89.3918 105.873 89.4127 105.852 89.4127C105.789 89.4127 105.705 89.4337 105.643 89.4337C105.559 89.4337 105.496 89.4337 105.455 89.4127C105.392 89.4127 105.35 89.3918 105.287 89.3918C105.141 89.3289 104.974 89.2661 104.828 89.3289C104.807 89.5594 104.723 89.7689 104.661 89.9574L104.598 90.2088L104.514 90.4811C104.494 90.544 104.473 90.6278 104.452 90.6906C104.389 90.8373 104.389 90.963 104.368 91.0258C104.368 91.0258 104.347 91.0677 104.326 91.1515C104.201 91.5077 103.929 92.3928 103.485 91.8219C103.423 91.6753 103.402 91.5705 103.402 91.4867V91.4658L103.412 91.4553ZM105.491 88.5957C105.637 88.5747 105.805 88.5957 105.909 88.6166C106.055 88.6376 106.181 88.6585 106.285 88.6376H106.494C106.599 88.6376 106.64 88.7004 106.724 88.6376C106.87 88.5747 107.016 88.5747 107.163 88.6376C107.184 88.6585 107.267 88.6585 107.413 88.6585C107.56 88.6585 107.664 88.6376 107.81 88.7004L107.769 88.7633L107.831 88.7214C107.748 88.4909 107.727 88.3443 107.706 88.1139L107.643 88.0091L107.581 87.8625C107.581 87.7996 107.56 87.7158 107.56 87.6949V87.5901C107.56 87.5273 107.539 87.5901 107.518 87.5273C107.476 87.4854 107.455 87.4435 107.455 87.4016L107.393 87.1292C107.372 87.0245 107.33 86.9826 107.309 86.9616C107.246 86.8988 107.204 86.815 107.184 86.7102L107.058 85.956C107.037 85.7256 106.954 85.558 106.891 85.3904L106.766 85.139C106.619 84.8248 106.578 84.5315 106.494 84.191C106.473 84.1282 106.431 84.0234 106.411 83.9187V83.9816C106.473 84.1701 106.285 84.4843 106.222 84.6781L106.16 84.9505C106.139 85.0552 106.118 85.16 106.034 85.3066V85.2857C105.972 85.4323 105.951 85.558 105.93 85.7466C105.909 85.9141 105.846 86.0817 105.784 86.2284L105.7 86.3541L105.721 86.3331C105.7 86.4169 105.679 86.4588 105.679 86.4798C105.679 86.5636 105.7 86.5845 105.637 86.7312L105.554 86.8569C105.554 86.8569 105.491 86.9197 105.47 86.9826C105.449 87.0035 105.449 87.0873 105.449 87.1921C105.449 87.3387 105.47 87.4644 105.324 87.6111H105.345C105.24 87.7577 105.22 87.9044 105.199 88.0929C105.199 88.1557 105.178 88.2186 105.178 88.2814C105.178 88.3443 105.136 88.47 105.073 88.5538C105.052 88.5747 105.032 88.6166 105.011 88.7214C105.094 88.7214 105.178 88.6585 105.282 88.6376L105.512 88.5957H105.491Z" fill="#2E453D"/>
<path d="M119.48 82.5413C119.563 82.5413 119.647 82.5622 119.73 82.5622H119.981C120.148 82.5622 120.336 82.5622 120.524 82.5413C120.587 82.5413 120.65 82.5413 120.691 82.5203C120.838 82.4994 120.942 82.4784 121.047 82.4994C121.068 82.4994 121.109 82.5413 121.172 82.5622C121.193 82.5832 121.276 82.6041 121.256 82.6251C121.339 82.5413 121.506 82.5203 121.611 82.5203C121.82 82.4994 122.029 82.4994 122.217 82.5203C122.3 82.5203 122.426 82.5413 122.509 82.5413C122.676 82.5203 122.843 82.5203 123.032 82.5413C123.178 82.5622 123.282 82.5622 123.387 82.5622C123.47 82.5622 123.533 82.5622 123.596 82.5413C123.679 82.5413 123.805 82.5203 123.888 82.5203C124.243 82.5413 124.431 82.667 124.452 82.8974C124.515 83.1279 124.327 83.2745 124.181 83.3583H123.423C123.256 83.2745 122.964 83.2745 122.88 83.2745C122.838 83.2745 122.796 83.2536 122.776 83.2326C122.755 83.2326 122.713 83.2326 122.692 83.2536L122.504 83.3164C122.399 83.3374 122.316 83.3583 122.253 83.3583C122.211 83.3583 122.17 83.3374 122.107 83.3164L122.128 83.3373H122.107V83.4421C122.107 83.5259 122.086 83.6516 122.086 83.7563C122.065 83.9868 122.044 84.1753 122.128 84.2801C122.232 84.4686 122.149 84.5734 122.128 84.72V84.8038C122.128 84.8876 122.128 84.9505 122.149 84.9924C122.17 85.0762 122.191 85.1809 122.128 85.3485V85.5999C122.128 85.6837 122.128 85.7884 122.107 85.8932C122.086 85.9979 122.107 86.1027 122.149 86.2284C122.149 86.2912 122.17 86.3122 122.17 86.375C122.211 86.7521 122.211 87.1554 122.17 87.5744C122.149 87.7211 122.107 87.9305 122.17 88.161C122.191 88.3076 122.17 88.4333 122.149 88.58C122.128 88.6428 122.128 88.7057 122.128 88.7895V89.1247C122.128 89.2713 122.149 89.3761 122.149 89.4808C122.17 89.6694 122.149 89.816 122.128 89.9836C122.107 90.0883 122.086 90.1512 122.086 90.1721C122.086 90.214 122.107 90.2559 122.128 90.3188C122.149 90.3816 122.17 90.4026 122.086 90.5702L122.107 90.5492C122.107 90.5492 122.107 90.6121 122.128 90.6749C122.191 90.8635 122.17 91.0101 122.17 91.1987V91.3034C122.191 91.6386 122.274 91.9319 121.794 91.9529C121.459 92.0157 121.417 91.89 121.417 91.5758C121.417 91.5129 121.418 91.471 121.397 91.4291C121.376 91.2825 121.355 91.1358 121.355 90.9682C121.355 90.9054 121.376 90.8635 121.376 90.8006C121.397 90.6121 121.397 90.5073 121.376 90.4445C121.313 90.2559 121.313 90.214 121.376 90.0674L121.438 89.9417L121.417 89.9627C121.48 89.8579 121.438 89.7113 121.376 89.5437C121.355 89.4808 121.355 89.3551 121.355 89.2713V88.6219C121.355 88.4752 121.355 88.3914 121.376 88.3495V88.3705C121.397 88.2238 121.417 88.0772 121.417 88.0143C121.417 87.9934 121.397 88.0143 121.397 87.9515C121.334 87.7629 121.355 87.6582 121.355 87.4277C121.355 87.1973 121.355 86.8831 121.376 86.6474C121.376 86.6264 121.355 86.6264 121.355 86.5636C121.355 86.4798 121.313 86.4379 121.397 86.2912V86.3122C121.397 86.2493 121.418 86.2493 121.438 86.2703C121.376 86.0817 121.355 85.9141 121.397 85.7885C121.418 85.7466 121.417 85.7046 121.417 85.6628L121.376 85.579V85.5161C121.376 85.4533 121.355 85.4323 121.355 85.3695V85.2647C121.292 85.0343 121.334 84.741 121.355 84.5053C121.376 84.4005 121.397 84.3167 121.376 84.2329C121.376 84.1701 121.355 84.1072 121.355 84.0444C121.355 83.9397 121.376 83.8559 121.397 83.814V83.793C121.292 83.6464 121.355 83.5207 121.376 83.374V83.3531C121.146 83.3531 120.832 83.3112 120.639 83.2902C120.535 83.2693 120.472 83.2483 120.451 83.2483C120.263 83.2274 120.033 83.2483 119.845 83.3112H119.866C119.678 83.3531 119.49 83.374 119.302 83.374C119.072 83.374 118.947 83.1226 118.926 82.976C118.863 82.7246 119.01 82.536 119.177 82.536H119.469L119.48 82.5413Z" fill="#2E453D"/>
<path d="M133.969 82.8084C133.969 82.6617 134.032 82.4522 134.345 82.4522C134.429 82.4522 134.491 82.4522 134.533 82.4732H135.541C135.604 82.4732 135.667 82.4522 135.813 82.4522C135.855 82.4313 135.917 82.4313 135.98 82.4313C136.064 82.4313 136.105 82.4522 136.168 82.4732C136.189 82.4732 136.231 82.4941 136.252 82.4941H136.398C136.398 82.4941 136.481 82.5151 136.565 82.5151C136.649 82.4732 136.732 82.4522 136.795 82.4522C136.816 82.4522 136.837 82.4732 136.92 82.4732H137.004C137.067 82.4522 137.171 82.4522 137.255 82.4522H137.484C137.589 82.4522 137.672 82.4732 137.756 82.4941L137.777 82.5151H137.923C137.923 82.5151 137.965 82.4941 137.986 82.4941C138.257 82.4941 138.404 82.7036 138.404 82.8922C138.404 83.0807 138.237 83.2483 138.007 83.2483H137.902C137.84 83.2274 137.798 83.2064 137.777 83.2064C137.735 83.2064 137.693 83.2274 137.631 83.2483C137.61 83.2483 137.568 83.2693 137.484 83.2693C137.422 83.2693 137.38 83.2483 137.317 83.2274H137.213C137.213 83.2274 137.192 83.2483 137.171 83.2483H137.192C137.15 83.2693 137.046 83.2693 136.899 83.2693C136.753 83.2693 136.67 83.2483 136.649 83.2274H136.252C136.252 83.2274 136.189 83.2064 136.126 83.2064H136.001C135.959 83.2274 135.896 83.2483 135.834 83.2483C135.75 83.2483 135.708 83.2483 135.562 83.2274C135.541 83.2274 135.604 83.2064 135.541 83.2064C135.52 83.2274 135.479 83.2274 135.437 83.2274C135.374 83.2274 135.332 83.2274 135.311 83.2064H135.249C135.165 83.2693 135.061 83.2902 134.935 83.2902H134.831C134.768 83.2902 134.768 83.2693 134.747 83.2693H134.685C134.685 83.3321 134.664 83.374 134.664 83.4369V83.5416C134.664 83.5835 134.664 83.6045 134.685 83.6254V83.7092C134.685 83.7721 134.706 83.8768 134.685 83.9397C134.664 84.0863 134.664 84.212 134.664 84.3586V85.1809C134.664 85.2438 134.664 85.2857 134.685 85.3276C134.706 85.4114 134.726 85.4952 134.726 85.5999C134.726 85.7047 134.706 85.7675 134.706 85.7885C134.643 85.8932 134.643 85.8722 134.643 85.9351C134.747 86.1865 134.768 86.5217 134.706 86.7574C134.768 86.7574 134.852 86.7783 134.935 86.7783H135.082C135.228 86.7155 135.27 86.7155 135.416 86.7155C135.479 86.7155 135.479 86.7364 135.541 86.7364H135.729C135.792 86.7574 135.855 86.7574 135.938 86.7574H136.481C136.628 86.7574 136.732 86.7574 136.816 86.7364C136.878 86.7364 136.878 86.7155 136.941 86.7155C137.004 86.7155 136.983 86.7364 137.046 86.7364H137.192C137.255 86.7574 137.296 86.7783 137.317 86.7783C137.401 86.7993 137.484 86.8412 137.547 86.8621C137.693 86.925 137.777 87.0088 137.798 87.0716C137.819 87.2183 137.777 87.4068 137.422 87.4696H137.443C137.38 87.4906 137.317 87.5115 137.171 87.5115C137.108 87.5115 137.046 87.4906 136.899 87.4696C136.837 87.4696 136.774 87.4906 136.69 87.5325H136.419C136.356 87.5325 136.314 87.5115 136.252 87.5115C136.21 87.4906 136.168 87.4906 136.105 87.4906C136.043 87.4906 136.001 87.4906 135.98 87.5115C135.896 87.5325 135.834 87.5534 135.688 87.5534C135.541 87.5534 135.416 87.5325 135.311 87.5115C135.249 87.5115 135.207 87.4906 135.144 87.4906H134.998C134.935 87.4906 134.935 87.5115 134.873 87.5115H134.706V87.5534C134.685 87.8677 134.685 88.14 134.685 88.4176V88.8157C134.706 88.9623 134.706 89.088 134.706 89.2347C134.706 89.3185 134.706 89.4441 134.685 89.507C134.685 89.5279 134.664 89.5489 134.664 89.5698V89.6536C134.664 89.6536 134.685 89.7374 134.706 89.8212V89.9679C134.706 90.0307 134.726 90.0517 134.726 90.1145C134.726 90.1983 134.726 90.324 134.706 90.3869V90.6383C134.726 90.743 134.726 90.9735 134.664 91.0573L134.685 91.0782V91.1411H134.914C134.914 91.1411 134.935 91.162 134.998 91.162C135.019 91.1411 135.061 91.1411 135.144 91.1411C135.165 91.1411 135.165 91.1201 135.228 91.1201C135.311 91.1201 135.353 91.1411 135.416 91.162C135.479 91.162 135.604 91.162 135.667 91.1411C135.688 91.1411 135.75 91.1201 135.813 91.1201C135.917 91.1201 135.98 91.1411 136.022 91.162L136.043 91.183H136.085C136.085 91.183 136.147 91.162 136.21 91.162C136.231 91.162 136.252 91.183 136.335 91.183H136.419C136.586 91.1201 136.732 91.1411 136.899 91.1411H137.38C137.443 91.1201 137.568 91.1201 137.631 91.1201C137.693 91.1201 137.777 91.162 137.84 91.183L137.881 91.162C137.881 91.162 137.944 91.1201 138.007 91.1201C138.195 91.1201 138.425 91.2877 138.425 91.5391C138.425 91.7695 138.216 91.8953 138.028 91.8953C137.965 91.8953 137.902 91.9162 137.84 91.9371C137.819 91.9371 137.798 91.9581 137.735 91.9581C137.714 91.9581 137.714 91.979 137.652 91.979C137.547 91.979 137.463 91.9581 137.401 91.9162H137.317C137.317 91.9162 137.275 91.9371 137.192 91.9371C137.108 91.9371 136.941 91.9162 136.878 91.8953C136.858 91.8953 136.816 91.8743 136.795 91.8743H136.69C136.628 91.8743 136.67 91.8953 136.607 91.8953C136.502 91.9371 136.398 91.9581 136.293 91.9581H136.126C136.064 91.9581 135.98 91.9371 135.959 91.9371C135.855 91.9162 135.792 91.8953 135.771 91.8953H135.625C135.562 91.8953 135.52 91.9162 135.458 91.9162C135.353 91.9371 135.207 91.9371 135.103 91.9371H134.601C134.267 91.9371 134.1 91.8743 134.016 91.7905C133.953 91.6229 133.912 91.3087 133.932 91.1149V90.9054C133.87 90.6749 133.912 90.5073 133.932 90.3397C133.953 90.235 133.974 90.1721 133.953 90.1093V89.9836C133.953 89.9207 133.912 89.9417 133.995 89.6694C133.995 89.6694 133.988 89.6694 133.974 89.6694C133.953 89.5856 133.891 89.4808 133.953 89.3342C133.974 89.1875 133.974 88.999 133.932 88.7895V88.6847C133.912 88.4962 133.912 88.3286 133.932 88.1819C133.953 88.1191 133.953 88.0143 133.953 87.9096V87.5534C133.932 87.4068 133.932 87.2183 133.932 87.1135V86.9878C133.932 86.9878 133.953 86.904 133.953 86.8412C133.974 86.7993 133.974 86.7574 133.974 86.7155C133.974 86.6526 133.974 86.6107 133.953 86.5688C133.932 86.485 133.912 86.4012 133.912 86.3174C133.912 86.2336 133.912 86.1079 133.932 86.0451V85.7518C133.912 85.647 133.87 85.5004 133.932 85.3537C133.932 85.3328 133.932 85.2909 133.912 85.249V84.9976C133.912 84.8929 133.912 84.83 133.932 84.7881C133.932 84.7253 133.953 84.7043 133.953 84.6834C133.891 84.4948 133.912 84.3063 133.912 84.1177C133.932 84.013 133.932 83.8873 133.912 83.7825C133.849 83.5102 133.932 83.1959 133.953 83.0022C133.953 82.9812 133.974 82.9812 133.974 82.9184V82.8136L133.969 82.8084ZM134.659 87.3073C134.659 87.3073 134.659 87.3282 134.679 87.3492C134.679 87.3492 134.672 87.3352 134.659 87.3073Z" fill="#2E453D"/>
<path d="M148.281 82.5151H148.448C148.386 82.5779 148.678 82.4732 148.783 82.4522C148.908 82.4522 149.013 82.4732 149.096 82.4941C149.159 82.5151 149.201 82.5151 149.263 82.5151C149.347 82.5151 149.472 82.5151 149.618 82.4941H149.848C149.911 82.4941 149.974 82.4732 150.036 82.4732H150.58C150.663 82.4732 150.789 82.5151 150.935 82.5779C150.997 82.6198 151.06 82.6408 151.144 82.6408C151.332 82.6408 151.499 82.7455 151.645 82.8922L151.854 82.9969C152.021 83.1017 152.126 83.1855 152.188 83.2693V83.2902L152.272 83.395C152.335 83.4578 152.397 83.5835 152.46 83.6464C152.544 83.814 152.544 83.8768 152.544 84.0444C152.544 84.0444 152.544 84.0654 152.564 84.1282C152.585 84.1911 152.627 84.3168 152.606 84.4215C152.585 84.5053 152.606 84.631 152.627 84.7776C152.627 84.8405 152.648 84.8824 152.648 84.9452C152.669 84.9662 152.669 84.9871 152.669 84.9871C152.669 85.05 152.648 85.05 152.648 85.1128V85.2176L152.606 85.3223C152.606 85.3223 152.627 85.3014 152.627 85.3223C152.648 85.4061 152.669 85.5318 152.606 85.6785L152.627 85.6575C152.606 85.7204 152.606 85.7832 152.627 85.888V85.9927C152.627 86.0556 152.648 86.0765 152.648 86.1813C152.648 86.2022 152.627 86.2232 152.627 86.286C152.627 86.3698 152.627 86.4746 152.648 86.5793V86.5584C152.711 86.8307 152.648 87.0402 152.585 87.2759V87.2549C152.585 87.2549 152.564 87.3387 152.564 87.4016C152.544 87.4225 152.544 87.4644 152.544 87.5063C152.523 87.6111 152.502 87.653 152.418 87.8834L152.251 88.1348V88.1558C151.917 88.6586 151.499 88.889 151.055 88.999L151.138 89.1247C151.138 89.1666 151.138 89.1875 151.159 89.1875C151.222 89.2504 151.285 89.3551 151.347 89.5437L151.389 89.6275V89.5856L151.473 89.7532L151.577 89.9417L151.556 89.9208L151.87 90.5702L152.162 91.1987L152.225 91.3872C152.267 91.492 152.288 91.6177 152.288 91.7224C152.225 91.8691 152.12 91.9529 151.974 91.9529C151.828 91.9529 151.619 91.8272 151.556 91.6805C151.556 91.7015 151.535 91.6805 151.515 91.6386C151.494 91.5967 151.473 91.5339 151.41 91.4501L151.327 91.2196C151.327 91.2196 151.306 91.1568 151.264 91.1358C151.118 91.052 151.138 90.9263 151.138 90.7797C150.992 90.633 150.992 90.5493 150.888 90.3817L150.783 90.1512C150.721 89.9836 150.679 89.8789 150.658 89.816C150.491 89.6694 150.449 89.4599 150.345 89.2294C150.324 89.2085 150.324 89.1875 150.324 89.1666V89.1456C150.324 89.1456 150.303 89.1247 150.303 89.1037H150.136C150.073 89.1037 150.052 89.0828 149.989 89.0828C149.968 89.0618 149.927 89.0618 149.885 89.0618C149.843 89.0618 149.801 89.0618 149.78 89.0828H149.676C149.613 89.0828 149.592 89.1037 149.509 89.1037H149.425C149.425 89.1037 149.342 89.0828 149.321 89.0828C149.3 89.0618 149.279 89.0618 149.258 89.0618C149.174 89.0828 149.112 89.1037 149.049 89.1037C148.986 89.1037 148.882 89.0618 148.819 89.0409H148.798C148.798 89.0409 148.736 89.0828 148.694 89.0828L148.631 89.2713C148.631 89.2713 148.652 89.3551 148.652 89.3761C148.652 89.4389 148.673 89.4389 148.673 89.5856C148.673 89.7322 148.673 89.816 148.652 89.8789V90.256C148.652 90.3188 148.673 90.3607 148.673 90.3817L148.652 90.5073C148.652 90.5073 148.631 90.5283 148.631 90.5911V90.7168C148.631 90.7168 148.631 90.7797 148.652 90.8006C148.652 90.8216 148.652 90.9682 148.631 91.052L148.61 91.0939L148.631 91.1568C148.652 91.2196 148.652 91.2825 148.652 91.3453V91.5758C148.652 91.8481 148.527 91.9738 148.255 91.9738C148.004 91.9738 147.858 91.7434 147.858 91.5758V91.3663C147.858 91.3034 147.837 91.3034 147.837 91.2406V91.1568C147.837 91.052 147.858 90.9682 147.879 90.8844V90.8425C147.879 90.8425 147.9 90.8006 147.9 90.7378C147.9 90.7168 147.879 90.6959 147.879 90.6121V90.5073C147.879 90.3607 147.879 90.256 147.9 90.1722C147.921 90.1512 147.9 90.0674 147.879 89.9627V89.837C147.858 89.6903 147.796 89.5018 147.858 89.418C147.942 89.2504 147.921 89.1247 147.9 88.978C147.879 88.8314 147.858 88.6219 147.879 88.4543C147.9 88.3914 147.9 88.3286 147.879 88.2448C147.858 88.0563 147.816 87.8258 147.963 87.5692H147.942C147.942 87.5692 147.921 87.5692 147.921 87.5482V87.5901C147.9 87.4854 147.816 87.3806 147.963 87.1292C147.942 87.1502 147.921 87.0873 147.921 87.0245C147.921 87.0035 147.9 86.9826 147.9 86.9197V86.815C147.9 86.6683 147.9 86.5636 147.879 86.4169C147.879 86.3541 147.858 86.2913 147.858 86.2075V85.977C147.858 85.9142 147.858 85.8513 147.921 85.6837L147.9 85.7047C147.921 85.6628 147.921 85.6209 147.921 85.579C147.921 85.5161 147.921 85.4742 147.9 85.4533C147.9 85.4533 147.893 85.4463 147.879 85.4323V85.3904C147.858 85.2438 147.816 85.139 147.879 84.9924C147.921 84.9086 147.921 84.7829 147.9 84.6362C147.9 84.5734 147.879 84.5524 147.879 84.4896C147.879 84.4267 147.858 84.4477 147.858 84.3848V84.301C147.837 84.1544 147.858 84.0287 147.879 83.8821C147.9 83.7145 147.921 83.5678 147.837 83.4212V83.3583C147.837 83.2955 147.858 83.2745 147.858 83.2117L147.879 83.1069C147.879 83.1069 147.9 83.1069 147.921 83.1279C147.816 82.9393 147.816 82.7927 147.921 82.6879C147.984 82.5832 148.109 82.5203 148.276 82.5203L148.281 82.5151ZM148.49 82.5151C148.532 82.5151 148.574 82.4941 148.616 82.4732C148.532 82.4941 148.49 82.5151 148.49 82.5151ZM148.642 85.0395C148.663 85.0814 148.663 85.1652 148.663 85.27V86.4693C148.642 86.6579 148.642 86.8255 148.663 86.9931V86.9721C148.683 87.1188 148.663 87.2864 148.663 87.4749C148.642 87.6215 148.621 87.6844 148.642 87.7891L148.621 87.7472C148.663 87.8939 148.663 88.0196 148.642 88.1034C148.642 88.1034 148.628 88.1034 148.6 88.1034L148.663 88.3548H149.269C149.269 88.3548 149.331 88.3338 149.352 88.3338H149.477C149.477 88.3338 149.498 88.3129 149.561 88.3129C149.624 88.3129 149.645 88.2919 149.665 88.2919C149.728 88.2919 149.728 88.3129 149.791 88.3129H149.958C149.958 88.3129 150.042 88.3338 150.104 88.3338C150.292 88.3338 150.543 88.2919 150.82 88.2291C150.862 88.2081 150.924 88.2081 151.029 88.2081C151.05 88.2081 151.071 88.1872 151.091 88.1872C151.133 88.1872 151.196 88.1662 151.259 88.1243C151.279 88.1243 151.321 88.1034 151.342 88.0405L151.405 87.9777C151.551 87.852 151.676 87.6844 151.781 87.4958C151.781 87.4749 151.802 87.454 151.802 87.3911C151.802 87.3702 151.823 87.3283 151.823 87.2235C151.823 87.1188 151.844 87.014 151.865 86.9302C151.885 86.8255 151.906 86.7626 151.906 86.7417C151.906 86.6579 151.885 86.5741 151.885 86.5112V85.9246C151.885 85.8618 151.885 85.8199 151.865 85.757V85.5266C151.865 85.4637 151.885 85.4428 151.885 85.3799L151.906 85.1704C151.906 85.1704 151.927 85.1076 151.927 85.0448C151.906 84.8562 151.906 84.6467 151.844 84.4163C151.844 84.3953 151.823 84.3744 151.823 84.3115L151.781 84.0392C151.781 84.0392 151.76 83.9973 151.614 83.8925C151.614 83.8925 151.593 83.8506 151.572 83.7459C151.509 83.6411 151.384 83.5364 151.28 83.4735L151.029 83.4107C150.966 83.3897 150.924 83.3688 150.903 83.3688C150.841 83.3478 150.778 83.3269 150.674 83.3269C150.611 83.3269 150.632 83.3059 150.569 83.3059C150.465 83.3059 150.36 83.285 150.277 83.264H150.068C150.068 83.264 150.026 83.285 149.963 83.285C149.942 83.285 149.921 83.264 149.901 83.264H149.42C149.336 83.264 149.274 83.285 149.211 83.285H149.002C148.919 83.285 148.835 83.3059 148.772 83.3059H148.668C148.668 83.4526 148.647 83.5573 148.647 83.6202V83.9554C148.668 84.102 148.668 84.3115 148.668 84.4582V84.4791C148.668 84.6258 148.689 84.7305 148.626 84.8981C148.626 84.961 148.626 85.0029 148.647 85.0238V85.0448L148.642 85.0395Z" fill="#2E453D"/>
<path d="M162.155 83.7459C162.196 83.5992 162.217 83.4945 162.196 83.4107C162.196 83.3478 162.176 83.2431 162.176 83.1593C162.196 82.9917 162.238 82.7403 162.426 82.5936C162.865 82.2794 162.907 82.6565 162.969 82.9498C162.969 83.0126 162.99 83.0336 162.99 83.0545C163.011 83.1383 162.99 83.2431 162.969 83.3478C162.969 83.3688 162.949 83.3688 162.949 83.3897V83.683C162.949 83.9135 162.928 84.102 162.99 84.3325C163.011 84.521 163.032 84.7514 162.969 84.9819C162.969 85.0238 162.949 85.0657 162.928 85.0866C162.907 85.1076 162.907 85.1285 162.907 85.1495V85.1704C162.969 85.2333 162.99 85.2961 162.99 85.3799C163.011 85.6104 162.969 85.7989 162.949 85.9875C162.928 86.0503 162.928 86.1132 162.928 86.176V86.7416C162.907 86.8045 162.928 86.8674 162.949 86.9512C162.969 87.014 162.969 87.1397 162.969 87.2235V87.831C162.949 88.0615 162.969 88.2919 162.99 88.5276C162.99 88.6742 162.969 88.779 162.949 88.8837C162.928 88.9466 162.928 89.0513 162.928 89.1561C162.907 89.5751 162.928 89.9993 162.949 90.3974C162.949 90.4183 162.969 90.5021 162.99 90.6068C163.011 90.7535 163.074 90.7954 163.011 91.0258C162.949 91.0887 162.823 91.3191 162.886 91.382C163.074 91.78 162.886 92.1362 162.405 91.9057C162.05 91.7381 162.155 91.4867 162.259 91.2144L162.238 91.2353C162.238 91.1934 162.217 91.1096 162.196 91.0049C162.175 90.963 162.176 90.9211 162.176 90.9001C162.155 90.7535 162.155 90.6068 162.176 90.4602C162.176 90.3974 162.196 90.3345 162.196 90.2717V88.779C162.196 88.7161 162.217 88.6114 162.217 88.5486C162.238 88.4648 162.238 88.381 162.217 88.2762V88.2972C162.134 87.8991 162.071 87.3492 162.176 87.0349C162.259 86.8464 162.217 86.7207 162.196 86.5531C162.134 86.3227 162.155 86.1551 162.217 85.9037C162.28 85.7151 162.259 85.4428 162.238 85.2542C162.217 85.0238 162.217 84.8143 162.238 84.5838C162.238 84.4791 162.217 84.3953 162.176 84.3115C162.113 84.123 162.029 83.9554 162.176 83.7249L162.155 83.7459Z" fill="#2E453D"/>
<path d="M177.715 87.4539C177.715 87.5587 177.694 87.6425 177.673 87.7053C177.652 87.7682 177.652 87.8101 177.652 87.852L177.673 87.8939C177.694 87.9567 177.715 87.9986 177.715 88.0615C177.715 88.1243 177.694 88.1243 177.694 88.2081V88.2919C177.694 88.4386 177.673 88.5643 177.673 88.7109V91.1725C177.673 91.2563 177.673 91.3191 177.652 91.3401V91.4239C177.673 91.4867 177.694 91.5496 177.694 91.6124C177.694 91.8848 177.506 91.9895 177.36 91.9895C177.193 91.9895 177.025 91.8219 176.942 91.6753L176.9 91.5915C176.837 91.5286 176.796 91.4448 176.775 91.382L176.754 91.361L176.691 91.2563C176.628 91.1725 176.607 91.1096 176.607 91.0677V91.0468L176.545 90.9211L176.315 90.4183C176.315 90.4183 176.294 90.3764 176.252 90.3345C176.106 90.2507 176.106 90.0831 176.043 89.9784L175.939 89.7689L175.876 89.6222V89.6432C175.855 89.5803 175.855 89.5384 175.876 89.5594H175.897C175.751 89.4546 175.709 89.287 175.626 89.1194L175.542 89.0147C175.479 88.9099 175.417 88.8052 175.396 88.6585L175.354 88.5957C175.354 88.5957 175.312 88.5328 175.312 88.5119C175.312 88.5119 175.305 88.5119 175.291 88.5119C175.229 88.4281 175.208 88.3862 175.187 88.2395L175.082 88.1348L174.957 87.9253C174.957 87.9253 174.936 87.8834 174.915 87.8206L174.873 87.7158L174.894 87.7787C174.832 87.6739 174.832 87.6111 174.832 87.5273C174.832 87.5063 174.811 87.5482 174.811 87.4854C174.748 87.3806 174.685 87.1921 174.623 87.0873L174.581 87.0245L174.602 87.0873C174.539 87.0035 174.476 86.8988 174.414 86.7521L174.435 86.7731L174.288 86.5217V86.5426C174.142 86.3541 174.058 86.1655 173.996 85.8932C173.975 85.7256 173.808 85.4533 173.703 85.3066C173.557 85.16 173.536 85.0971 173.515 85.0133V84.9295C173.515 84.9295 173.473 84.8667 173.473 84.8457C173.432 84.8038 173.411 84.7619 173.411 84.741L173.285 84.4058C173.285 84.4058 173.265 84.4267 173.265 84.4477V84.4686C173.265 84.4686 173.244 84.5105 173.244 84.5315V84.9924L173.285 85.139C173.306 85.2438 173.39 85.3904 173.244 85.6418H173.265C173.285 85.7047 173.285 85.8513 173.285 85.9141C173.265 86.0608 173.244 86.1865 173.244 86.2912C173.244 86.2703 173.223 86.2703 173.223 86.2493C173.244 86.2703 173.265 86.3122 173.265 86.3541C173.265 86.4379 173.265 86.5426 173.285 86.6474C173.306 86.794 173.285 86.8778 173.265 87.0245V87.1083C173.285 87.2759 173.285 87.4644 173.285 87.632C173.265 87.7368 173.265 87.8415 173.285 87.9463C173.306 88.1767 173.306 88.4071 173.285 88.6166V88.9099C173.285 89.0147 173.285 89.1823 173.265 89.3289V89.727C173.265 89.7898 173.265 89.9155 173.244 89.9784V90.2298C173.244 90.2926 173.265 90.2717 173.265 90.3345C173.265 90.3555 173.285 90.3555 173.285 90.3764C173.306 90.4812 173.327 90.5649 173.306 90.6697V90.942C173.327 91.1096 173.348 91.3401 173.285 91.5705C173.265 91.7381 173.202 91.9895 172.888 91.9895C172.805 91.9895 172.721 92.0105 172.638 91.8638C172.491 91.7172 172.491 91.5077 172.491 91.2353C172.491 90.9211 172.491 90.6906 172.471 90.434C172.471 90.2874 172.491 90.1617 172.533 90.036V90.015C172.533 90.015 172.533 89.9522 172.554 89.9312C172.554 89.8684 172.554 89.8055 172.533 89.7636C172.512 89.7008 172.491 89.617 172.491 89.5122C172.491 89.4075 172.512 89.3237 172.533 89.2399V89.198C172.533 89.198 172.554 89.1561 172.554 89.0932C172.554 89.0932 172.533 89.0513 172.512 88.9675C172.491 88.9256 172.491 88.8209 172.491 88.6743C172.491 88.5905 172.491 88.4648 172.512 88.4019V88.381C172.512 88.381 172.533 88.3181 172.533 88.2134C172.533 88.2134 172.526 88.1994 172.512 88.1715C172.45 88.0248 172.45 87.8363 172.533 87.6477L172.512 87.6687C172.512 87.6687 172.471 87.5639 172.471 87.4382C172.471 87.3754 172.471 87.3125 172.533 87.1449L172.512 87.1659C172.533 87.0821 172.554 87.0402 172.554 87.0192V86.6212L172.512 86.4955C172.512 86.4955 172.491 86.4746 172.491 86.4117C172.471 86.3279 172.45 86.1813 172.512 86.0137C172.533 85.9089 172.554 85.8461 172.533 85.7832V85.448C172.533 85.448 172.554 85.4061 172.554 85.3852C172.491 85.2385 172.512 85.1128 172.512 84.9662V84.8405C172.533 84.7357 172.512 84.61 172.491 84.5053L172.512 84.5262C172.408 84.2958 172.491 84.2539 172.512 84.0653V84.0234C172.512 84.0234 172.512 83.9606 172.533 83.9397C172.533 83.8559 172.533 83.793 172.512 83.7302V83.7092C172.512 83.7092 172.491 83.6464 172.491 83.6254C172.491 83.5626 172.512 83.5626 172.512 83.4997V83.374C172.533 83.3112 172.554 83.395 172.533 83.3321C172.45 83.1855 172.45 82.8712 172.533 82.7246C172.617 82.5779 172.7 82.4941 172.805 82.4732C172.993 82.4732 173.056 82.536 173.223 82.7036L173.39 82.9131C173.411 82.955 173.411 83.0179 173.411 83.1017V83.1436L173.599 83.4578V83.4369L173.703 83.6045C173.766 83.7302 173.787 83.814 173.787 83.8349L173.85 83.8978C173.912 83.9816 173.954 84.0863 173.975 84.1701C173.975 84.191 173.996 84.2329 174.038 84.2748C174.1 84.3377 174.079 84.3377 174.142 84.4843L174.184 84.6519C174.184 84.6519 174.205 84.6519 174.205 84.6729C174.205 84.7357 174.226 84.7776 174.226 84.7567C174.372 84.9033 174.497 85.0919 174.56 85.3223C174.623 85.469 174.623 85.4899 174.706 85.6366L174.748 85.7204C174.811 85.8251 174.873 85.9299 174.894 86.0765L174.915 86.0975C174.915 86.0975 174.936 86.1394 174.957 86.1603C175.02 86.2232 175.061 86.286 175.082 86.4536H175.103C175.166 86.5374 175.229 86.6631 175.291 86.8307C175.291 86.8307 175.305 86.8377 175.333 86.8516C175.333 86.8516 175.354 86.9145 175.375 86.9564C175.396 87.0192 175.437 87.124 175.458 87.1868L175.479 87.2287L175.584 87.3335C175.667 87.4173 175.646 87.4801 175.667 87.5639L175.646 87.543L175.751 87.6896L175.897 87.8991C175.918 87.962 175.939 88.0039 175.939 88.1505L176.002 88.2553L176.085 88.4019C176.19 88.5486 176.294 88.6952 176.294 88.8419L176.419 89.0723C176.566 89.2189 176.628 89.4075 176.691 89.5122C176.733 89.6589 176.796 89.8055 176.858 89.9103L176.921 90.036V89.9941C176.9 89.9312 176.9 89.8055 176.9 89.7217V89.3656C176.921 89.2189 176.921 88.9675 176.921 88.8628C176.858 88.5905 176.9 88.2972 176.9 88.0405V87.7472C176.921 87.5168 176.921 87.3282 176.921 87.0978V87.0768C176.921 87.0768 176.9 87.0768 176.9 87.014C176.879 86.9302 176.775 86.9302 176.921 86.5741C176.942 86.5531 176.921 86.4693 176.921 86.4065C176.858 86.1551 176.837 85.7361 176.9 85.4585C176.963 85.228 176.942 84.9767 176.879 84.72V84.741C176.858 84.6362 176.858 84.5524 176.9 84.4477V84.4896C176.9 84.4896 176.921 84.4477 176.921 84.3848H176.942C176.858 84.1963 176.858 83.9449 176.879 83.7982C176.9 83.6935 176.9 83.6097 176.879 83.5049C176.858 83.2745 176.858 83.086 176.921 82.8974C176.921 82.7927 176.942 82.7089 177.004 82.646C177.067 82.5832 177.193 82.4994 177.297 82.4994C177.464 82.4994 177.673 82.7089 177.673 82.8974V83.1279C177.652 83.1698 177.652 83.2326 177.652 83.2954C177.652 83.484 177.652 83.6097 177.673 83.6725V84.1334C177.673 84.1963 177.673 84.2382 177.694 84.2801V84.6362L177.715 84.741C177.715 84.8248 177.694 84.9086 177.631 84.9924L177.61 85.0133C177.61 85.1181 177.652 85.16 177.673 85.3276C177.694 85.4742 177.715 85.6209 177.715 85.7675C177.715 85.8303 177.694 85.8303 177.694 85.8932V86.0608C177.673 86.1027 177.673 86.1446 177.673 86.2074C177.673 86.2703 177.673 86.3122 177.652 86.3331V86.375L177.673 86.4169C177.694 86.4798 177.715 86.5426 177.715 86.6055V87.4487V87.4539Z" fill="#2E453D"/>
<path d="M188.318 91.6386C188.193 91.5758 188.109 91.492 188.068 91.4291C188.047 91.4082 187.984 91.3872 187.984 91.3663C187.963 91.3663 187.921 91.3244 187.9 91.3244C187.88 91.3244 187.859 91.3034 187.796 91.2406C187.629 91.052 187.503 90.8216 187.441 90.5911L187.462 90.6121L187.274 90.2559C187.127 90.0045 187.169 89.6275 187.19 89.4756C187.211 89.3499 187.211 89.2032 187.148 89.0147C187.127 88.868 187.106 88.6166 187.169 88.4281C187.19 88.4071 187.19 88.3652 187.19 88.3443C187.169 88.3233 187.169 88.2395 187.169 88.0929V87.9463C187.19 87.7158 187.232 87.5063 187.169 87.2549C187.106 87.1083 187.106 86.9407 187.148 86.7521C187.169 86.6474 187.19 86.5426 187.169 86.4588C187.148 86.2284 187.148 85.956 187.169 85.7204V85.4061C187.148 85.2385 187.148 85.0919 187.169 84.9662V84.9243C187.169 84.9243 187.19 84.8614 187.19 84.8405V84.7986C187.169 84.7148 187.169 84.5681 187.169 84.4215C187.211 84.3167 187.253 84.2539 187.295 84.212V84.191C187.295 84.1072 187.295 84.0025 187.399 83.8559C187.42 83.793 187.462 83.7721 187.483 83.7092C187.483 83.7092 187.503 83.6883 187.524 83.6254C187.545 83.5416 187.545 83.4578 187.545 83.4788C187.691 83.2902 187.963 82.976 188.13 82.955L188.277 82.8503C188.339 82.7874 188.444 82.7246 188.548 82.7036C188.653 82.6827 188.736 82.6408 188.841 82.5779H188.862C189.091 82.4941 189.154 82.4941 189.217 82.4941H189.509C189.676 82.4313 189.76 82.4313 189.864 82.4313C189.927 82.4313 189.969 82.4313 190.011 82.4103C190.052 82.3894 190.136 82.3894 190.24 82.3894C190.345 82.3894 190.449 82.4103 190.533 82.4313C190.554 82.4313 190.596 82.4522 190.617 82.4522H190.742C190.972 82.4522 191.202 82.4522 191.431 82.5989C191.494 82.6198 191.557 82.6408 191.619 82.6408C191.766 82.7036 191.87 82.7036 192.037 82.8503L192.246 83.0179L192.434 83.2064C192.601 83.3531 192.79 83.5626 192.852 83.793C192.852 83.8349 192.873 83.8768 192.894 83.8978V83.8768C192.957 83.9396 193.019 84.0653 193.019 84.2958V84.3377C193.019 84.3796 193.019 84.4005 193.04 84.4215L193.019 84.4005C193.082 84.5053 193.082 84.5891 193.082 84.7357C193.082 84.8405 193.061 84.9243 192.998 84.9871C192.915 85.0709 192.81 85.1128 192.685 85.1128C192.581 85.1128 192.476 85.0919 192.413 85.029C192.33 84.9452 192.33 84.8614 192.33 84.7567C192.33 84.6519 192.309 84.5262 192.288 84.3796V84.4005C192.225 84.1491 192.037 83.9397 191.87 83.7092V83.7302L191.787 83.6464L191.828 83.6673C191.578 83.395 191.113 83.2693 190.799 83.2064H190.298C190.235 83.2064 190.235 83.2274 190.173 83.2274C190.11 83.2274 190.068 83.2274 190.047 83.2064H189.964C189.964 83.2064 189.901 83.2064 189.88 83.2274H189.776C189.692 83.2274 189.629 83.2274 189.567 83.2064H189.608C189.608 83.2064 189.608 83.1855 189.588 83.1855L189.42 83.2274C189.316 83.2902 189.149 83.3531 189.003 83.3531L188.877 83.4159C188.877 83.4159 188.856 83.4159 188.835 83.4369C188.815 83.4578 188.773 83.4788 188.731 83.4788C188.71 83.4997 188.647 83.4997 188.564 83.4997V83.5207L188.543 83.5626L188.376 83.7092C188.313 83.7302 188.25 83.814 188.188 83.9397L188.125 84.0653C188.125 84.1072 188.125 84.1282 188.104 84.1491L188 84.2958V84.3377C188 84.4005 188 84.4424 187.979 84.5053V84.6938C187.979 84.7567 187.958 84.7567 187.958 84.8195C187.937 84.8824 187.916 84.9662 187.895 85.05C187.874 85.1128 187.874 85.1547 187.853 85.1966L187.895 85.1547C187.895 85.1547 187.916 85.2176 187.916 85.3014V85.5318C187.895 85.5737 187.895 85.6156 187.916 85.6366C187.937 85.7413 187.958 85.8461 187.937 85.9508V86.3069C187.937 86.4536 187.958 86.6212 187.895 86.8097C187.895 86.8307 187.916 86.8516 187.916 86.8726C187.937 86.9564 187.958 87.0402 187.958 87.124C187.958 87.2287 187.937 87.3335 187.916 87.4173C187.916 87.4382 187.895 87.4801 187.895 87.5011V87.6058L187.937 87.962V88.2134C187.937 88.2972 187.958 88.3391 187.958 88.4019C187.958 88.4648 187.937 88.4857 187.937 88.5486C187.937 88.5695 187.916 88.5905 187.916 88.6114V88.6323C187.916 88.6323 187.916 88.6533 187.937 88.6742C187.937 88.6952 187.958 88.758 187.958 88.8209C187.958 88.8418 187.937 88.9047 187.916 88.9885C187.895 88.9885 187.874 88.9885 187.874 89.0094H187.895C187.895 89.0094 187.916 89.0304 187.916 89.0513C187.937 89.1351 187.979 89.2399 187.916 89.3865L187.937 89.3656C187.833 89.6379 187.958 89.9522 188.104 90.2298C188.104 90.2088 188.125 90.2298 188.146 90.3136L188.125 90.2926C188.271 90.544 188.459 90.9211 188.606 90.942L188.982 91.0468L188.961 91.0258L189.17 91.0887H189.149C189.295 91.1096 189.379 91.1306 189.441 91.1306C189.504 91.1306 189.546 91.1515 189.608 91.1515H189.901C190.089 91.1515 190.277 91.1725 190.444 91.2353C190.486 91.2353 190.528 91.2144 190.59 91.1934C190.653 91.1934 190.695 91.1725 190.758 91.1725L190.925 91.1306H191.092C191.092 91.1306 191.113 91.1096 191.134 91.1096H191.217C191.217 91.1096 191.238 91.1096 191.259 91.0887C191.405 90.9839 191.51 90.963 191.593 90.963L191.614 90.942C191.677 90.8582 191.761 90.7954 191.865 90.7744C191.865 90.7744 191.879 90.7675 191.907 90.7535L192.053 90.5859L192.074 90.5649V90.5021C192.095 90.4183 192.116 90.3555 192.22 90.2507C192.366 90.1041 192.366 89.8108 192.366 89.5594C192.387 89.4965 192.387 89.4546 192.387 89.3918V89.308C192.387 89.308 192.408 89.2451 192.408 89.1823V88.6166C192.387 88.47 192.366 88.3862 192.387 88.3233C192.408 88.2605 192.408 88.1977 192.408 88.1139V88.051C192.22 88.0719 192.116 88.072 191.928 88.072H191.238C191.155 88.072 191.092 88.0929 191.029 88.0929H190.82C190.758 88.0929 190.382 88.0719 190.277 87.8206V87.8415C190.214 87.7158 190.214 87.5901 190.277 87.4644C190.361 87.3178 190.507 87.234 190.716 87.234C190.82 87.234 190.925 87.2549 191.029 87.2968H191.196C191.196 87.2968 191.238 87.2759 191.259 87.2759C191.28 87.2759 191.301 87.2968 191.322 87.2968H191.426C191.489 87.2968 191.531 87.3178 191.677 87.2549H191.781C191.865 87.2549 191.949 87.2759 192.032 87.2968L192.074 87.3178H192.178C192.241 87.3178 192.304 87.3178 192.346 87.2968H192.575C192.575 87.2968 192.638 87.2759 192.659 87.2759H192.784C193.098 87.2759 193.202 87.4854 193.202 87.653C193.202 87.7368 193.181 87.7996 193.139 87.8625C193.139 87.8625 193.146 87.8764 193.16 87.9044C193.181 87.9463 193.181 88.0091 193.181 88.072C193.181 88.1558 193.181 88.2814 193.16 88.3443C193.16 88.3443 193.153 88.3583 193.139 88.3862V88.449C193.139 88.5119 193.139 88.5538 193.16 88.5747C193.181 88.7214 193.244 88.9099 193.181 89.0566C193.16 89.1404 193.139 89.2242 193.139 89.308C193.16 89.3918 193.181 89.4756 193.181 89.5384L193.119 89.7479C193.098 89.8108 193.077 89.8527 193.077 89.9155C193.077 90.1041 193.014 90.3345 192.951 90.4811C192.951 90.4811 192.944 90.4951 192.931 90.523V90.544C192.847 90.7325 192.763 90.8792 192.701 90.9839L192.722 90.9001C192.722 90.9001 192.701 90.942 192.701 90.963L192.659 91.0258C192.659 91.0258 192.638 91.0468 192.638 91.0677C192.617 91.0887 192.617 91.1096 192.617 91.1096L192.534 91.2144V91.1934C192.304 91.4658 192.095 91.5705 191.865 91.6543C191.844 91.6543 191.823 91.6753 191.802 91.6962L191.614 91.7381L191.635 91.7172L191.51 91.7591L191.322 91.8219L191.155 91.8638H191.196L191.008 91.9267C190.946 91.9476 190.904 91.9686 190.758 91.9686H190.653C190.59 91.9686 190.59 91.9476 190.57 91.9476H190.465C190.402 91.9476 190.402 91.9267 190.382 91.9267C190.361 91.9267 190.277 91.9476 190.173 91.9686H189.985C189.922 91.9686 189.88 91.9895 189.734 91.9895C189.629 91.9895 189.567 91.9686 189.504 91.9267L189.483 91.9057H189.337C189.253 91.9057 189.191 91.9057 189.17 91.8848C189.107 91.8848 189.044 91.8638 188.982 91.8429C188.919 91.8429 188.919 91.801 188.898 91.801H188.773C188.689 91.801 188.626 91.801 188.606 91.78L188.397 91.6962L188.313 91.6334L188.318 91.6386ZM187.519 83.484C187.519 83.484 187.519 83.463 187.54 83.463L187.519 83.484ZM187.921 88.6114L187.9 88.6533C187.9 88.6533 187.907 88.6393 187.921 88.6114ZM193.139 87.8153C193.139 87.8153 193.139 87.8363 193.16 87.8363V87.8153H193.139Z" fill="#2E453D"/>
</g>
<defs>
<clipPath id="clip0_268_261">
<rect width="208" height="92" fill="white"/>
</clipPath>
</defs>
</svg>
