<?xml version="1.0" encoding="UTF-8"?>
<svg id="Vrstva_1" data-name="Vrstva 1" xmlns="http://www.w3.org/2000/svg" xmlns:xlink="http://www.w3.org/1999/xlink" viewBox="0 0 127.67 56.47">
  <defs>
    <style>
      .cls-1 {
        fill: none;
      }

      .cls-2 {
        fill: #2e453d;
      }

      .cls-3 {
        clip-path: url(#clippath);
      }
    </style>
    <clipPath id="clippath">
      <rect class="cls-1" width="127.67" height="56.47"/>
    </clipPath>
  </defs>
  <g class="cls-3">
    <g>
      <path class="cls-2" d="M34.02.96c-1.25,1.25-2.69,4.31-3.62,7.55-.71,2.64-1.31,3.7-2.05,3.7-1.06,0-3.65.74-3.65,1.03,0,.23.77.29,2.28.13l2.31-.19-.26,1.67c-.13.93-.32,3.02-.45,4.63-.29,3.63-.99,4.98-4.23,7.94-2.21,2.09-7.53,5.95-7.79,5.66-.06-.06-1.15-2.76-2.37-5.98l-2.24-5.88.45-1.51c.55-1.77.58-3.12.13-3.99-.42-.77-2.6-.87-3.21-.13-.67.84-.45,2.99.45,4.18.45.61.83,1.35.83,1.7,0,.77-1.28,2.73-2.98,4.5-1.03,1.06-5.67,4.79-7.57,6.08-.1.06,0,.26.16.42.74.74,8.91-6.08,10.71-8.94.48-.74.58-.51,2.34,4.95l1.86,5.69-1.44,1.48c-1.67,1.7-2.12,2.73-2.12,4.69s1.19,3.38,2.85,3.38c3.05,0,4.36-3.28,3.05-7.68-.26-.96-.38-1.83-.22-1.96.13-.13,1.47-1.06,2.98-2.09,1.51-1.06,3.94-3.09,5.45-4.56,1.47-1.48,2.73-2.67,2.76-2.67,0,0,.13,1.7.26,3.76.51,9.1,2.4,13.85,6.12,15.56,2.92,1.35,5.35.64,8.37-2.41,1.86-1.9,2.6-2.99,4.07-5.98.99-2.03,2.24-5.08,2.82-6.75,1.12-3.38,1.57-4.15,1.57-2.76,0,1.58,1.22,5.18,2.24,6.56,1.12,1.58,1.96,2.06,3.43,2.06,2.21,0,4.3-3.18,4.78-7.3.26-2.03.45-2.25,2.31-2.54.77-.13,2.28-.68,3.37-1.25,1.09-.55,2.08-1.06,2.18-1.13.1-.03.29,2.31.38,5.24.19,5.5.42,6.4,1.51,6.75,1.35.42,2.34-1.09,5.13-7.81,2.85-6.98,3.01-6.85,3.21,2.83.19,8.81.35,9.42,2.37,9.58,1.99.16,3.91-.77,6.09-2.96,2.4-2.35,3.43-3.86,5.77-8.26.99-1.86,1.83-3.12,1.92-2.86.06.26.45,1.58.83,2.89.93,3.18,1.96,5.14,3.33,6.36,1.35,1.19,2.18,1.48,3.53,1.22,2.12-.42,3.91-3.18,5.03-7.78.35-1.58.74-3.09.83-3.34.13-.45,3.27,8.68,3.3,9.58,0,.23-.42.77-.93,1.22-3.43,2.89-3.17,8.49.38,8.49,1.31,0,2.66-.8,3.05-1.83.83-2.06.8-2.7-.13-6.88-.16-.74.1-1.03,2.95-3.05,5.29-3.73,8.78-7.55,9.14-10.06.19-1.25-.61-1.16-.96.13-.67,2.48-4.26,6.14-9.3,9.55-1.28.9-2.47,1.48-2.6,1.32-.16-.13-1.22-2.8-2.4-5.88-2.05-5.34-2.12-5.69-1.8-7.01.45-1.8.45-4.02-.03-4.5-.58-.58-2.37-.48-2.98.16-.87.84-.48,3.02.77,4.47.77.87.99,1.35.87,2.03-.1.45-.32,1.77-.51,2.93-.71,3.95-1.89,7.1-3.21,8.42-1.35,1.38-2.24,1.51-3.69.64-1.8-1.13-3.75-5.98-4.2-10.51-.16-1.7-.06-2.28.96-4.92,1.51-3.89,1.73-5.27,1.03-6.33-.74-1.09-1.86-1.03-2.89.16-.99,1.19-1.19,2.6-1.09,7.39l.1,3.7-1.25,2.41c-3.24,6.3-7.08,10.96-9.97,12.05-2.53,1-2.53.93-2.73-8.55-.16-7.49-.19-8.1-.77-8.52-1.8-1.29-3.11.39-5.96,7.62-1.67,4.15-2.18,5.18-2.56,4.95-.19-.13-.32-2.15-.32-4.63s-.1-5.34-.19-6.43c-.26-2.31-.74-2.51-2.4-.96-.58.55-1.44,1.19-1.92,1.45-1.28.64-4.55,1.45-4.81,1.16-.16-.13-.42-1.25-.61-2.48-.42-2.7-1.6-5.43-2.56-5.95-.99-.55-2.76-.13-3.49.84-.99,1.29-1.19,3.34-.42,4.98.8,1.86,1.57,2.48,3.82,3.15l1.86.55-.13,1.61c-.19,3.05-1.8,6.27-3.33,6.85-2.31.87-4.07-2.03-4.71-7.72-.67-5.85.64-11.25,2.92-12.18,1.12-.48,1.22-.96.16-.96-1.96,0-3.78,2.76-4.71,7.27-1.64,7.84-5.55,17.04-8.75,20.57-1.99,2.19-3.4,3.02-5.16,3.02-3.3,0-5.58-2.99-6.76-8.84-.67-3.25-.96-13.92-.48-17.58.51-3.89.55-3.99,1.57-4.4.74-.29,5.87-1.29,11.09-2.19,1.54-.26,2.47-1.06,1.25-1.06-.32,0-3.27.45-6.57,1-3.3.58-6.09.96-6.22.87-.38-.42,1.35-6.33,2.63-8.84.74-1.48,1.22-2.67,1.06-2.67-.13,0-.67.45-1.22.96ZM99.01,13.47c.06.39-.22,1.8-.61,3.15-.67,2.28-.77,2.38-.99,1.51-.26-1-.03-3.63.42-4.89.35-.9,1.06-.77,1.19.23ZM11.8,17.42c.06.68-.03,1.48-.22,1.77-.29.51-.35.48-.64-.32-.19-.51-.35-1.35-.35-1.86,0-.77.13-.96.58-.87.38.06.58.45.64,1.29ZM109.97,17.84c0,2.15-.45,2.28-.93.29-.38-1.54-.29-2.06.48-2.06.32,0,.45.45.45,1.77ZM59.83,17.2c.64,1,1.25,3.05,1.57,5.21.26,1.99,0,2.12-2.05,1.06-1.35-.68-2.6-2.73-2.6-4.31,0-2.38,1.96-3.66,3.08-1.96ZM15.94,37.48c.8,3.15.26,5.27-1.35,5.27-1.03,0-2.08-1.41-2.08-2.8,0-1.93,1.67-4.53,2.69-4.18.19.06.51.84.74,1.7ZM114.11,36.87c.64,2.6.71,3.34.35,4.44-.93,2.86-4.3.9-3.72-2.19.22-1.19,1.92-3.44,2.6-3.44.26,0,.61.55.77,1.19Z"/>
      <path class="cls-2" d="M10.86,53.64s-.01-.03-.01-.06v-.06c0-.09.01-.12.03-.17.01-.03.01-.05.01-.08s0-.05-.01-.08c0-.04-.01-.06-.01-.1v-.06s0-.14.01-.21c0-.04.01-.03.01-.06s.01-.06.01-.1v-.04c-.06-.19-.05-.28-.04-.39h0s.01-.01.01-.03h0s-.01-.03-.01-.06v-.18s.01-.05.03-.06h-.01s-.01-.01-.01-.03v-.18s.03-.09.01-.15v-.14c-.01-.06-.01-.17.03-.3h-.01c-.04-.06-.04-.13-.01-.18.04-.21.14-.27.36-.27.04,0,.09.01.17.04h.08c.05-.01.1-.03.15-.03.09,0,.09.01.18.03.04.01.08.01.13.01h.05c.09-.04.21-.05.35-.05.09,0,.17.01.26.03h.05s.05-.01.09-.01c.06,0,.1,0,.17.04.01,0,.04,0,.05-.01h.13s.05.01.1.01c.04,0,.05,0,.06-.01.04-.01.08-.04.12-.04.14,0,.24.12.24.27,0,.17-.08.24-.24.24-.04,0-.1-.01-.17-.03-.03-.01-.05-.01-.08-.01s-.06.01-.1.03c-.03.01-.06.01-.13.01h-.08s-.03-.01-.06-.01h-.15s-.03-.01-.04-.01-.01-.01-.03-.01c-.04.03-.09.04-.14.04-.04,0-.06.01-.15-.03h-.01c-.05,0-.09,0-.12.01-.04,0-.08.01-.12.01h-.17s-.04-.01-.08-.01c-.04-.01-.06-.03-.08-.03-.05.01-.1.03-.14.03-.05,0-.09,0-.1-.01h-.1c0,.1,0,.18-.01.22,0,.04,0,.1.01.17.01.09.01.17,0,.23v.08s0,.06.01.09v.1s.01.03.01.06-.01.04-.01.08v.08s-.01.06-.01.09c0,.04-.01.06-.01.1v.1c0,.09-.01.21,0,.27.04.12.03.14.03.23-.01.01-.01.03-.01.03,0,.05.03.12.03.21.04,0,.03-.01.06-.01s.09.03.14.04h.23c.09-.01.19-.01.28-.01.04,0,.05-.01.06-.01h.12s.04-.01.08-.01c.05,0,.09.03.14.04h.08s.06-.01.1-.01c.06,0,.1,0,.13.01h.09s.05-.01.08-.01c.09,0,.19.05.28.19.01.04.05.09-.09.23-.04.04-.1.06-.18.06s-.15-.01-.22-.03h-.01s-.05,0-.06,0h-.03c-.05.01-.1.03-.17.03-.09,0-.14,0-.18-.01-.03-.01-.05-.01-.09-.01h-.36s-.12.01-.15.01-.1,0-.14-.01h-.14s-.03.01-.06.01c.01.01.01.03.01.03,0,.09-.01.19-.03.28,0,.04-.01.1-.01.14v.09c.01.05.04.12.04.17s-.03.1-.04.15h0s.01.01.01.05c.01.04.03.09.03.17,0,.05-.01.1-.04.15.01.03.03.06.03.1v.33c.01.09.04.18,0,.27v.04c.01.05.03.13-.01.22h.01s-.01.06-.01.1v.12c0,.06,0,.15-.06.22-.04.04-.1.06-.17.06s-.12-.03-.17-.08c-.04-.05-.05-.15-.05-.22v-.3c0-.05,0-.09.01-.1h0c-.04-.1-.03-.15-.03-.26.01-.04.01-.09.01-.18v-.45c0-.09,0-.22-.01-.31,0-.06,0-.22.01-.27v-.12c0-.05,0-.1-.01-.14h0s-.03-.08-.03-.17c0-.04.01-.09.04-.13v-.1s-.01,0-.01,0ZM11.31,53.63s0,.01.01.03c0,0,0,0-.01-.03Z"/>
      <path class="cls-2" d="M20.03,51.4c.03-.09.04-.15.03-.21,0-.04-.01-.1-.01-.15.01-.1.04-.26.15-.35.27-.19.29.04.33.22,0,.04.01.05.01.06.01.05,0,.12-.01.18,0,.01-.01.01-.01.03v.18c0,.14-.01.26.03.4.01.12.03.26-.01.4,0,.03-.01.05-.03.06-.01.01-.01.03-.01.04h0c.04.05.05.09.05.14.01.14-.01.26-.03.37-.01.04-.01.08-.01.12v.35s0,.08.01.13c.01.04.01.12.01.17v.37c-.01.14,0,.28.01.43,0,.09-.01.15-.03.22-.01.04-.01.1-.01.17-.01.26,0,.52.01.76,0,.01.01.06.03.13.01.09.05.12.01.26-.04.04-.12.18-.08.22.12.24,0,.46-.29.32-.22-.1-.15-.26-.09-.42h-.01s-.01-.06-.03-.13c-.01-.03-.01-.05-.01-.06-.01-.09-.01-.18,0-.27,0-.04.01-.08.01-.12v-.92s.01-.1.01-.14c.01-.05.01-.1,0-.17h0c-.05-.23-.09-.57-.03-.76.05-.12.03-.19.01-.3-.04-.14-.03-.24.01-.4.04-.12.03-.28.01-.4-.01-.14-.01-.27,0-.41,0-.06-.01-.12-.04-.17-.04-.12-.09-.22,0-.36h-.01Z"/>
      <path class="cls-2" d="M30.2,53.68c0,.06-.01.12-.03.15-.01.04-.01.06-.01.09v.03s.04.06.04.1-.01.04-.01.09v.05c0,.09-.01.17-.01.26v1.51c0,.05,0,.09-.01.1v.05s.03.08.03.12c0,.17-.12.23-.21.23-.1,0-.21-.1-.26-.19l-.03-.05s-.06-.09-.08-.13h-.01s-.04-.08-.04-.08c-.04-.05-.05-.09-.05-.12h0s-.04-.09-.04-.09l-.14-.31s-.01-.03-.04-.05c-.09-.05-.09-.15-.13-.22l-.06-.13-.04-.09h0s-.01-.05,0-.04h.01c-.09-.06-.12-.17-.17-.27l-.05-.06c-.04-.06-.08-.13-.09-.22l-.03-.04s-.03-.04-.03-.05h-.01c-.04-.05-.05-.08-.06-.17l-.06-.06-.08-.13s-.01-.03-.03-.06l-.03-.06v.04c-.03-.06-.03-.1-.03-.15,0-.01-.01.01-.01-.03-.04-.06-.08-.18-.12-.24l-.03-.04v.04c-.03-.05-.06-.12-.1-.21h.01s-.09-.14-.09-.14h0c-.09-.1-.14-.22-.18-.39-.01-.1-.12-.27-.18-.36-.09-.09-.1-.13-.12-.18v-.05s-.03-.04-.03-.05c-.03-.03-.04-.05-.04-.06l-.08-.21s-.01.01-.01.03h0s-.01.04-.01.05v.28l.03.09c.01.06.06.15-.03.31h.01s.01.13.01.17c-.01.09-.03.17-.03.23,0-.01-.01-.01-.01-.03.01.01.03.04.03.06,0,.05,0,.12.01.18.01.09,0,.14-.01.23v.05c.01.1.01.22.01.32-.01.06-.01.13,0,.19.01.14.01.28,0,.41v.18c0,.06,0,.17-.01.26v.24s0,.12-.01.15v.15s.01.03.01.06c0,.01.01.01.01.03.01.06.03.12.01.18v.17c.01.1.03.24-.01.39-.01.1-.05.26-.24.26-.05,0-.1.01-.15-.08-.09-.09-.09-.22-.09-.39,0-.19,0-.33-.01-.49,0-.09.01-.17.04-.24h0s0-.05.01-.06c0-.04,0-.08-.01-.1-.01-.04-.03-.09-.03-.15s.01-.12.03-.17v-.03s.01-.03.01-.06c0,0-.01-.03-.03-.08-.01-.03-.01-.09-.01-.18,0-.05,0-.13.01-.17h0s.01-.05.01-.12c0,0,0,0-.01-.03-.04-.09-.04-.21.01-.32h-.01s-.03-.05-.03-.13c0-.04,0-.08.04-.18h-.01s.03-.06.03-.08v-.24l-.03-.08s-.01-.01-.01-.05c-.01-.05-.03-.14.01-.24.01-.06.03-.1.01-.14v-.21s.01-.03.01-.04c-.04-.09-.03-.17-.03-.26v-.08c.01-.06,0-.14-.01-.21h.01c-.06-.13-.01-.15,0-.27v-.03s0-.04.01-.05c0-.05,0-.09-.01-.13h0s-.01-.05-.01-.06c0-.04.01-.04.01-.08v-.08s.03.01.01-.03c-.05-.09-.05-.28,0-.37.05-.09.1-.14.17-.15.12,0,.15.04.26.14l.1.13s.01.06.01.12v.03l.12.19h0s.06.09.06.09c.04.08.05.13.05.14l.04.04c.04.05.06.12.08.17,0,.01.01.04.04.06.04.04.03.04.06.13l.03.1s.01,0,.01.01c0,.04.01.06.01.05.09.09.17.21.21.35.04.09.04.1.09.19l.03.05c.04.06.08.13.09.22h.01s.01.04.03.05c.04.04.06.08.08.18h.01c.04.05.08.13.12.23,0,0,0,0,.03.01,0,0,.01.04.03.06.01.04.04.1.05.14v.03s.08.06.08.06c.05.05.04.09.05.14h-.01s.06.08.06.08l.09.13s.03.06.03.15l.04.06.05.09c.06.09.13.18.13.27l.08.14c.09.09.13.21.17.27.03.09.06.18.1.24l.04.08v-.03s-.01-.12-.01-.17v-.22c.01-.09.01-.24.01-.31-.04-.17-.01-.35-.01-.5v-.18c.01-.14.01-.26.01-.4h0s-.01-.01-.01-.05c-.01-.05-.08-.05.01-.27.01-.01,0-.06,0-.1-.04-.15-.05-.41-.01-.58.04-.14.03-.3-.01-.45h0c-.01-.05-.01-.1.01-.17v.03s.01-.03.01-.06h.01c-.05-.12-.05-.27-.04-.36.01-.06.01-.12,0-.18-.01-.14-.01-.26.03-.37,0-.06.01-.12.05-.15.04-.04.12-.09.18-.09.1,0,.23.13.23.24v.14s-.01.06-.01.1c0,.12,0,.19.01.23v.28s0,.06.01.09v.28c.01.05,0,.1-.04.15h-.01c0,.08.03.1.04.21.01.09.03.18.03.27,0,.04-.01.04-.01.08v.1s-.01.05-.01.09,0,.06-.01.08v.05s.04.08.04.12v.52h0Z"/>
      <path class="cls-2" d="M36.63,50.83c0-.09.04-.22.23-.22.05,0,.09,0,.12.01h.62s.08-.01.17-.01c.03-.01.06-.01.1-.01.05,0,.08.01.12.03.01,0,.04.01.05.01h.09s.05.01.1.01c.05-.03.1-.04.14-.04.01,0,.03.01.08.01h.05s.1-.01.15-.01h.14c.06,0,.12.01.17.03h.01s.09.01.09.01c0,0,.03-.01.04-.01.17,0,.26.13.26.24s-.1.22-.24.22h-.06s-.06-.03-.08-.03c-.03,0-.05.01-.09.03-.01,0-.04.01-.09.01-.04,0-.06-.01-.1-.03h-.06s-.01.01-.03.01h.01s-.09.01-.18.01-.14-.01-.15-.03h-.24s-.04-.01-.08-.01h-.08s-.06.03-.1.03c-.05,0-.08,0-.17-.01-.01,0,.03-.01-.01-.01-.01.01-.04.01-.06.01-.04,0-.06,0-.08-.01h-.04c-.05.04-.12.05-.19.05h-.06s-.04-.01-.05-.01h-.04s-.01.06-.01.1v.06s0,.04.01.05v.05s.01.1,0,.14c-.01.09-.01.17-.01.26v.5s0,.06.01.09c.01.05.03.1.03.17s-.01.1-.01.12c-.04.06-.04.05-.04.09.06.15.08.36.04.5.04,0,.09.01.14.01h.09c.09-.04.12-.04.21-.04.04,0,.04.01.08.01h.12s.08.01.13.01h.33c.09,0,.15,0,.21-.01.04,0,.04-.01.08-.01s.03.01.06.01h.09s.06.03.08.03c.05.01.1.04.14.05.09.04.14.09.15.13.01.09-.01.21-.23.24h.01s-.08.03-.17.03c-.04,0-.08-.01-.17-.03-.04,0-.08.01-.13.04h-.17s-.06-.01-.1-.01c-.03-.01-.05-.01-.09-.01s-.06,0-.08.01c-.05.01-.09.03-.18.03s-.17-.01-.23-.03c-.04,0-.06-.01-.1-.01h-.09s-.04.01-.08.01h-.1v.03c-.01.19-.01.36-.01.53v.24c.01.09.01.17.01.26,0,.05,0,.13-.01.17,0,.01-.01.03-.01.04v.05s.01.05.03.1v.09s.01.05.01.09c0,.05,0,.13-.01.17v.15c.01.06.01.21-.03.26h.01v.05h.14s.01.01.05.01c.01-.01.04-.01.09-.01.01,0,.01-.01.05-.01.05,0,.08.01.12.03.04,0,.12,0,.15-.01.01,0,.05-.01.09-.01.06,0,.1.01.13.03h.01s.03.01.03.01c0,0,.04-.01.08-.01.01,0,.03.01.08.01h.05c.1-.04.19-.03.29-.03h.29s.12-.01.15-.01.09.03.13.04h.03s.04-.04.08-.04c.12,0,.26.1.26.26,0,.14-.13.22-.24.22-.04,0-.08.01-.12.03-.01,0-.03.01-.06.01-.01,0-.01.01-.05.01-.06,0-.12-.01-.15-.04h-.05s-.03.01-.08.01-.15-.01-.19-.03c-.01,0-.04-.01-.05-.01h-.06s-.01.01-.05.01c-.06.03-.13.04-.19.04h-.1s-.09-.01-.1-.01c-.06-.01-.1-.03-.12-.03h-.09s-.06.01-.1.01c-.06.01-.15.01-.22.01h-.31c-.21,0-.31-.04-.36-.09-.04-.1-.06-.3-.05-.41v-.13c-.04-.14-.01-.24,0-.35.01-.06.03-.1.01-.14v-.08s-.03-.03.03-.19h-.01c-.01-.05-.05-.12-.01-.21.01-.09.01-.21-.01-.33v-.06c-.01-.12-.01-.22,0-.31.01-.04.01-.1.01-.17v-.22c-.01-.09-.01-.21-.01-.27v-.08s.01-.05.01-.09c.01-.03.01-.05.01-.08,0-.04,0-.06-.01-.09-.01-.05-.03-.1-.03-.15s0-.13.01-.17v-.18c-.01-.06-.04-.15,0-.24,0-.01,0-.04-.01-.06v-.15c0-.06,0-.1.01-.13,0-.04.01-.05.01-.06-.04-.12-.03-.23-.03-.35.01-.06.01-.14,0-.21-.04-.17.01-.36.03-.48,0-.01.01-.01.01-.05v-.06h0ZM37.06,53.59s0,.01.01.03c0,0,0,0-.01-.03Z"/>
      <path class="cls-2" d="M54,53.78s.01-.04.01-.04c-.01-.04-.03-.1-.03-.19v-.17s.01-.08.01-.12c.01-.09.01-.13.01-.19s0-.1-.01-.13c-.01-.09-.01-.18-.01-.3v-.09c0-.06-.01-.12.03-.18-.01-.04-.05-.09-.05-.18l.04-.14.03-.08c-.04-.09-.01-.19.03-.26v-.05c0-.12.05-.24.14-.36.06-.09.15-.18.22-.27l.09-.06h-.03c.06-.05.13-.1.32-.19h.04s.05-.03.06-.03c.06-.01.1-.04.13-.06.09-.05.14-.05.19-.05h.09c.05-.01.12-.04.17-.04.03,0,.05.01.06.03h-.01s.03-.01.03-.01c0,0,.08-.01.12-.01.05-.01.12-.03.18-.03.24,0,.53.01.82.1l.08.06h-.03l.04.03s.01-.01.03-.01h.01s.08.03.12.04h-.01s.08.04.1.08l.04.04h-.05s.03,0,.04,0c.08,0,.14.03.19.09.19.22.28.37.35.58l.04.15c.01.15,0,.26-.06.32-.05.05-.1.08-.17.08s-.1,0-.1-.01c-.14-.19-.15-.37-.15-.43.01-.06-.05-.14-.14-.23l-.08-.1h0s-.09-.04-.09-.04h.03s-.04-.03-.05-.03l-.09-.05-.13-.06h.01c-.06,0-.1-.03-.13-.06,0,0-.01,0-.04-.01-.09-.03-.19-.04-.31-.04-.09,0-.15,0-.24.01h-.17s-.09.01-.13.01c-.05,0-.13.01-.22.03-.01,0-.04.01-.05.01h-.04s-.09.03-.1.03c-.01.01-.04.03-.05.03-.06.04-.13.06-.21.06-.06.01-.13.08-.18.18v-.03s-.01.04-.01.05c-.04.05-.15.21-.14.19-.06.05-.06.13-.06.27s-.01.24-.05.32v.24s.01.04.01.05.01,0,.01.01c.01.04.03.13-.01.22-.01.05-.03.09-.03.1.04.09.05.19.04.28v.04c.01.06,0,.13-.01.19h-.01c.05.15.03.33-.01.4v.03c.01.05.01.13.01.18,0,.03-.01.05-.03.06l.03-.03c.04.06.05.14.01.21v.03s-.01.13-.01.13c0,.04.01.06.01.1.01.09.03.18.03.27,0,.12,0,.22.01.33h0c.01.05.01.12,0,.17,0,.03.01.05.03.06.09.09.09.12.1.17v.03h-.01c.06.05.09.1.13.17l.06.06s.08.01.12.04l.08.05h-.01c.12.04.21.05.36.09.14.04.31.05.49.05h.13s.06-.01.12-.01c.12-.01.23-.01.35-.05h.01l.06-.04s.03-.01.06-.01.03-.01.08-.01l.13-.04c.09-.06.22-.18.28-.3.09-.12.1-.23.12-.37h0c0-.08.04-.18.05-.28,0-.06,0-.12.01-.14h0c.04-.18.14-.21.23-.21.06,0,.09.01.14.05.09.09.09.22.08.41-.01.01-.01.04-.01.05.01.09,0,.21-.04.3,0,.01-.01.03-.01.04l-.05.12h.01c-.04.14-.1.22-.21.36l-.06.08-.17.22c-.05.04-.08.05-.13.05h-.01c-.04.05-.09.08-.13.09h.01l-.28.09-.12.03c-.12.04-.27.05-.41.05h-.06s-.04-.01-.05-.03h.01s-.05.03-.09.03h-.06c-.05.01-.13.01-.19.01s-.12-.01-.17-.03c-.04-.01,0-.01-.05-.01-.03.01-.06.01-.1.01-.08,0-.15-.03-.22-.06-.01,0-.03-.01-.06-.01-.17-.04-.31-.12-.45-.22-.22-.15-.38-.31-.49-.61-.04-.08-.05-.18-.05-.3,0-.04,0-.08-.01-.09l-.05-.12v-.4c-.01-.1-.01-.24,0-.33,0-.04.01-.06.01-.08.01-.09.04-.17,0-.26-.03-.06-.03-.13.01-.18Z"/>
      <path class="cls-2" d="M63.47,56.13s0-.08.06-.09c.01-.06.04-.15.05-.26,0-.04.01-.08.01-.12.04-.06.06-.12.08-.13l.03-.05s.01-.05.03-.14h0s.01-.01.01-.05c0-.06.01-.12.03-.17l.06-.08s.01-.01.03-.05v-.1c0-.09-.01-.13.03-.22.01-.06.05-.12.06-.21l.06-.24s.03-.09.06-.18h-.01c.04-.09.06-.19.08-.26.01-.09.04-.19.1-.31l.08-.18h-.01s.04-.17.04-.17l.05-.23.06-.13c.04-.06.08-.12.08-.21v-.05s0-.01.01-.03c.01-.04.04-.08.04-.09l.03-.13c0-.09.01-.1.03-.14h0s.08-.21.08-.21c.04-.06.04-.17.08-.27.01-.03.01-.05.01-.08.01-.12.05-.22.1-.3.04-.09.06-.17.08-.26,0-.04.01-.08.03-.13l.03-.08h-.01c.04-.09.15-.26.31-.24.19.04.31.35.32.5,0,.03.03.08.06.14l.05.1.08.24s.01.06.01.08c0,.03,0,.04.01.05.03.04.04.1.04.21,0,.04.01.09.05.15,0,.01.01.04.01.05s0,.01.01.03l.05.1h-.01c.04.08.09.17.1.26l.03.19s.01.1.03.19c.01.06.04.15.09.24l.08.21c.05.21.12.37.18.5v.04c.1.24.26.58.19.79,0,.09.05.21.1.26.09.1.08.21.09.32,0,.04.01.1.03.17l.08.21c.05.1.1.23.12.32,0,.01,0,.03.01.04.01.04.01.05.03.06.04.09.06.19,0,.3-.33.5-.59-.52-.63-.68-.04-.09-.05-.18-.05-.32h-.01s-.03-.05-.04-.09l-.03-.05v-.14c-.04-.06-.06-.13-.06-.18h0c-.09-.03-.17-.01-.26.03-.12.04-.21.05-.32.04-.05,0-.06-.01-.1-.03-.01-.01-.03-.01-.03-.01-.01,0-.03.01-.04.01-.04.01-.06.03-.1.03-.08.01-.15,0-.22-.04-.04.04-.03.04-.12.04-.04-.01-.08-.03-.1-.06-.04,0-.08.01-.09.01-.04,0-.09.01-.13.01-.05,0-.09,0-.12-.01-.04,0-.06-.01-.1-.01-.09-.04-.19-.08-.28-.04-.01.14-.06.27-.1.39l-.04.15-.05.17s-.03.09-.04.13c-.04.09-.04.17-.05.21,0,0-.01.03-.03.08-.08.22-.24.76-.52.41-.04-.09-.05-.15-.05-.21h0s0-.02,0-.02ZM64.75,54.38c.09-.01.19,0,.26.01.09.01.17.03.23.01h.13c.06,0,.09.04.14,0,.09-.04.18-.04.27,0,.01.01.06.01.15.01s.15-.01.24.03l-.03.04.04-.03c-.05-.14-.06-.23-.08-.37l-.04-.06-.04-.09s-.01-.09-.01-.1v-.06s-.01,0-.03-.04c-.03-.03-.04-.05-.04-.08l-.04-.17c-.01-.06-.04-.09-.05-.1-.04-.04-.06-.09-.08-.15l-.08-.46c-.01-.14-.06-.24-.1-.35l-.08-.15c-.09-.19-.12-.37-.17-.58-.01-.04-.04-.1-.05-.17v.04c.04.12-.08.31-.12.43l-.04.17c-.01.06-.03.13-.08.22h0c-.04.08-.05.15-.06.27-.01.1-.05.21-.09.3l-.05.08h.01s-.03.06-.03.08c0,.05.01.06-.03.15l-.05.08s-.04.04-.05.08c-.01.01-.01.06-.01.13,0,.09.01.17-.08.26h.01c-.06.09-.08.18-.09.3,0,.04-.01.08-.01.12s-.03.12-.06.17c-.01.01-.03.04-.04.1.05,0,.1-.04.17-.05l.14-.03h-.01Z"/>
      <path class="cls-2" d="M73.33,50.66c.05,0,.1.01.15.01h.15c.1,0,.22,0,.33-.01.04,0,.08,0,.1-.01.09-.01.15-.03.22-.01.01,0,.04.03.08.04.01.01.06.03.05.04.05-.05.15-.06.22-.06.13-.01.26-.01.37,0,.05,0,.13.01.18.01.1-.01.21-.01.32,0,.09.01.15.01.22.01.05,0,.09,0,.13-.01.05,0,.13-.01.18-.01.22.01.33.09.35.23.04.14-.08.23-.17.28h-.47c-.1-.05-.28-.05-.33-.05-.03,0-.05-.01-.06-.03-.01,0-.04,0-.05.01l-.12.04c-.06.01-.12.03-.15.03-.03,0-.05-.01-.09-.03h.01s-.01.01-.01.01v.06c0,.05-.01.13-.01.19-.01.14-.03.26.03.32.06.12.01.18,0,.27v.05c0,.05,0,.09.01.12.01.05.03.12-.01.22v.15c0,.05,0,.12-.01.18-.01.06,0,.13.03.21,0,.04.01.05.01.09.03.23.03.48,0,.74-.01.09-.04.22,0,.36.01.09,0,.17-.01.26-.01.04-.01.08-.01.13v.21c0,.09.01.15.01.22.01.12,0,.21-.01.31-.01.06-.03.1-.03.12,0,.03.01.05.03.09.01.04.03.05-.03.15h.01s0,.03.01.06c.04.12.03.21.03.32v.06c.01.21.06.39-.23.4-.21.04-.23-.04-.23-.23,0-.04,0-.06-.01-.09-.01-.09-.03-.18-.03-.28,0-.04.01-.06.01-.1.01-.12.01-.18,0-.22-.04-.12-.04-.14,0-.23l.04-.08h-.01c.04-.05.01-.14-.03-.24-.01-.04-.01-.12-.01-.17v-.4c0-.09,0-.14.01-.17h0c.01-.08.03-.17.03-.21,0-.01-.01,0-.01-.04-.04-.12-.03-.18-.03-.32s0-.33.01-.48c0-.01-.01-.01-.01-.05,0-.05-.03-.08.03-.17h0s.01-.03.03-.01c-.04-.12-.05-.22-.03-.3.01-.03.01-.05.01-.08l-.03-.05v-.04s-.01-.05-.01-.09v-.06c-.04-.14-.01-.32,0-.47.01-.06.03-.12.01-.17,0-.04-.01-.08-.01-.12,0-.06.01-.12.03-.14h0c-.06-.1-.03-.18-.01-.27h0c-.14-.01-.33-.04-.45-.05-.06-.01-.1-.03-.12-.03-.12-.01-.26,0-.37.04h.01c-.12.03-.23.04-.35.04-.14,0-.22-.15-.23-.24-.04-.15.05-.27.15-.27h.19Z"/>
      <path class="cls-2" d="M82.23,50.83c0-.09.04-.22.23-.22.05,0,.09,0,.12.01h.62s.08-.01.17-.01c.03-.01.06-.01.1-.01.05,0,.08.01.12.03.01,0,.04.01.05.01h.09s.05.01.1.01c.05-.03.1-.04.14-.04.01,0,.03.01.08.01h.05s.1-.01.15-.01h.14c.06,0,.12.01.17.03h.01s.09.01.09.01c0,0,.03-.01.04-.01.17,0,.26.13.26.24s-.1.22-.24.22h-.06s-.06-.03-.08-.03c-.03,0-.05.01-.09.03-.01,0-.04.01-.09.01-.04,0-.06-.01-.1-.03h-.06s-.01.01-.03.01h.01s-.09.01-.18.01-.14-.01-.15-.03h-.24s-.04-.01-.08-.01h-.08s-.06.03-.1.03c-.05,0-.08,0-.17-.01-.01,0,.03-.01-.01-.01-.01.01-.04.01-.06.01-.04,0-.06,0-.08-.01h-.04c-.05.04-.12.05-.19.05h-.06s-.04-.01-.05-.01h-.04s-.01.06-.01.1v.06s0,.04.01.05v.05s.01.1,0,.14c-.01.09-.01.17-.01.26v.5s0,.06.01.09c.01.05.03.1.03.17s-.01.1-.01.12c-.04.06-.04.05-.04.09.06.15.08.36.04.5.04,0,.09.01.14.01h.09c.09-.04.12-.04.21-.04.04,0,.04.01.08.01h.12s.08.01.13.01h.33c.09,0,.15,0,.21-.01.04,0,.04-.01.08-.01s.03.01.06.01h.09s.06.03.08.03c.05.01.1.04.14.05.09.04.14.09.15.13.01.09-.01.21-.23.24h.01s-.08.03-.17.03c-.04,0-.08-.01-.17-.03-.04,0-.08.01-.13.04h-.17s-.06-.01-.1-.01c-.03-.01-.05-.01-.09-.01s-.06,0-.08.01c-.05.01-.09.03-.18.03s-.17-.01-.23-.03c-.04,0-.06-.01-.1-.01h-.09s-.04.01-.08.01h-.1v.03c-.01.19-.01.36-.01.53v.24c.01.09.01.17.01.26,0,.05,0,.13-.01.17,0,.01-.01.03-.01.04v.05s.01.05.03.1v.09s.01.05.01.09c0,.05,0,.13-.01.17v.15c.01.06.01.21-.03.26h.01v.05h.14s.01.01.05.01c.01-.01.04-.01.09-.01.01,0,.01-.01.05-.01.05,0,.08.01.12.03.04,0,.12,0,.15-.01.01,0,.05-.01.09-.01.06,0,.1.01.13.03h.01s.03.01.03.01c0,0,.04-.01.08-.01.01,0,.03.01.08.01h.05c.1-.04.19-.03.29-.03h.3s.12-.01.15-.01.09.03.13.04h.03s.04-.04.08-.04c.12,0,.26.1.26.26,0,.14-.13.22-.24.22-.04,0-.08.01-.12.03-.01,0-.03.01-.06.01-.01,0-.01.01-.05.01-.06,0-.12-.01-.15-.04h-.05s-.03.01-.08.01-.15-.01-.19-.03c-.01,0-.04-.01-.05-.01h-.06s-.01.01-.05.01c-.06.03-.13.04-.19.04h-.1s-.09-.01-.1-.01c-.06-.01-.1-.03-.12-.03h-.09s-.06.01-.1.01c-.06.01-.15.01-.22.01h-.31c-.21,0-.31-.04-.36-.09-.04-.1-.06-.3-.05-.41v-.13c-.04-.14-.01-.24,0-.35.01-.06.03-.1.01-.14v-.08s-.03-.03.03-.19h-.01c-.01-.05-.05-.12-.01-.21.01-.09.01-.21-.01-.33v-.06c-.01-.12-.01-.22,0-.31.01-.04.01-.1.01-.17v-.22c-.01-.09-.01-.21-.01-.27v-.08s.01-.05.01-.09c.01-.03.01-.05.01-.08,0-.04,0-.06-.01-.09-.01-.05-.03-.1-.03-.15s0-.13.01-.17v-.18c-.01-.06-.04-.15,0-.24,0-.01,0-.04-.01-.06v-.15c0-.06,0-.1.01-.13,0-.04.01-.05.01-.06-.04-.12-.03-.23-.03-.35.01-.06.01-.14,0-.21-.04-.17.01-.36.03-.48,0-.01.01-.01.01-.05v-.06h0ZM82.65,53.59s0,.01.01.03c0,0,0,0-.01-.03Z"/>
      <path class="cls-2" d="M91.01,50.65h.1s.14-.03.21-.04c.08,0,.14.01.19.03.04.01.06.01.1.01.05,0,.13,0,.22-.01h.14s.08-.01.12-.01h.33c.05,0,.13.03.22.06.04.03.08.04.13.04.12,0,.22.06.31.15l.13.06c.1.06.17.12.21.17h0s.05.08.05.08c.04.04.08.12.12.15.05.1.05.14.05.24,0,0,0,.01.01.05.01.04.04.12.03.18-.01.05,0,.13.01.22,0,.04.01.06.01.1.01.01.01.03.01.03,0,.04-.01.04-.01.08v.06l-.03.06s.01-.01.01,0c.01.05.03.13-.01.22h.01s-.01.06,0,.13v.06s.01.05.01.12c0,.01-.01.03-.01.06,0,.05,0,.12.01.18h0c.04.15,0,.28-.04.43h0s-.01.04-.01.08c-.01.01-.01.04-.01.06-.01.06-.03.09-.08.23l-.1.15h0c-.21.32-.46.46-.73.53l.05.08s0,.04.01.04c.04.04.08.1.12.22l.03.05v-.03l.05.1.06.12h-.01s.19.39.19.39l.18.39.04.12c.03.06.04.14.04.21-.04.09-.1.14-.19.14s-.22-.08-.26-.17c0,.01-.01,0-.03-.03-.01-.03-.03-.06-.06-.12l-.05-.14s-.01-.04-.04-.05c-.09-.05-.08-.13-.08-.22-.09-.09-.09-.14-.15-.24l-.06-.14c-.04-.1-.06-.17-.08-.21-.1-.09-.13-.22-.19-.36-.01-.01-.01-.03-.01-.04h0s-.01-.03-.01-.04h-.1s-.05-.01-.09-.01c-.01-.01-.04-.01-.06-.01s-.05,0-.06.01h-.06s-.05.01-.1.01h-.05s-.05-.01-.06-.01c-.01-.01-.03-.01-.04-.01-.05.01-.09.03-.13.03s-.1-.03-.14-.04h-.01s-.04.03-.06.03l-.04.12s.01.05.01.06c0,.04.01.04.01.13s0,.14-.01.18v.23s.01.06.01.08v.08s-.03.01-.03.05v.08s0,.04.01.05c0,.01,0,.1-.01.15v.03s0,.04,0,.04c.01.04.01.08.01.12v.14c0,.17-.08.24-.24.24-.15,0-.24-.14-.24-.24v-.13s-.01-.04-.01-.08v-.05c0-.06.01-.12.03-.17v-.03s.01-.03.01-.06c0-.01-.01-.03-.01-.08v-.06c0-.09,0-.15.01-.21.01-.01,0-.06-.01-.13v-.08c-.01-.09-.05-.21-.01-.26.05-.1.04-.18.03-.27-.01-.09-.03-.22-.01-.32.01-.04.01-.08,0-.13-.01-.12-.04-.26.05-.41h-.01s-.01,0-.01-.01v.03c-.01-.06-.06-.13.03-.28-.01.01-.03-.03-.03-.06,0-.01-.01-.03-.01-.06v-.06c0-.09,0-.15-.01-.24,0-.04-.01-.08-.01-.13v-.14s0-.08.04-.18h-.01s.01-.04.01-.06c0-.04,0-.06-.01-.08,0,0,0,0-.01-.01v-.03c-.01-.09-.04-.15,0-.24.03-.05.03-.13.01-.22,0-.04-.01-.05-.01-.09s-.01-.03-.01-.06v-.05c-.01-.09,0-.17.01-.26.01-.1.03-.19-.03-.28v-.04s.01-.05.01-.09v-.06s.03,0,.04.01c-.06-.12-.06-.21,0-.27.04-.06.12-.1.22-.1h0ZM91.14,50.65s.05-.01.08-.03c-.05.01-.08.03-.08.03ZM91.23,52.2s.01.08.01.14v.74c-.01.12-.01.22,0,.32h0c.01.08,0,.18,0,.3-.01.09-.03.13-.01.19v-.03c.01.09.01.17,0,.22h-.03l.04.15h.37s.04-.01.05-.01h.08s.01-.01.05-.01.05-.01.06-.01c.04,0,.04.01.08.01h.1s.05.01.09.01c.12,0,.27-.03.44-.06.03-.01.06-.01.13-.01.01,0,.03-.01.04-.01.03,0,.06-.01.1-.04.01,0,.04-.01.05-.05l.04-.04c.09-.08.17-.18.23-.3,0-.01.01-.03.01-.06,0-.01.01-.04.01-.1s.01-.13.03-.18c.01-.06.03-.1.03-.12,0-.05-.01-.1-.01-.14v-.36s0-.06-.01-.1v-.14s.01-.05.01-.09v-.13s.03-.04.03-.08c-.01-.12-.01-.24-.05-.39,0-.01-.01-.03-.01-.06l-.03-.17s-.01-.03-.1-.09c0,0-.01-.03-.03-.09-.04-.06-.12-.13-.18-.17l-.15-.04s-.06-.03-.08-.03c-.04-.01-.08-.03-.14-.03-.04,0-.03-.01-.06-.01-.06,0-.13-.01-.18-.03h-.13s-.03.01-.06.01c-.01,0-.03-.01-.04-.01h-.3c-.05,0-.09.01-.13.01h-.13c-.05,0-.1.01-.14.01h-.06c0,.09-.01.15-.01.19v.21c.01.09.01.22.01.31h0c0,.1.01.17-.03.27,0,.04,0,.06.01.08h0s0,0,0,0Z"/>
      <path class="cls-2" d="M99.53,51.4c.03-.09.04-.15.03-.21,0-.04-.01-.1-.01-.15.01-.1.04-.26.15-.35.27-.19.3.04.33.22,0,.04.01.05.01.06.01.05,0,.12-.01.18,0,.01-.01.01-.01.03v.18c0,.14-.01.26.03.4.01.12.03.26-.01.4,0,.03-.01.05-.03.06-.01.01-.01.03-.01.04h0c.04.05.05.09.05.14.01.14-.01.26-.03.37-.01.04-.01.08-.01.12v.35s0,.08.01.13c.01.04.01.12.01.17v.37c-.01.14,0,.28.01.43,0,.09-.01.15-.03.22-.01.04-.01.1-.01.17-.01.26,0,.52.01.76,0,.01.01.06.03.13.01.09.05.12.01.26-.04.04-.12.18-.08.22.12.24,0,.46-.3.32-.22-.1-.15-.26-.09-.42h-.01s-.01-.06-.03-.13c-.01-.03-.01-.05-.01-.06-.01-.09-.01-.18,0-.27,0-.04.01-.08.01-.12v-.92s.01-.1.01-.14c.01-.05.01-.1,0-.17h0c-.05-.23-.09-.57-.03-.76.05-.12.03-.19.01-.3-.04-.14-.03-.24.01-.4.04-.12.03-.28.01-.4-.01-.14-.01-.27,0-.41,0-.06-.01-.12-.04-.17-.04-.12-.09-.22,0-.36h-.01Z"/>
      <path class="cls-2" d="M109.08,53.68c0,.06-.01.12-.03.15-.01.04-.01.06-.01.09v.03s.04.06.04.1-.01.04-.01.09v.05c0,.09-.01.17-.01.26v1.51c0,.05,0,.09-.01.1v.05s.03.08.03.12c0,.17-.12.23-.21.23-.1,0-.21-.1-.26-.19l-.03-.05s-.06-.09-.08-.13h-.01s-.04-.08-.04-.08c-.04-.05-.05-.09-.05-.12h0s-.04-.09-.04-.09l-.14-.31s-.01-.03-.04-.05c-.09-.05-.09-.15-.13-.22l-.06-.13-.04-.09h0s-.01-.05,0-.04h.01c-.09-.06-.12-.17-.17-.27l-.05-.06c-.04-.06-.08-.13-.09-.22l-.03-.04s-.03-.04-.03-.05h-.01c-.04-.05-.05-.08-.06-.17l-.06-.06-.08-.13s-.01-.03-.03-.06l-.03-.06v.04c-.03-.06-.03-.1-.03-.15,0-.01-.01.01-.01-.03-.04-.06-.08-.18-.12-.24l-.03-.04v.04c-.03-.05-.06-.12-.1-.21h.01s-.09-.14-.09-.14h0c-.09-.1-.14-.22-.18-.39-.01-.1-.12-.27-.18-.36-.09-.09-.1-.13-.12-.18v-.05s-.03-.04-.03-.05c-.03-.03-.04-.05-.04-.06l-.08-.21s-.01.01-.01.03h0s-.01.04-.01.05v.28l.03.09c.01.06.06.15-.03.31h.01s.01.13.01.17c-.01.09-.03.17-.03.23,0-.01-.01-.01-.01-.03.01.01.03.04.03.06,0,.05,0,.12.01.18.01.09,0,.14-.01.23v.05c.01.1.01.22.01.32-.01.06-.01.13,0,.19.01.14.01.28,0,.41v.18c0,.06,0,.17-.01.26v.24s0,.12-.01.15v.15s.01.03.01.06c0,.01.01.01.01.03.01.06.03.12.01.18v.17c.01.1.03.24-.01.39-.01.1-.05.26-.24.26-.05,0-.1.01-.15-.08-.09-.09-.09-.22-.09-.39,0-.19,0-.33-.01-.49,0-.09.01-.17.04-.24h0s0-.05.01-.06c0-.04,0-.08-.01-.1-.01-.04-.03-.09-.03-.15s.01-.12.03-.17v-.03s.01-.03.01-.06c0,0-.01-.03-.03-.08-.01-.03-.01-.09-.01-.18,0-.05,0-.13.01-.17h0s.01-.05.01-.12c0,0,0,0-.01-.03-.04-.09-.04-.21.01-.32h-.01s-.03-.05-.03-.13c0-.04,0-.08.04-.18h-.01s.03-.06.03-.08v-.24l-.03-.08s-.01-.01-.01-.05c-.01-.05-.03-.14.01-.24.01-.06.03-.1.01-.14v-.21s.01-.03.01-.04c-.04-.09-.03-.17-.03-.26v-.08c.01-.06,0-.14-.01-.21h.01c-.06-.13-.01-.15,0-.27v-.03s0-.04.01-.05c0-.05,0-.09-.01-.13h0s-.01-.05-.01-.06c0-.04.01-.04.01-.08v-.08s.03.01.01-.03c-.05-.09-.05-.28,0-.37.05-.09.1-.14.17-.15.12,0,.15.04.26.14l.1.13s.01.06.01.12v.03l.12.19h0s.06.09.06.09c.04.08.05.13.05.14l.04.04c.04.05.06.12.08.17,0,.01.01.04.04.06.04.04.03.04.06.13l.03.1s.01,0,.01.01c0,.04.01.06.01.05.09.09.17.21.21.35.04.09.04.1.09.19l.03.05c.04.06.08.13.09.22h.01s.01.04.03.05c.04.04.06.08.08.18h.01c.04.05.08.13.12.23,0,0,0,0,.03.01,0,0,.01.04.03.06.01.04.04.1.05.14v.03s.08.06.08.06c.05.05.04.09.05.14h-.01s.06.08.06.08l.09.13s.03.06.03.15l.04.06.05.09c.06.09.13.18.13.27l.08.14c.09.09.13.21.17.27.03.09.06.18.1.24l.04.08v-.03s-.01-.12-.01-.17v-.22c.01-.09.01-.24.01-.31-.04-.17-.01-.35-.01-.5v-.18c.01-.14.01-.26.01-.4h0s-.01-.01-.01-.05c-.01-.05-.08-.05.01-.27.01-.01,0-.06,0-.1-.04-.15-.05-.41-.01-.58.04-.14.03-.3-.01-.45h0c-.01-.05-.01-.1.01-.17v.03s.01-.03.01-.06h.01c-.05-.12-.05-.27-.04-.36.01-.06.01-.12,0-.18-.01-.14-.01-.26.03-.37,0-.06.01-.12.05-.15.04-.04.12-.09.18-.09.1,0,.23.13.23.24v.14s-.01.06-.01.1c0,.12,0,.19.01.23v.28s0,.06.01.09v.28c.01.05,0,.1-.04.15h-.01c0,.08.03.1.04.21.01.09.03.18.03.27,0,.04-.01.04-.01.08v.1s-.01.05-.01.09,0,.06-.01.08v.05s.04.08.04.12v.52h0Z"/>
      <path class="cls-2" d="M115.59,56.25c-.08-.04-.13-.09-.15-.13-.01-.01-.05-.03-.05-.04-.01,0-.04-.03-.05-.03s-.03-.01-.06-.05c-.1-.12-.18-.26-.22-.4h.01s-.12-.21-.12-.21c-.09-.15-.06-.39-.05-.48.01-.08.01-.17-.03-.28-.01-.09-.03-.24.01-.36.01-.01.01-.04.01-.05-.01-.01-.01-.06-.01-.15v-.09c.01-.14.04-.27,0-.42-.04-.09-.04-.19-.01-.31.01-.06.03-.13.01-.18-.01-.14-.01-.31,0-.45v-.19c-.01-.1-.01-.19,0-.27v-.03s.01-.04.01-.05v-.03c-.01-.05-.01-.14-.01-.23.03-.06.05-.1.08-.13h0c0-.06,0-.13.06-.22.01-.04.04-.05.05-.09,0,0,.01-.01.03-.05.01-.05.01-.1.01-.09.09-.12.26-.31.36-.32l.09-.06s.1-.08.17-.09c.06-.01.12-.04.18-.08h.01c.14-.05.18-.05.22-.05h.18c.1-.04.15-.04.22-.04.04,0,.06,0,.09-.01.03-.01.08-.01.14-.01s.13.01.18.03c.01,0,.04.01.05.01h.08c.14,0,.28,0,.42.09.04.01.08.03.12.03.09.04.15.04.26.13l.13.1.12.12c.1.09.22.22.26.36,0,.03.01.05.03.06h0s.08.1.08.24v.03s0,.04.01.05h-.01c.04.05.04.1.04.19,0,.06-.01.12-.05.15-.05.05-.12.08-.19.08-.06,0-.13-.01-.17-.05-.05-.05-.05-.1-.05-.17s-.01-.14-.03-.23h0c-.04-.14-.15-.27-.26-.41h0s-.05-.04-.05-.04h.03c-.15-.15-.44-.23-.63-.27h-.31s-.04.01-.08.01-.06,0-.08-.01h-.05s-.04,0-.05.01h-.06c-.05,0-.09,0-.13-.01h.03s0-.01-.01-.01l-.1.03c-.06.04-.17.08-.26.08l-.08.04s-.01,0-.03.01c-.01.01-.04.03-.06.03-.01.01-.05.01-.1.01h0s-.01.04-.01.04l-.1.09s-.08.06-.12.14l-.04.08s0,.04-.01.05l-.06.09v.03s0,.06-.01.1v.12s-.01.04-.01.08c-.01.04-.03.09-.04.14-.01.04-.01.06-.03.09l.03-.03s.01.04.01.09v.14s-.01.05,0,.06c.01.06.03.13.01.19v.22c0,.09.01.19-.03.31,0,.01.01.03.01.04.01.05.03.1.03.15,0,.06-.01.13-.03.18,0,.01-.01.04-.01.05v.06l.03.22v.15c0,.05.01.08.01.12s-.01.05-.01.09c0,.01-.01.03-.01.04h0s0,.03.01.04c0,.01.01.05.01.09,0,.01-.01.05-.03.1-.01,0-.03,0-.03.01h.01s.01.01.01.03c.01.05.04.12,0,.21h.01c-.06.15.01.35.1.52,0-.01.01,0,.03.05h-.01c.09.14.21.37.3.39l.23.06h-.01s.13.03.13.03h-.01c.09.01.14.03.18.03s.06.01.1.01h.18c.12,0,.23.01.33.05.03,0,.05-.01.09-.03.04,0,.06-.01.1-.01l.1-.03h.1s.01-.01.03-.01h.05s.01,0,.03-.01c.09-.06.15-.08.21-.08h.01c.04-.06.09-.1.15-.12,0,0,0,0,.03-.01l.09-.1h.01v-.05c.01-.05.03-.09.09-.15.09-.09.09-.27.09-.42.01-.04.01-.06.01-.1v-.05s.01-.04.01-.08v-.35c-.01-.09-.03-.14-.01-.18.01-.04.01-.08.01-.13v-.04c-.12.01-.18.01-.29.01h-.42c-.05,0-.09.01-.13.01h-.13s-.27-.01-.33-.17h0c-.04-.06-.04-.14,0-.22.05-.09.14-.14.27-.14.06,0,.13.01.19.04h.1s.03-.01.04-.01.03.01.04.01h.06s.06.01.15-.03h.06c.05,0,.1.01.15.03h.03s.06.01.06.01c.04,0,.08,0,.1-.01h.14s.04-.01.05-.01h.08c.19,0,.26.13.26.23,0,.05-.01.09-.04.13,0,0,0,0,.01.03.01.03.01.06.01.1,0,.05,0,.13-.01.17,0,0,0,0-.01.03v.04s0,.06.01.08c.01.09.05.21.01.3-.01.05-.03.1-.03.15.01.05.03.1.03.14l-.04.13s-.03.06-.03.1c0,.12-.04.26-.08.35,0,0,0,0-.01.03h0c-.05.13-.1.22-.14.28v-.05s0,.03,0,.04l-.03.04s-.01.01-.01.03c-.01.01-.01.03-.01.03l-.05.06h0c-.14.15-.27.22-.41.27-.01,0-.03.01-.04.03l-.12.03h.01s-.08.01-.08.01l-.12.04-.1.03h.03l-.12.04s-.06.03-.15.03h-.06s-.04-.01-.05-.01h-.06s-.04-.01-.05-.01c-.01,0-.06.01-.13.03h-.12s-.06.01-.15.01c-.06,0-.1-.01-.14-.04h-.01s-.09-.01-.09-.01c-.05,0-.09,0-.1-.01-.04,0-.08-.01-.12-.03-.04,0-.04-.03-.05-.03h-.08c-.05,0-.09,0-.1-.01l-.13-.05-.05-.04h0ZM115.1,51.24s0-.01.01-.01h-.01ZM115.34,54.39v.03s0,0,0-.03ZM118.54,53.9s0,.01.01.01h0s-.01-.01-.01-.01Z"/>
    </g>
  </g>
</svg>