<svg width="48" height="48" viewBox="0 0 48 48" fill="none" xmlns="http://www.w3.org/2000/svg">
<g clip-path="url(#clip0_268_229)">
<path d="M15.9677 36.1935V35.3226H18.9252V12.4219H15.9677V11.551H25.56V12.4219H22.6026V35.3226H27.1548C28.4245 35.3226 29.4542 35.1794 30.2439 34.8968C31.0335 34.6142 31.6413 34.1923 32.0671 33.631C32.4929 33.0735 32.791 32.3884 32.9613 31.5794C33.1316 30.7703 33.2323 29.8452 33.2632 28.8039H34.1497V36.1974H15.9639L15.9677 36.1935Z" fill="#2E453D"/>
<path d="M48 22.3316V48H0V35.1639H3.33677V44.6632H44.6632V25.6684H37.7342V22.3316H48Z" fill="#2E453D"/>
<path d="M48 0V12.8361H44.6632V3.33677H3.33677V22.3316H11.2955V25.6684H0V0H48Z" fill="#2E453D"/>
</g>
<defs>
<clipPath id="clip0_268_229">
<rect width="48" height="48" fill="white"/>
</clipPath>
</defs>
</svg>
