<svg width="190" height="95" viewBox="0 0 190 95" fill="none" xmlns="http://www.w3.org/2000/svg">
<g clip-path="url(#clip0_268_302)">
<path d="M82.3818 37.7V36.7909H85.4901V12.9409H82.3818V12.0364H92.4629V12.9409H89.3547V36.7955H94.1362C95.4703 36.7955 96.5522 36.6455 97.382 36.35C98.2117 36.0546 98.849 35.6136 99.2982 35.0318C99.7475 34.45 100.059 33.7364 100.238 32.8909C100.417 32.0455 100.522 31.0818 100.559 30H101.49V37.7H82.3818Z" fill="#FCFBF9"/>
<path d="M116.036 23.2636V50H65.6074V36.6318H69.1145V46.5227H112.529V26.7364H105.249V23.2636H116.036Z" fill="#FCFBF9"/>
<path d="M116.036 0V13.3682H112.529V3.47727H69.1145V23.2636H77.4718V26.7364H65.6074V0H116.036Z" fill="#FCFBF9"/>
<path d="M0 94.5227V93.6636H2.99819V70.6H0V69.7409H10.3653V70.6H7.38087V93.6636H11.3785C12.6346 93.6636 13.6706 93.5182 14.4958 93.2273C15.3164 92.9364 15.972 92.5091 16.4625 91.9455C16.9531 91.3818 17.3107 90.6955 17.5445 89.8818C17.7783 89.0682 17.9341 88.1364 18.0121 87.0909H18.8969V94.5273H0V94.5227Z" fill="#FCFBF9"/>
<path d="M20.978 94.5227V93.6636H24.6455V70.6H20.978V69.7409H33.0075V70.6H29.0099V93.6636H33.0075V94.5227H20.978Z" fill="#FCFBF9"/>
<path d="M53.2017 69.7409V76.5136H52.3352C52.2343 75.3364 51.9776 74.3045 51.5696 73.4136C51.157 72.5273 50.5519 71.8364 49.7542 71.3409C48.9565 70.8454 47.9204 70.5954 46.6551 70.5954H42.355V93.6591H45.6695V94.5182H34.9741V93.6591H37.9723V70.5954H34.9741V69.7364H53.2017V69.7409ZM47.5353 86.0636C47.4345 85.3273 47.2236 84.7 46.9027 84.1864C46.5818 83.6727 46.1325 83.2864 45.5549 83.0227C44.9773 82.7591 44.2392 82.6273 43.3406 82.6273H41.1585V81.7682H43.3406C44.2392 81.7682 44.9773 81.65 45.5549 81.4136C46.1325 81.1773 46.5818 80.8182 46.9027 80.3409C47.2236 79.8636 47.4345 79.2545 47.5353 78.5136H48.4201V86.0636H47.5353Z" fill="#FCFBF9"/>
<path d="M55.6359 94.5227V93.6636H58.6341V70.6H55.6359V69.7409H74.3127V76.5136H73.4279C73.3271 75.3364 73.0566 74.3045 72.6119 73.4136C72.1672 72.5273 71.5208 71.8364 70.6773 71.3409C69.8338 70.8455 68.761 70.5955 67.4637 70.5955H63.0122V93.6591H67.1107C68.6327 93.6591 69.8613 93.4 70.8011 92.8818C71.7409 92.3636 72.4423 91.6182 72.9099 90.6409C73.3775 89.6636 73.6618 88.4818 73.758 87.0818H74.6245V94.5182H55.6313L55.6359 94.5227ZM68.0642 85.6182C67.9634 84.8818 67.7433 84.2545 67.3995 83.7364C67.0556 83.2182 66.6247 82.8227 66.1067 82.5455C65.5886 82.2682 65.0156 82.1364 64.3829 82.15H62.3979V81.2727H64.3829C65.0156 81.2727 65.5886 81.15 66.1067 80.9C66.6247 80.6545 67.0556 80.2818 67.3995 79.7864C67.7433 79.2909 67.9679 78.6727 68.0642 77.9364H68.949V85.6182H68.0642Z" fill="#FCFBF9"/>
<path d="M87.1811 95C85.8791 95 84.7422 94.7955 83.7566 94.3818C82.7755 93.9682 81.9274 93.4136 81.2168 92.7227L79.1172 94.8545H78.3516V87.4682H79.218C79.4747 88.3364 79.814 89.1682 80.2357 89.9636C80.6575 90.7545 81.1801 91.4636 81.8036 92.0864C82.4271 92.7091 83.1606 93.2 84.0041 93.5636C84.8476 93.9273 85.8149 94.1091 86.9014 94.1091C87.9879 94.1091 88.9507 93.9227 89.7529 93.5545C90.5506 93.1864 91.1695 92.6636 91.6004 91.9864C92.0314 91.3091 92.2514 90.4909 92.2514 89.5318C92.2514 88.5727 92.0085 87.8318 91.5271 87.2045C91.0457 86.5773 90.4085 86.0364 89.62 85.5864C88.8315 85.1364 87.965 84.7091 87.0206 84.3136C86.0763 83.9182 85.1273 83.4955 84.1783 83.0409C83.2293 82.5909 82.3583 82.0545 81.5698 81.4318C80.7813 80.8091 80.1486 80.0455 79.6719 79.1455C79.1951 78.2455 78.9567 77.1364 78.9567 75.8227C78.9567 74.5091 79.2822 73.3773 79.9378 72.4091C80.5933 71.4455 81.4689 70.7045 82.56 70.1864C83.6557 69.6682 84.8522 69.4091 86.1496 69.4091C87.1719 69.4091 88.1255 69.5727 89.0057 69.8955C89.8905 70.2227 90.6744 70.7045 91.3621 71.3409L93.4296 69.4091H94.1631V76.5955H93.2967C92.9391 75.2636 92.444 74.1318 91.8067 73.2C91.1695 72.2682 90.3993 71.5636 89.5008 71.0773C88.6023 70.5909 87.5845 70.35 86.4522 70.35C85.031 70.35 83.9399 70.6818 83.1789 71.3409C82.4179 72 82.0374 72.8864 82.0374 74C82.0374 74.8273 82.2758 75.5273 82.7526 76.1045C83.2293 76.6818 83.862 77.1909 84.6459 77.6227C85.4299 78.0591 86.2917 78.4727 87.2269 78.8682C88.1667 79.2636 89.102 79.7 90.0418 80.1727C90.9816 80.6455 91.8434 81.2091 92.6228 81.8591C93.4067 82.5091 94.0348 83.2954 94.5161 84.2227C94.9929 85.15 95.2313 86.2773 95.2313 87.6091C95.2313 89.1091 94.8875 90.4091 94.1998 91.5182C93.5121 92.6273 92.5632 93.4818 91.3483 94.0864C90.138 94.6909 88.749 94.9955 87.1811 94.9955V95Z" fill="#FCFBF9"/>
<path d="M102.296 94.5227V93.6636H105.963V70.6H103.447C102.525 70.6 101.75 70.7636 101.131 71.0864C100.508 71.4091 100.008 71.8727 99.6232 72.4727C99.2381 73.0727 98.9493 73.7954 98.7476 74.6364C98.5459 75.4773 98.4129 76.4227 98.3487 77.4682H97.4502V69.7364H118.827V77.4682H117.961C117.883 76.4227 117.745 75.4773 117.544 74.6364C117.342 73.7954 117.053 73.0727 116.668 72.4727C116.283 71.8727 115.783 71.4091 115.16 71.0864C114.536 70.7636 113.766 70.6 112.845 70.6H110.328V93.6636H113.977V94.5227H102.296Z" fill="#FCFBF9"/>
<path d="M132.232 94.85C130.49 94.85 128.931 94.5273 127.565 93.8773C126.199 93.2273 125.039 92.3227 124.081 91.1682C123.123 90.0136 122.403 88.6636 121.908 87.1227C121.413 85.5818 121.166 83.9182 121.166 82.1318C121.166 80.3455 121.427 78.6864 121.949 77.1409C122.472 75.5955 123.219 74.25 124.2 73.0954C125.177 71.9409 126.346 71.0364 127.698 70.3864C129.055 69.7364 130.564 69.4136 132.232 69.4136C133.901 69.4136 135.391 69.7364 136.748 70.3864C138.105 71.0364 139.269 71.9409 140.246 73.0954C141.222 74.25 141.974 75.6 142.497 77.1409C143.019 78.6818 143.281 80.3455 143.281 82.1318C143.281 83.9182 143.033 85.5818 142.538 87.1227C142.043 88.6636 141.319 90.0136 140.365 91.1682C139.411 92.3227 138.247 93.2273 136.881 93.8773C135.515 94.5273 133.965 94.85 132.232 94.85ZM132.232 94.0409C133.498 94.0409 134.529 93.7318 135.322 93.1091C136.115 92.4864 136.725 91.6273 137.156 90.5318C137.582 89.4364 137.876 88.1682 138.031 86.7227C138.187 85.2818 138.265 83.75 138.265 82.1318C138.265 80.5136 138.169 78.9818 137.981 77.5409C137.793 76.1 137.472 74.8273 137.023 73.7318C136.574 72.6364 135.959 71.7773 135.18 71.1545C134.401 70.5318 133.42 70.2227 132.232 70.2227C131.045 70.2227 130.055 70.5318 129.266 71.1545C128.478 71.7773 127.859 72.6364 127.419 73.7318C126.974 74.8273 126.658 76.0954 126.47 77.5409C126.282 78.9818 126.185 80.5136 126.185 82.1318C126.185 83.75 126.263 85.2818 126.419 86.7227C126.575 88.1636 126.869 89.4364 127.295 90.5318C127.721 91.6273 128.331 92.4864 129.129 93.1091C129.922 93.7318 130.958 94.0409 132.237 94.0409H132.232Z" fill="#FCFBF9"/>
<path d="M152.078 82.0818V81.5682H156.96C158.028 81.5682 158.922 81.3727 159.651 80.9818C160.38 80.5909 160.93 79.9864 161.311 79.1727C161.687 78.3591 161.879 77.3182 161.879 76.05C161.879 74.7818 161.691 73.75 161.311 72.9545C160.935 72.1545 160.38 71.5636 159.651 71.1773C158.922 70.7909 158.028 70.6 156.96 70.6H146.063V69.7409H157.46C159.239 69.7409 160.797 69.9682 162.14 70.4273C163.484 70.8864 164.533 71.5773 165.281 72.5091C166.033 73.4409 166.404 74.6227 166.404 76.0545C166.404 77.4864 166.051 78.6455 165.345 79.5318C164.639 80.4182 163.621 81.0636 162.287 81.4727C160.953 81.8818 159.344 82.0864 157.455 82.0864H152.073L152.078 82.0818ZM146.063 94.5227V93.6636H157.377V94.5227H146.063ZM149.529 94.0409V70.2682H153.893V94.0409H149.529ZM165.625 94.7364C164.556 94.7364 163.722 94.5636 163.117 94.2136C162.512 93.8682 162.072 93.4 161.792 92.8182C161.512 92.2364 161.338 91.5773 161.26 90.8455C161.182 90.1136 161.136 89.3591 161.127 88.5818C161.118 87.8045 161.077 87.0545 161.013 86.3273C160.944 85.6 160.783 84.9409 160.531 84.3545C160.275 83.7636 159.862 83.3 159.289 82.9591C158.716 82.6182 157.918 82.4455 156.896 82.4455H152.082V81.9818H158.762C160.307 81.9818 161.535 82.1955 162.443 82.6182C163.355 83.0409 164.038 83.6 164.492 84.2955C164.946 84.9909 165.258 85.75 165.418 86.5818C165.579 87.4136 165.666 88.2455 165.675 89.0773C165.684 89.9091 165.712 90.6727 165.748 91.3636C165.785 92.0591 165.909 92.6182 166.115 93.0409C166.321 93.4636 166.702 93.6773 167.257 93.6773C167.6 93.6773 167.908 93.6409 168.183 93.5682C168.453 93.4955 168.701 93.4045 168.925 93.2955L169.223 94.1364C168.957 94.2818 168.499 94.4136 167.848 94.5409C167.197 94.6682 166.459 94.7318 165.625 94.7318V94.7364Z" fill="#FCFBF9"/>
<path d="M171.002 94.5227V93.6636H174V70.6H171.002V69.7409H189.679V76.5136H188.794C188.693 75.3364 188.423 74.3045 187.978 73.4136C187.533 72.5273 186.887 71.8364 186.044 71.3409C185.2 70.8455 184.127 70.5955 182.83 70.5955H178.378V93.6591H182.477C183.999 93.6591 185.228 93.4 186.167 92.8818C187.107 92.3636 187.809 91.6182 188.276 90.6409C188.744 89.6636 189.028 88.4818 189.124 87.0818H189.991V94.5182H170.998L171.002 94.5227ZM183.435 85.6182C183.334 84.8818 183.114 84.2545 182.77 83.7364C182.426 83.2182 181.996 82.8227 181.477 82.5455C180.959 82.2682 180.386 82.1364 179.754 82.15H177.769V81.2727H179.754C180.386 81.2727 180.959 81.15 181.477 80.9C181.996 80.6545 182.426 80.2818 182.77 79.7864C183.114 79.2909 183.339 78.6727 183.435 77.9364H184.32V85.6182H183.435Z" fill="#FCFBF9"/>
</g>
<defs>
<clipPath id="clip0_268_302">
<rect width="190" height="95" fill="white"/>
</clipPath>
</defs>
</svg>
