<svg width="190" height="95" viewBox="0 0 190 95" fill="none" xmlns="http://www.w3.org/2000/svg">
<g clip-path="url(#clip0_268_338)">
<path d="M82.3818 37.7V36.7909H85.4901V12.9409H82.3818V12.0364H92.4629V12.9409H89.3547V36.7955H94.1362C95.4703 36.7955 96.5522 36.6455 97.382 36.35C98.2117 36.0546 98.849 35.6136 99.2982 35.0318C99.7475 34.45 100.059 33.7364 100.238 32.8909C100.417 32.0455 100.522 31.0818 100.559 30H101.49V37.7H82.3818Z" fill="#2E453D"/>
<path d="M116.036 23.2637V50H65.6074V36.6319H69.1145V46.5228H112.529V26.7364H105.249V23.2637H116.036Z" fill="#2E453D"/>
<path d="M116.036 0V13.3682H112.529V3.47727H69.1145V23.2636H77.4718V26.7364H65.6074V0H116.036Z" fill="#2E453D"/>
<path d="M0 94.5228V93.6637H2.99819V70.6001H0V69.741H10.3653V70.6001H7.38087V93.6637H11.3785C12.6346 93.6637 13.6706 93.5182 14.4958 93.2273C15.3164 92.9364 15.972 92.5092 16.4625 91.9455C16.9531 91.3819 17.3107 90.6955 17.5445 89.8819C17.7783 89.0682 17.9341 88.1364 18.0121 87.091H18.8969V94.5273H0V94.5228Z" fill="#2E453D"/>
<path d="M20.9785 94.5228V93.6637H24.646V70.6001H20.9785V69.741H33.008V70.6001H29.0104V93.6637H33.008V94.5228H20.9785Z" fill="#2E453D"/>
<path d="M53.2021 69.7409V76.5136H52.3357C52.2348 75.3363 51.9781 74.3045 51.5701 73.4136C51.1575 72.5272 50.5524 71.8363 49.7547 71.3409C48.957 70.8454 47.9209 70.5954 46.6556 70.5954H42.3555V93.6591H45.67V94.5182H34.9746V93.6591H37.9728V70.5954H34.9746V69.7363H53.2021V69.7409ZM47.5358 86.0636C47.435 85.3272 47.2241 84.7 46.9032 84.1863C46.5823 83.6727 46.133 83.2863 45.5554 83.0227C44.9777 82.7591 44.2397 82.6272 43.3411 82.6272H41.1589V81.7681H43.3411C44.2397 81.7681 44.9777 81.65 45.5554 81.4136C46.133 81.1772 46.5823 80.8181 46.9032 80.3409C47.2241 79.8636 47.435 79.2545 47.5358 78.5136H48.4206V86.0636H47.5358Z" fill="#2E453D"/>
<path d="M55.6364 94.5228V93.6637H58.6346V70.6001H55.6364V69.741H74.3132V76.5137H73.4284C73.3276 75.3364 73.0571 74.3046 72.6124 73.4137C72.1677 72.5273 71.5213 71.8364 70.6778 71.341C69.8343 70.8455 68.7615 70.5955 67.4641 70.5955H63.0127V93.6592H67.1111C68.6332 93.6592 69.8618 93.4001 70.8016 92.8819C71.7414 92.3637 72.4428 91.6182 72.9104 90.641C73.378 89.6637 73.6622 88.4819 73.7585 87.0819H74.625V94.5182H55.6318L55.6364 94.5228ZM68.0647 85.6182C67.9638 84.8819 67.7438 84.2546 67.4 83.7364C67.0561 83.2182 66.6252 82.8228 66.1072 82.5455C65.5891 82.2682 65.0161 82.1364 64.3834 82.1501H62.3984V81.2728H64.3834C65.0161 81.2728 65.5891 81.1501 66.1072 80.9001C66.6252 80.6546 67.0561 80.2819 67.4 79.7864C67.7438 79.291 67.9684 78.6728 68.0647 77.9364H68.9495V85.6182H68.0647Z" fill="#2E453D"/>
<path d="M87.1811 95.0001C85.8791 95.0001 84.7422 94.7955 83.7566 94.3819C82.7755 93.9683 81.9274 93.4137 81.2168 92.7228L79.1172 94.8546H78.3516V87.4683H79.218C79.4747 88.3364 79.814 89.1683 80.2357 89.9637C80.6575 90.7546 81.1801 91.4637 81.8036 92.0865C82.4271 92.7092 83.1606 93.2001 84.0041 93.5637C84.8476 93.9274 85.8149 94.1092 86.9014 94.1092C87.9879 94.1092 88.9507 93.9228 89.7529 93.5546C90.5506 93.1865 91.1695 92.6637 91.6004 91.9865C92.0314 91.3092 92.2514 90.491 92.2514 89.5319C92.2514 88.5728 92.0085 87.8319 91.5271 87.2046C91.0457 86.5774 90.4085 86.0365 89.62 85.5865C88.8315 85.1365 87.965 84.7092 87.0206 84.3137C86.0763 83.9183 85.1273 83.4955 84.1783 83.041C83.2293 82.591 82.3583 82.0546 81.5698 81.4319C80.7813 80.8092 80.1486 80.0455 79.6719 79.1455C79.1951 78.2455 78.9567 77.1365 78.9567 75.8228C78.9567 74.5092 79.2822 73.3774 79.9378 72.4092C80.5933 71.4455 81.4689 70.7046 82.56 70.1865C83.6557 69.6683 84.8522 69.4092 86.1496 69.4092C87.1719 69.4092 88.1255 69.5728 89.0057 69.8955C89.8905 70.2228 90.6744 70.7046 91.3621 71.341L93.4296 69.4092H94.1631V76.5955H93.2967C92.9391 75.2637 92.444 74.1319 91.8067 73.2001C91.1695 72.2683 90.3993 71.5637 89.5008 71.0774C88.6023 70.591 87.5845 70.3501 86.4522 70.3501C85.031 70.3501 83.9399 70.6819 83.1789 71.341C82.4179 72.0001 82.0374 72.8865 82.0374 74.0001C82.0374 74.8274 82.2758 75.5274 82.7526 76.1046C83.2293 76.6819 83.862 77.191 84.6459 77.6228C85.4299 78.0592 86.2917 78.4728 87.2269 78.8683C88.1667 79.2637 89.102 79.7001 90.0418 80.1728C90.9816 80.6455 91.8434 81.2092 92.6228 81.8592C93.4067 82.5092 94.0348 83.2955 94.5161 84.2228C94.9929 85.1501 95.2313 86.2774 95.2313 87.6092C95.2313 89.1092 94.8875 90.4092 94.1998 91.5183C93.5121 92.6274 92.5632 93.4819 91.3483 94.0865C90.138 94.691 88.749 94.9955 87.1811 94.9955V95.0001Z" fill="#2E453D"/>
<path d="M102.296 94.5227V93.6636H105.963V70.6H103.447C102.525 70.6 101.75 70.7636 101.131 71.0863C100.508 71.4091 100.008 71.8727 99.6232 72.4727C99.2381 73.0727 98.9493 73.7954 98.7476 74.6363C98.5459 75.4772 98.4129 76.4227 98.3487 77.4681H97.4502V69.7363H118.827V77.4681H117.961C117.883 76.4227 117.745 75.4772 117.544 74.6363C117.342 73.7954 117.053 73.0727 116.668 72.4727C116.283 71.8727 115.783 71.4091 115.16 71.0863C114.536 70.7636 113.766 70.6 112.845 70.6H110.328V93.6636H113.977V94.5227H102.296Z" fill="#2E453D"/>
<path d="M132.232 94.8502C130.49 94.8502 128.931 94.5274 127.565 93.8774C126.199 93.2274 125.039 92.3229 124.081 91.1684C123.123 90.0138 122.403 88.6638 121.908 87.1229C121.413 85.582 121.165 83.9184 121.165 82.132C121.165 80.3456 121.426 78.6865 121.949 77.1411C122.472 75.5956 123.219 74.2502 124.2 73.0956C125.176 71.9411 126.345 71.0365 127.698 70.3865C129.055 69.7365 130.563 69.4138 132.232 69.4138C133.9 69.4138 135.39 69.7365 136.747 70.3865C138.104 71.0365 139.269 71.9411 140.245 73.0956C141.222 74.2502 141.974 75.6002 142.496 77.1411C143.019 78.682 143.28 80.3456 143.28 82.132C143.28 83.9184 143.033 85.582 142.537 87.1229C142.042 88.6638 141.318 90.0138 140.364 91.1684C139.411 92.3229 138.246 93.2274 136.88 93.8774C135.514 94.5274 133.965 94.8502 132.232 94.8502ZM132.232 94.0411C133.497 94.0411 134.529 93.732 135.322 93.1093C136.115 92.4865 136.724 91.6274 137.155 90.532C137.582 89.4365 137.875 88.1684 138.031 86.7229C138.187 85.282 138.265 83.7502 138.265 82.132C138.265 80.5138 138.169 78.982 137.981 77.5411C137.793 76.1002 137.472 74.8275 137.022 73.732C136.573 72.6365 135.959 71.7774 135.18 71.1547C134.4 70.532 133.419 70.2229 132.232 70.2229C131.044 70.2229 130.054 70.532 129.266 71.1547C128.477 71.7774 127.858 72.6365 127.418 73.732C126.973 74.8275 126.657 76.0956 126.469 77.5411C126.281 78.982 126.185 80.5138 126.185 82.132C126.185 83.7502 126.263 85.282 126.419 86.7229C126.575 88.1638 126.868 89.4365 127.294 90.532C127.721 91.6274 128.33 92.4865 129.128 93.1093C129.921 93.732 130.957 94.0411 132.236 94.0411H132.232Z" fill="#2E453D"/>
<path d="M152.078 82.0819V81.5682H156.961C158.029 81.5682 158.923 81.3728 159.652 80.9819C160.381 80.591 160.931 79.9864 161.311 79.1728C161.687 78.3591 161.88 77.3182 161.88 76.0501C161.88 74.7819 161.692 73.7501 161.311 72.9546C160.935 72.1546 160.381 71.5637 159.652 71.1773C158.923 70.791 158.029 70.6001 156.961 70.6001H146.063V69.741H157.46C159.239 69.741 160.798 69.9682 162.141 70.4273C163.484 70.8864 164.534 71.5773 165.281 72.5092C166.033 73.441 166.404 74.6228 166.404 76.0546C166.404 77.4864 166.051 78.6455 165.345 79.5319C164.639 80.4182 163.622 81.0637 162.288 81.4728C160.954 81.8819 159.344 82.0864 157.456 82.0864H152.074L152.078 82.0819ZM146.063 94.5228V93.6637H157.378V94.5228H146.063ZM149.529 94.041V70.2682H153.894V94.041H149.529ZM165.625 94.7364C164.557 94.7364 163.723 94.5637 163.117 94.2137C162.512 93.8682 162.072 93.4001 161.793 92.8182C161.513 92.2364 161.339 91.5773 161.261 90.8455C161.183 90.1137 161.137 89.3592 161.128 88.5819C161.119 87.8046 161.077 87.0546 161.013 86.3273C160.944 85.6001 160.784 84.941 160.532 84.3546C160.275 83.7637 159.862 83.3001 159.289 82.9591C158.716 82.6182 157.919 82.4455 156.896 82.4455H152.083V81.9819H158.762C160.307 81.9819 161.536 82.1955 162.444 82.6182C163.356 83.041 164.039 83.6001 164.493 84.2955C164.947 84.991 165.258 85.7501 165.419 86.5819C165.579 87.4137 165.666 88.2455 165.676 89.0773C165.685 89.9092 165.712 90.6728 165.749 91.3637C165.786 92.0592 165.909 92.6182 166.116 93.041C166.322 93.4637 166.702 93.6773 167.257 93.6773C167.601 93.6773 167.908 93.641 168.183 93.5682C168.454 93.4955 168.701 93.4046 168.926 93.2955L169.224 94.1364C168.958 94.2819 168.499 94.4137 167.849 94.541C167.198 94.6682 166.459 94.7319 165.625 94.7319V94.7364Z" fill="#2E453D"/>
<path d="M171.003 94.5228V93.6637H174.001V70.6001H171.003V69.741H189.679V76.5137H188.795C188.694 75.3364 188.423 74.3046 187.979 73.4137C187.534 72.5273 186.888 71.8364 186.044 71.341C185.2 70.8455 184.128 70.5955 182.83 70.5955H178.379V93.6592H182.477C183.999 93.6592 185.228 93.4001 186.168 92.8819C187.108 92.3637 187.809 91.6182 188.277 90.641C188.744 89.6637 189.028 88.4819 189.125 87.0819H189.991V94.5182H170.998L171.003 94.5228ZM183.435 85.6182C183.335 84.8819 183.115 84.2546 182.771 83.7364C182.427 83.2182 181.996 82.8228 181.478 82.5455C180.96 82.2682 180.387 82.1364 179.754 82.1501H177.769V81.2728H179.754C180.387 81.2728 180.96 81.1501 181.478 80.9001C181.996 80.6546 182.427 80.2819 182.771 79.7864C183.115 79.291 183.339 78.6728 183.435 77.9364H184.32V85.6182H183.435Z" fill="#2E453D"/>
</g>
<defs>
<clipPath id="clip0_268_338">
<rect width="190" height="95" fill="white"/>
</clipPath>
</defs>
</svg>
